<svg width="16" height="15" viewBox="0 0 16 15" fill="none" xmlns="http://www.w3.org/2000/svg">
<g clip-path="url(#clip0_517_2085)">
<path d="M3.00195 11.25V6.87497M5.50195 11.25V6.87497M8.00195 11.25V6.87497M10.502 11.25V6.87497M13.002 11.25V6.87497M1.12695 13.75H14.877M8.2332 1.34372L13.8582 3.59372C14.077 3.68122 14.252 3.94372 14.252 4.17497V6.24997C14.252 6.59372 13.9707 6.87497 13.627 6.87497H2.37695C2.0332 6.87497 1.75195 6.59372 1.75195 6.24997V4.17497C1.75195 3.94372 1.92695 3.68122 2.1457 3.59372L7.7707 1.34372C7.8957 1.29372 8.1082 1.29372 8.2332 1.34372ZM14.252 13.75H1.75195V11.875C1.75195 11.5312 2.0332 11.25 2.37695 11.25H13.627C13.9707 11.25 14.252 11.5312 14.252 11.875V13.75Z" stroke="#5D6F7D" stroke-width="0.875" stroke-miterlimit="10" stroke-linecap="round" stroke-linejoin="round"/>
<path d="M8 5.31256C8.12311 5.31256 8.24502 5.28832 8.35877 5.2412C8.47251 5.19409 8.57586 5.12503 8.66291 5.03798C8.74997 4.95092 8.81902 4.84757 8.86614 4.73383C8.91325 4.62009 8.9375 4.49818 8.9375 4.37506C8.9375 4.25195 8.91325 4.13004 8.86614 4.0163C8.81902 3.90256 8.74997 3.79921 8.66291 3.71215C8.57586 3.6251 8.47251 3.55604 8.35877 3.50893C8.24502 3.46181 8.12311 3.43756 8 3.43756C7.75136 3.43756 7.5129 3.53634 7.33709 3.71215C7.16127 3.88797 7.0625 4.12642 7.0625 4.37506C7.0625 4.62371 7.16127 4.86216 7.33709 5.03798C7.5129 5.21379 7.75136 5.31256 8 5.31256Z" stroke="#5D6F7D" stroke-width="0.875" stroke-miterlimit="10" stroke-linecap="round" stroke-linejoin="round"/>
</g>
<defs>
<clipPath id="clip0_517_2085">
<rect width="15" height="15" fill="white" transform="translate(0.5)"/>
</clipPath>
</defs>
</svg>
