<svg width="44" height="41" viewBox="0 0 44 41" fill="none" xmlns="http://www.w3.org/2000/svg">
<path d="M26.776 9.07183C28.6464 9.40874 30.3654 10.2533 31.7129 11.4973C33.0605 12.7414 33.9752 14.3284 34.3401 16.0553M26.776 2C30.662 2.39856 34.2857 4.00517 37.0522 6.55604C39.8186 9.1069 41.5634 12.4504 42 16.0376M40.085 30.1459V35.4497C40.0872 35.9421 39.978 36.4295 39.7643 36.8806C39.5506 37.3318 39.2373 37.7367 38.8443 38.0696C38.4513 38.4025 37.9873 38.6559 37.4821 38.8136C36.9769 38.9714 36.4416 39.03 35.9104 38.9856C30.0177 38.3945 24.3574 36.5355 19.3843 33.558C14.7574 30.8436 10.8346 27.222 7.89448 22.9503C4.65815 18.338 2.64412 13.0868 2.01554 7.6221C1.96769 7.1332 2.03062 6.64046 2.20034 6.17525C2.37005 5.71004 2.64283 5.28255 3.0013 4.91999C3.35977 4.55744 3.79609 4.26777 4.28246 4.06943C4.76884 3.87109 5.29461 3.76842 5.82632 3.76796H11.5712C12.5006 3.75951 13.4015 4.06334 14.1062 4.62282C14.8108 5.1823 15.2711 5.95924 15.4011 6.80884C15.6436 8.5062 16.0933 10.1728 16.7416 11.7768C16.9993 12.4096 17.055 13.0973 16.9023 13.7585C16.7496 14.4196 16.3947 15.0265 15.8799 15.5072L13.4479 17.7525C16.1739 22.1787 20.1435 25.8434 24.9377 28.3602L27.3697 26.1149C27.8903 25.6396 28.5477 25.312 29.2638 25.171C29.9799 25.03 30.7248 25.0815 31.4102 25.3193C33.1476 25.9179 34.9528 26.3331 36.7913 26.5569C37.7215 26.6781 38.5711 27.1106 39.1784 27.7724C39.7857 28.4341 40.1083 29.2788 40.085 30.1459Z" stroke="#1457ED" stroke-width="2.5" stroke-linecap="round" stroke-linejoin="round"/>
</svg>
