<svg width="14" height="14" viewBox="0 0 14 14" fill="none" xmlns="http://www.w3.org/2000/svg">
<g clip-path="url(#clip0_438_3321)">
<path d="M5.24935 12.8307H8.74935C11.666 12.8307 12.8327 11.6641 12.8327 8.7474V5.2474C12.8327 2.33073 11.666 1.16406 8.74935 1.16406H5.24935C2.33268 1.16406 1.16602 2.33073 1.16602 5.2474V8.7474C1.16602 11.6641 2.33268 12.8307 5.24935 12.8307Z" stroke="#5D6F7D" stroke-width="1.4" stroke-linecap="round" stroke-linejoin="round"/>
<path d="M7.00065 9.04427C7.26877 9.04427 7.53426 8.99146 7.78196 8.88886C8.02967 8.78626 8.25474 8.63587 8.44433 8.44628C8.63391 8.25669 8.7843 8.03162 8.88691 7.78392C8.98951 7.53621 9.04232 7.27072 9.04232 7.0026C9.04232 6.73449 8.98951 6.469 8.88691 6.22129C8.7843 5.97359 8.63391 5.74851 8.44433 5.55893C8.25474 5.36934 8.02967 5.21895 7.78196 5.11635C7.53426 5.01375 7.26877 4.96094 7.00065 4.96094C6.45917 4.96094 5.93986 5.17604 5.55697 5.55893C5.17409 5.94181 4.95898 6.46112 4.95898 7.0026C4.95898 7.54409 5.17409 8.06339 5.55697 8.44628C5.93986 8.82917 6.45917 9.04427 7.00065 9.04427Z" stroke="#5D6F7D" stroke-width="1.4" stroke-linecap="round" stroke-linejoin="round"/>
<path d="M10.2891 4.08594H10.2961" stroke="#5D6F7D" stroke-width="1.4" stroke-linecap="round" stroke-linejoin="round"/>
</g>
<defs>
<clipPath id="clip0_438_3321">
<rect width="14" height="14" fill="white"/>
</clipPath>
</defs>
</svg>
