<svg width="14" height="14" viewBox="0 0 14 14" fill="none" xmlns="http://www.w3.org/2000/svg">
<path d="M6.99969 7.83531C7.23869 7.83531 7.47536 7.78824 7.69617 7.69677C7.91698 7.60531 8.11762 7.47125 8.28662 7.30225C8.45562 7.13324 8.58968 6.93261 8.68115 6.7118C8.77261 6.49098 8.81969 6.25432 8.81969 6.01531C8.81969 5.77631 8.77261 5.53964 8.68115 5.31883C8.58968 5.09802 8.45562 4.89738 8.28662 4.72838C8.11762 4.55938 7.91698 4.42532 7.69617 4.33385C7.47536 4.24239 7.23869 4.19531 6.99969 4.19531C6.51699 4.19531 6.05407 4.38706 5.71275 4.72838C5.37144 5.06969 5.17969 5.53262 5.17969 6.01531C5.17969 6.49801 5.37144 6.96093 5.71275 7.30225C6.05407 7.64356 6.51699 7.83531 6.99969 7.83531Z" stroke="#5D6F7D" stroke-width="1.4"/>
<path d="M2.11231 4.9499C3.26148 -0.101769 10.7456 -0.095936 11.889 4.95573C12.5598 7.91906 10.7165 10.4274 9.10064 11.9791C8.53602 12.5236 7.78217 12.8279 6.99773 12.8279C6.21329 12.8279 5.45943 12.5236 4.89481 11.9791C3.28481 10.4274 1.44148 7.91323 2.11231 4.9499Z" stroke="#5D6F7D" stroke-width="1.4"/>
</svg>
