<svg width="40" height="40" viewBox="0 0 40 40" fill="none" xmlns="http://www.w3.org/2000/svg">
<path d="M33.9693 35.2141C33.6379 35.2138 33.3202 35.0819 33.086 34.8474L22.4527 24.2141C22.2202 23.9788 22.0898 23.6615 22.0898 23.3307C22.0898 23 22.2202 22.6826 22.4527 22.4474L35.336 9.56408C35.6527 9.24741 36.136 9.13074 36.5693 9.24741C37.0027 9.38074 37.336 9.73074 37.436 10.1641C37.7527 11.5807 37.9193 13.1641 37.9193 14.9974V24.9974C37.9193 29.6141 36.9527 32.7307 34.8527 34.8474C34.6193 35.0807 34.2693 35.1307 33.9693 35.2141ZM25.1027 23.3307L33.8693 32.0974C34.9193 30.4807 35.4193 28.1807 35.4193 24.9974V14.9974C35.4193 14.3141 35.4027 13.6807 35.3527 13.0807L25.1027 23.3307Z" fill="#1457ED"/>
<path d="M10.4507 37.4693C10.3507 37.4693 10.2673 37.4526 10.1673 37.4359C4.65065 36.1693 2.08398 32.2193 2.08398 25.0026V15.0026C2.08398 5.9526 5.95065 2.08594 15.0007 2.08594H25.0007C32.2173 2.08594 36.1673 4.6526 37.434 10.1693C37.534 10.5859 37.4007 11.0359 37.1007 11.3359L11.334 37.1026C11.0998 37.3371 10.7821 37.469 10.4507 37.4693ZM15.0007 4.58594C7.31732 4.58594 4.58398 7.31927 4.58398 15.0026V25.0026C4.58398 30.7859 6.18398 33.6859 10.0673 34.8359L34.8173 10.0859C33.684 6.2026 30.7673 4.6026 24.984 4.6026H15.0007V4.58594Z" fill="#1457ED"/>
<path d="M25 37.9168H15C13.1666 37.9168 11.6 37.7668 10.1666 37.4334C9.94906 37.3869 9.74848 37.2815 9.58681 37.1286C9.42514 36.9758 9.30861 36.7814 9.24996 36.5668C9.11663 36.1334 9.24996 35.6668 9.56663 35.3334L22.45 22.4501C22.9333 21.9668 23.7333 21.9668 24.2166 22.4501L34.85 33.0834C35.084 33.3178 35.2155 33.6355 35.2155 33.9668C35.2155 34.298 35.084 34.6157 34.85 34.8501C32.7333 36.9501 29.6166 37.9168 25 37.9168ZM13.0833 35.3501C13.6833 35.4001 14.3166 35.4168 15 35.4168H25C28.2 35.4168 30.4833 34.9168 32.1 33.8668L23.3333 25.1001L13.0833 35.3501ZM15.1983 22.1818C14.1483 22.1818 13.0983 21.7984 12.265 21.0151C9.61496 18.4984 8.5483 15.7318 9.18163 13.0318C9.81496 10.2651 12.2316 8.39844 15.1983 8.39844C18.165 8.39844 20.5816 10.2651 21.215 13.0318C21.8316 15.7484 20.765 18.4984 18.115 21.0151C17.2983 21.7818 16.2483 22.1818 15.1983 22.1818ZM11.615 13.5818C11.0816 15.8484 12.615 17.8818 13.9983 19.1984C14.6816 19.8484 15.7316 19.8484 16.3983 19.1984C17.765 17.8984 19.2983 15.8651 18.7816 13.5818C18.3316 11.5984 16.565 10.8818 15.1983 10.8818C13.8316 10.8818 12.0816 11.5984 11.615 13.5818Z" fill="#1457ED"/>
<path d="M15.2467 15.8177C14.3301 15.8177 13.5801 15.0677 13.5801 14.151C13.5801 13.2344 14.3134 12.4844 15.2467 12.4844H15.2634C16.1801 12.4844 16.9301 13.2344 16.9301 14.151C16.9301 15.0677 16.1634 15.8177 15.2467 15.8177Z" fill="#1457ED"/>
</svg>
