<svg width="14" height="14" viewBox="0 0 14 14" fill="none" xmlns="http://www.w3.org/2000/svg">
<path d="M4.66602 3.35156C4.42685 3.35156 4.22852 3.15323 4.22852 2.91406V1.16406C4.22852 0.924896 4.42685 0.726562 4.66602 0.726562C4.90518 0.726562 5.10352 0.924896 5.10352 1.16406V2.91406C5.10352 3.15323 4.90518 3.35156 4.66602 3.35156ZM9.33268 3.35156C9.09352 3.35156 8.89518 3.15323 8.89518 2.91406V1.16406C8.89518 0.924896 9.09352 0.726562 9.33268 0.726562C9.57185 0.726562 9.77018 0.924896 9.77018 1.16406V2.91406C9.77018 3.15323 9.57185 3.35156 9.33268 3.35156Z" fill="#5D6F7D" stroke="#5D6F7D" stroke-width="0.6"/>
<path d="M9.33333 13.2682H4.66667C2.5375 13.2682 1.3125 12.0432 1.3125 9.91406V4.95573C1.3125 2.82656 2.5375 1.60156 4.66667 1.60156H9.33333C11.4625 1.60156 12.6875 2.82656 12.6875 4.95573V9.91406C12.6875 12.0432 11.4625 13.2682 9.33333 13.2682ZM4.66667 2.47656C2.99833 2.47656 2.1875 3.2874 2.1875 4.95573V9.91406C2.1875 11.5824 2.99833 12.3932 4.66667 12.3932H9.33333C11.0017 12.3932 11.8125 11.5824 11.8125 9.91406V4.95573C11.8125 3.2874 11.0017 2.47656 9.33333 2.47656H4.66667Z" fill="#5D6F7D" stroke="#5D6F7D" stroke-width="0.6"/>
<path d="M9.33268 6.85156H4.66602C4.42685 6.85156 4.22852 6.65323 4.22852 6.41406C4.22852 6.1749 4.42685 5.97656 4.66602 5.97656H9.33268C9.57185 5.97656 9.77018 6.1749 9.77018 6.41406C9.77018 6.65323 9.57185 6.85156 9.33268 6.85156ZM6.99935 9.76823H4.66602C4.42685 9.76823 4.22852 9.5699 4.22852 9.33073C4.22852 9.09156 4.42685 8.89323 4.66602 8.89323H6.99935C7.23852 8.89323 7.43685 9.09156 7.43685 9.33073C7.43685 9.5699 7.23852 9.76823 6.99935 9.76823Z" fill="#5D6F7D" stroke="#5D6F7D" stroke-width="0.6"/>
</svg>
