<svg width="14" height="14" viewBox="0 0 14 14" fill="none" xmlns="http://www.w3.org/2000/svg">
<g clip-path="url(#clip0_438_2016)">
<path d="M11.084 5.10156C9.87648 5.10156 8.89648 4.12156 8.89648 2.91406C8.89648 1.70656 9.87648 0.726562 11.084 0.726562C12.2915 0.726562 13.2715 1.70656 13.2715 2.91406C13.2715 4.12156 12.2915 5.10156 11.084 5.10156ZM11.084 1.60156C10.3607 1.60156 9.77148 2.19073 9.77148 2.91406C9.77148 3.6374 10.3607 4.22656 11.084 4.22656C11.8073 4.22656 12.3965 3.6374 12.3965 2.91406C12.3965 2.19073 11.8073 1.60156 11.084 1.60156ZM7.00065 8.01823H4.08398C3.84482 8.01823 3.64648 7.8199 3.64648 7.58073C3.64648 7.34156 3.84482 7.14323 4.08398 7.14323H7.00065C7.23982 7.14323 7.43815 7.34156 7.43815 7.58073C7.43815 7.8199 7.23982 8.01823 7.00065 8.01823ZM9.33398 10.3516H4.08398C3.84482 10.3516 3.64648 10.1532 3.64648 9.91406C3.64648 9.6749 3.84482 9.47656 4.08398 9.47656H9.33398C9.57315 9.47656 9.77148 9.6749 9.77148 9.91406C9.77148 10.1532 9.57315 10.3516 9.33398 10.3516Z" fill="#5D6F7D" stroke="#5D6F7D" stroke-width="0.6"/>
<path d="M8.74935 13.2682H5.24935C2.08185 13.2682 0.728516 11.9149 0.728516 8.7474V5.2474C0.728516 2.0799 2.08185 0.726562 5.24935 0.726562H8.16602C8.40518 0.726562 8.60352 0.924896 8.60352 1.16406C8.60352 1.40323 8.40518 1.60156 8.16602 1.60156H5.24935C2.56018 1.60156 1.60352 2.55823 1.60352 5.2474V8.7474C1.60352 11.4366 2.56018 12.3932 5.24935 12.3932H8.74935C11.4385 12.3932 12.3952 11.4366 12.3952 8.7474V5.83073C12.3952 5.59156 12.5935 5.39323 12.8327 5.39323C13.0718 5.39323 13.2702 5.59156 13.2702 5.83073V8.7474C13.2702 11.9149 11.9169 13.2682 8.74935 13.2682Z" fill="#5D6F7D" stroke="#5D6F7D" stroke-width="0.6"/>
</g>
<defs>
<clipPath id="clip0_438_2016">
<rect width="14" height="14" fill="white"/>
</clipPath>
</defs>
</svg>
