<svg width="40" height="40" viewBox="0 0 40 40" fill="none" xmlns="http://www.w3.org/2000/svg">
<path d="M28.334 35.4193H11.6673C5.58398 35.4193 2.08398 31.9193 2.08398 25.8359V14.1693C2.08398 8.08594 5.58398 4.58594 11.6673 4.58594H28.334C34.4173 4.58594 37.9173 8.08594 37.9173 14.1693V25.8359C37.9173 31.9193 34.4173 35.4193 28.334 35.4193ZM11.6673 7.08594C6.90065 7.08594 4.58398 9.4026 4.58398 14.1693V25.8359C4.58398 30.6026 6.90065 32.9193 11.6673 32.9193H28.334C33.1007 32.9193 35.4173 30.6026 35.4173 25.8359V14.1693C35.4173 9.4026 33.1007 7.08594 28.334 7.08594H11.6673Z" fill="#1457ED"/>
<path d="M19.9952 21.4441C18.5952 21.4441 17.1785 21.0108 16.0952 20.1274L10.8785 15.9608C10.6359 15.7501 10.484 15.454 10.4545 15.1341C10.425 14.8142 10.5201 14.4952 10.72 14.2437C10.9199 13.9922 11.2092 13.8276 11.5275 13.7842C11.8458 13.7408 12.1686 13.822 12.4285 14.0108L17.6452 18.1774C18.9119 19.1941 21.0619 19.1941 22.3285 18.1774L27.5452 14.0108C28.0785 13.5774 28.8785 13.6608 29.2952 14.2108C29.7285 14.7441 29.6452 15.5441 29.0952 15.9608L23.8785 20.1274C22.8119 21.0108 21.3952 21.4441 19.9952 21.4441Z" fill="#1457ED"/>
</svg>
