<svg width="14" height="14" viewBox="0 0 14 14" fill="none" xmlns="http://www.w3.org/2000/svg">
<g clip-path="url(#clip0_438_3277)">
<path d="M1.16602 12.8359H12.8327" stroke="#5D6F7D" stroke-width="1.4" stroke-miterlimit="10" stroke-linecap="round" stroke-linejoin="round"/>
<path d="M1.7207 12.8342L1.74987 5.81673C1.74987 5.46089 1.91904 5.12256 2.19904 4.90089L6.28237 1.72173C6.48778 1.5628 6.74015 1.47656 6.99987 1.47656C7.25959 1.47656 7.51196 1.5628 7.71737 1.72173L11.8007 4.89506C12.0865 5.11673 12.2499 5.45506 12.2499 5.81673V12.8342" stroke="#5D6F7D" stroke-width="1.4" stroke-miterlimit="10" stroke-linejoin="round"/>
<path d="M7.58268 9.91406H6.41602C5.93185 9.91406 5.54102 10.3049 5.54102 10.7891V12.8307H8.45768V10.7891C8.45768 10.3049 8.06685 9.91406 7.58268 9.91406ZM5.54102 8.01823H4.37435C4.05352 8.01823 3.79102 7.75573 3.79102 7.4349V6.5599C3.79102 6.23906 4.05352 5.97656 4.37435 5.97656H5.54102C5.86185 5.97656 6.12435 6.23906 6.12435 6.5599V7.4349C6.12435 7.75573 5.86185 8.01823 5.54102 8.01823ZM9.62435 8.01823H8.45768C8.13685 8.01823 7.87435 7.75573 7.87435 7.4349V6.5599C7.87435 6.23906 8.13685 5.97656 8.45768 5.97656H9.62435C9.94518 5.97656 10.2077 6.23906 10.2077 6.5599V7.4349C10.2077 7.75573 9.94518 8.01823 9.62435 8.01823Z" stroke="#5D6F7D" stroke-miterlimit="10" stroke-linejoin="round"/>
<path d="M11.0842 4.08594L11.0667 2.33594H8.5" stroke="#5D6F7D" stroke-width="1.4" stroke-miterlimit="10" stroke-linecap="round" stroke-linejoin="round"/>
</g>
<defs>
<clipPath id="clip0_438_3277">
<rect width="14" height="14" fill="white"/>
</clipPath>
</defs>
</svg>
