<svg width="40" height="40" viewBox="0 0 40 40" fill="none" xmlns="http://www.w3.org/2000/svg">
<path d="M3.33398 13.0166L3.33398 26.9833C3.33398 33.05 6.95065 36.6666 13.0173 36.6666L26.9673 36.6666C33.0507 36.6666 36.6673 33.05 36.6673 26.9833L36.6673 13.0333C36.6673 6.96662 33.0507 3.34996 26.984 3.34996L13.0173 3.34996C6.95065 3.33329 3.33398 6.94996 3.33398 13.0166ZM23.734 11.9666L30.884 19.1166C31.1181 19.351 31.2495 19.6687 31.2495 20C31.2495 20.3312 31.1181 20.6489 30.884 20.8833L23.734 28.0333C23.4988 28.2658 23.1814 28.3961 22.8507 28.3961C22.5199 28.3961 22.2025 28.2658 21.9673 28.0333C21.484 27.55 21.484 26.75 21.9673 26.2666L26.984 21.25L10.0007 21.25C9.31732 21.25 8.75065 20.6833 8.75065 20C8.75065 19.3166 9.31732 18.75 10.0007 18.75L26.984 18.75L21.9673 13.7333C21.484 13.25 21.484 12.45 21.9673 11.9666C22.2173 11.7166 22.534 11.6 22.8506 11.6C23.1673 11.6 23.5006 11.7333 23.734 11.9666Z" fill="white"/>
</svg>
