<svg width="30" height="30" viewBox="0 0 30 30" fill="none" xmlns="http://www.w3.org/2000/svg">
<path d="M15 11.9376C16.1464 10.7666 17.6389 10 19.375 10C23.1719 10 26.25 13.078 26.25 16.875V26.25H23.75V16.875C23.75 14.4587 21.7913 12.5 19.375 12.5C16.9588 12.5 15 14.4587 15 16.875V26.25H12.5V10.625H15V11.9376ZM6.25 8.125C5.21446 8.125 4.375 7.28554 4.375 6.25C4.375 5.21446 5.21446 4.375 6.25 4.375C7.28553 4.375 8.125 5.21446 8.125 6.25C8.125 7.28554 7.28553 8.125 6.25 8.125ZM5 10.625H7.5V26.25H5V10.625Z" fill="#1457ED" stroke="#1457ED" stroke-width="0.5"/>
</svg>
