<svg width="30" height="30" viewBox="0 0 30 30" fill="none" xmlns="http://www.w3.org/2000/svg">
<path d="M19.1874 6.9375C17.2101 6.9375 15.5983 8.52256 15.563 10.4957L15.5279 12.4645C15.5205 12.8786 15.1788 13.2084 14.7646 13.201C14.7351 13.2005 14.7058 13.1982 14.6766 13.1943L12.7256 12.9281C10.1587 12.5781 7.69854 11.3966 5.3384 9.43009C4.59094 13.5671 6.05 16.434 9.56678 18.6449L11.7505 20.0177C12.1012 20.2382 12.2068 20.7012 11.9863 21.0519C11.9358 21.1322 11.8705 21.2022 11.7938 21.2582L9.80423 22.7119C10.9872 22.7863 12.1117 22.7344 13.0438 22.5484C18.9408 21.3715 22.8621 16.9338 22.8621 9.6138C22.8621 9.01619 21.5968 6.9375 19.1874 6.9375ZM13.0634 10.4511C13.1229 7.11974 15.8419 4.4375 19.1874 4.4375C20.8915 4.4375 22.4331 5.13347 23.5435 6.25669C24.4328 6.25 25.1893 6.47482 26.8794 5.44954C26.4616 7.5 26.2543 8.38996 25.3621 9.6138C25.3621 19.1657 19.4908 23.8111 13.533 25C9.44838 25.8151 3.50808 24.4767 1.80664 22.6982C2.67343 22.6316 6.1991 22.2525 8.23619 20.7614C6.51243 19.6233 -0.348286 15.5851 4.15965 4.73296C6.27649 7.20379 8.42247 8.88564 10.5976 9.77852C12.0444 10.3724 12.3997 10.3606 13.0634 10.4511Z" fill="#1457ED"/>
</svg>
