<svg width="705" height="175" viewBox="0 0 705 175" fill="none" xmlns="http://www.w3.org/2000/svg">
<path d="M690.795 164.72L681.84 173.68C680.081 175.439 677.23 175.439 675.471 173.68L666.516 164.72C664.758 162.96 664.758 160.108 666.516 158.348L675.471 149.388C677.23 147.628 680.081 147.628 681.84 149.388L690.795 158.348C692.554 160.108 692.554 162.963 690.795 164.72Z" fill="#042041" fill-opacity="0.2"/>
<path d="M622.158 91.4625L613.268 95.4101C610.994 96.421 608.335 95.3932 607.325 93.1209L603.379 84.2288C602.369 81.9537 603.396 79.2928 605.667 78.282L614.557 74.3343C616.831 73.3235 619.49 74.3512 620.501 76.6235L624.446 85.5156C625.457 87.7907 624.429 90.4544 622.158 91.4625Z" fill="#FEC55E" fill-opacity="0.2"/>
<path d="M453.823 95.3076H449.281C448.037 95.3076 447.029 94.2996 447.029 93.055V88.5104C447.029 87.2658 448.037 86.2578 449.281 86.2578H453.823C455.067 86.2578 456.074 87.2658 456.074 88.5104V93.055C456.074 94.2996 455.067 95.3076 453.823 95.3076Z" fill="#042041" fill-opacity="0.2"/>
<path d="M701.752 56.1689H697.21C695.966 56.1689 694.959 55.1609 694.959 53.9163V49.3717C694.959 48.1272 695.966 47.1191 697.21 47.1191H701.752C702.996 47.1191 704.004 48.1272 704.004 49.3717V53.9163C704.004 55.1609 702.996 56.1689 701.752 56.1689Z" fill="#042041" fill-opacity="0.2"/>
<path d="M626.311 12.057C625.56 12.057 624.853 11.7642 624.321 11.232L621.11 8.01923C620.013 6.92109 620.013 5.13591 621.11 4.03777L624.321 0.82501C624.853 0.292835 625.56 0 626.311 0C627.062 0 627.769 0.292835 628.301 0.82501L631.512 4.03777C632.609 5.13591 632.609 6.92109 631.512 8.01923L628.301 11.232C627.769 11.7642 627.062 12.057 626.311 12.057ZM626.311 1.1263C625.861 1.1263 625.436 1.30087 625.118 1.62187L621.907 4.83463C621.248 5.49351 621.248 6.56631 621.907 7.22519L625.118 10.4379C625.436 10.7561 625.861 10.9335 626.311 10.9335C626.761 10.9335 627.186 10.7589 627.504 10.4379L630.715 7.22519C631.374 6.56631 631.374 5.49351 630.715 4.83463L627.504 1.62187C627.186 1.30369 626.761 1.1263 626.311 1.1263Z" fill="#1B53D3" fill-opacity="0.5"/>
<path d="M552.299 67.5257C551.548 67.5257 550.841 67.2329 550.31 66.7007L547.099 63.488C546.001 62.3898 546.001 60.6047 547.099 59.5065L550.31 56.2938C550.841 55.7616 551.548 55.4688 552.299 55.4688C553.051 55.4688 553.757 55.7616 554.289 56.2938L557.5 59.5065C558.597 60.6047 558.597 62.3898 557.5 63.488L554.289 66.7007C553.757 67.2329 553.051 67.5257 552.299 67.5257ZM552.299 56.595C551.849 56.595 551.424 56.7696 551.106 57.0906L547.895 60.3034C547.236 60.9623 547.236 62.035 547.895 62.6939L551.106 65.9067C551.424 66.2249 551.849 66.4023 552.299 66.4023C552.75 66.4023 553.174 66.2277 553.492 65.9067L556.704 62.6939C557.362 62.035 557.362 60.9623 556.704 60.3034L553.492 57.0906C553.174 56.7724 552.75 56.595 552.299 56.595Z" fill="#1B53D3" fill-opacity="0.5"/>
<path d="M516.983 41.4453H478.147C477.837 41.4453 477.584 41.6987 477.584 42.0085V43.1348C477.584 43.4445 477.837 43.6979 478.147 43.6979H516.983C517.293 43.6979 517.546 43.4445 517.546 43.1348V42.0085C517.546 41.6987 517.293 41.4453 516.983 41.4453Z" fill="#FEC55E" fill-opacity="0.2"/>
<path d="M13.2091 164.72L22.164 173.68C23.9229 175.439 26.7737 175.439 28.5326 173.68L37.4875 164.72C39.2464 162.96 39.2464 160.108 37.4875 158.348L28.5326 149.388C26.7737 147.628 23.9229 147.628 22.164 149.388L13.2091 158.348C11.4503 160.108 11.4503 162.963 13.2091 164.72Z" fill="#042041" fill-opacity="0.2"/>
<path d="M81.8456 91.4625L90.7357 95.4101C93.0096 96.421 95.669 95.3932 96.6793 93.1209L100.625 84.2288C101.635 81.9537 100.608 79.2928 98.3369 78.282L89.4468 74.3343C87.1729 73.3235 84.5135 74.3512 83.5031 76.6235L79.5576 85.5156C78.5473 87.7907 79.5745 90.4544 81.8456 91.4625Z" fill="#FEC55E" fill-opacity="0.2"/>
<path d="M250.181 95.3076H254.723C255.967 95.3076 256.975 94.2996 256.975 93.055V88.5104C256.975 87.2658 255.967 86.2578 254.723 86.2578H250.181C248.937 86.2578 247.93 87.2658 247.93 88.5104V93.055C247.93 94.2996 248.937 95.3076 250.181 95.3076Z" fill="#042041" fill-opacity="0.2"/>
<path d="M2.25141 56.1689H6.79354C8.03743 56.1689 9.04492 55.1609 9.04492 53.9163V49.3717C9.04492 48.1272 8.03743 47.1191 6.79354 47.1191H2.25141C1.00752 47.1191 3.24249e-05 48.1272 3.24249e-05 49.3717V53.9163C3.24249e-05 55.1609 1.00752 56.1689 2.25141 56.1689Z" fill="#042041" fill-opacity="0.2"/>
<path d="M77.689 12.057C78.4404 12.057 79.1468 11.7642 79.6787 11.232L82.8897 8.01923C83.9873 6.92109 83.9873 5.13591 82.8897 4.03777L79.6787 0.82501C79.1468 0.292835 78.4404 0 77.689 0C76.9376 0 76.2313 0.292835 75.6994 0.82501L72.4884 4.03777C71.3908 5.13591 71.3908 6.92109 72.4884 8.01923L75.6994 11.232C76.2313 11.7642 76.9376 12.057 77.689 12.057ZM77.689 1.1263C78.1393 1.1263 78.5643 1.30087 78.8823 1.62187L82.0933 4.83463C82.7518 5.49351 82.7518 6.56631 82.0933 7.22519L78.8823 10.4379C78.5643 10.7561 78.1393 10.9335 77.689 10.9335C77.2388 10.9335 76.8138 10.7589 76.4958 10.4379L73.2848 7.22519C72.6263 6.56631 72.6263 5.49351 73.2848 4.83463L76.4958 1.62187C76.8138 1.30369 77.2388 1.1263 77.689 1.1263Z" fill="#1B53D3" fill-opacity="0.5"/>
<path d="M151.709 67.5257C152.46 67.5257 153.166 67.2329 153.698 66.7007L156.909 63.488C158.007 62.3898 158.007 60.6047 156.909 59.5065L153.698 56.2938C153.166 55.7616 152.46 55.4688 151.709 55.4688C150.957 55.4688 150.251 55.7616 149.719 56.2938L146.508 59.5065C145.41 60.6047 145.41 62.3898 146.508 63.488L149.719 66.7007C150.251 67.2329 150.957 67.5257 151.709 67.5257ZM151.709 56.595C152.159 56.595 152.584 56.7696 152.902 57.0906L156.113 60.3034C156.771 60.9623 156.771 62.035 156.113 62.6939L152.902 65.9067C152.584 66.2249 152.159 66.4023 151.709 66.4023C151.258 66.4023 150.833 66.2277 150.515 65.9067L147.304 62.6939C146.646 62.035 146.646 60.9623 147.304 60.3034L150.515 57.0906C150.833 56.7724 151.258 56.595 151.709 56.595Z" fill="#1B53D3" fill-opacity="0.5"/>
<path d="M187.021 41.4453H225.857C226.167 41.4453 226.42 41.6987 226.42 42.0085V43.1348C226.42 43.4445 226.167 43.6979 225.857 43.6979H187.021C186.711 43.6979 186.458 43.4445 186.458 43.1348V42.0085C186.458 41.6987 186.711 41.4453 187.021 41.4453Z" fill="#FEC55E" fill-opacity="0.2"/>
</svg>
