<svg width="60" height="60" viewBox="0 0 60 60" fill="none" xmlns="http://www.w3.org/2000/svg">
<mask id="mask0_114_940" style="mask-type:alpha" maskUnits="userSpaceOnUse" x="0" y="0" width="60" height="60">
<circle cx="30" cy="30" r="30" fill="#D9D9D9"/>
</mask>
<g mask="url(#mask0_114_940)">
<rect width="60" height="60" fill="#E7E7E7"/>
<path d="M29.5031 38.483C36.7889 38.483 42.7446 32.5273 42.7446 25.2415C42.7446 17.9558 36.7889 12 29.5031 12C22.2174 12 16.2617 17.9558 16.2617 25.2415C16.2617 32.5273 22.2175 38.483 29.5031 38.483Z" fill="#C7C7C7"/>
<path d="M52.2294 49.0646C51.8824 48.1972 51.4199 47.3877 50.8995 46.636C48.2396 42.7039 44.1342 40.1019 39.5084 39.4659C38.9302 39.4081 38.2941 39.5236 37.8315 39.8706C35.4029 41.6631 32.5118 42.5883 29.505 42.5883C26.4981 42.5883 23.607 41.6631 21.1784 39.8706C20.7158 39.5236 20.0797 39.3502 19.5015 39.4659C14.8757 40.1019 10.7124 42.7039 8.11041 46.636C7.59 47.3877 7.12737 48.2551 6.78051 49.0646C6.60708 49.4115 6.66485 49.8163 6.83829 50.1632C7.30092 50.9727 7.87909 51.7823 8.3995 52.4762C9.20899 53.5749 10.0764 54.5578 11.0594 55.4829C11.8689 56.2924 12.794 57.0442 13.7193 57.7959C18.2873 61.2075 23.7805 62.9999 29.4472 62.9999C35.1138 62.9999 40.6071 61.2074 45.1751 57.7959C46.1002 57.102 47.0254 56.2924 47.835 55.4829C48.7601 54.5578 49.6853 53.5748 50.4949 52.4762C51.073 51.7245 51.5936 50.9727 52.0561 50.1632C52.345 49.8163 52.4028 49.4114 52.2294 49.0646Z" fill="#C7C7C7"/>
</g>
</svg>
