<svg width="25" height="25" viewBox="0 0 25 25" fill="none" xmlns="http://www.w3.org/2000/svg">
<g clip-path="url(#clip0_683_6245)">
<path d="M24.9449 13.6689H0.0566406V13.6693H24.9449V13.6689Z" fill="#C42126"/>
<path d="M23.6478 6.84521H1.35303V6.84558H23.6478V6.84521Z" fill="#C42126"/>
<path d="M24.5333 9.11963H0.466309V9.12H24.5333V9.11963Z" fill="#C42126"/>
<path d="M5.37286 22.7664H19.6281L19.6288 22.7656H5.37207L5.37286 22.7664Z" fill="#C42126"/>
<path d="M12.4999 0C12.2544 0 12.0108 0.0088668 11.769 0.0226948H13.231C12.989 0.0088668 12.7454 0 12.4999 0Z" fill="#C42126"/>
<path d="M24.9479 11.3945H0.0517578V11.3949H24.9479V11.3945Z" fill="#C42126"/>
<path d="M16.1944 4.57128H22.1632C21.4543 3.70819 20.6303 2.94416 19.7174 2.29736H15.2354C15.6062 2.94986 15.9252 3.7198 16.1944 4.57128Z" fill="#E7E7E7"/>
<path d="M15.2355 2.29695H19.7176C17.8647 0.983876 15.6401 0.161585 13.2311 0.0224609H12.8462C13.9801 0.165174 14.5009 1.00435 15.2355 2.29695Z" fill="#DC3027"/>
<path d="M24.5338 9.11962C24.3115 8.32699 24.0135 7.5665 23.6472 6.8457H16.7803C16.9194 7.57579 17.0292 8.33839 17.1105 9.11962H24.5338Z" fill="#E7E7E7"/>
<path d="M16.3943 6.84557H23.6472C23.2339 6.03262 22.7374 5.26976 22.1634 4.57129H15.8276C16.051 5.27847 16.2407 6.04133 16.3943 6.84557Z" fill="#DC3027"/>
<path d="M17.3735 13.6686H24.9436C24.9796 13.284 24.9999 12.8941 24.9999 12.5002C24.9999 12.1274 24.9804 11.7593 24.9484 11.3945H17.3753C17.4 12.1508 17.3996 12.9127 17.3735 13.6686Z" fill="#E7E7E7"/>
<path d="M24.9484 11.394C24.8799 10.613 24.7392 9.85316 24.5337 9.12012H16.7915C16.8692 9.86477 16.9206 10.6266 16.9457 11.394H24.9484Z" fill="#DC3027"/>
<path d="M16.6499 18.2172H23.6147C23.9861 17.4971 24.2889 16.7361 24.5159 15.9429H16.9866C16.9037 16.7253 16.7912 17.4877 16.6499 18.2172Z" fill="#E7E7E7"/>
<path d="M24.5162 15.9429C24.7259 15.21 24.8716 14.4502 24.944 13.6689H17.1379C17.1112 14.4369 17.0583 15.1986 16.979 15.9429H24.5162Z" fill="#DC3027"/>
<path d="M19.6286 22.7656C20.5547 22.1214 21.3903 21.3566 22.1106 20.4917H16.2458C15.9716 21.3467 15.6461 22.1154 15.2686 22.7656H19.6286Z" fill="#E7E7E7"/>
<path d="M16.0249 20.4916H22.1104C22.691 19.7939 23.1951 19.031 23.6145 18.2173H16.5987C16.443 19.0221 16.2513 19.7853 16.0249 20.4916Z" fill="#DC3027"/>
<path d="M12.047 24.991C12.0217 24.9902 11.9965 24.9891 11.9712 24.9883C11.9965 24.989 12.0218 24.9902 12.047 24.991Z" fill="#DC3027"/>
<path d="M12.5 25C15.1501 25 17.6055 24.1728 19.6278 22.7666H15.1039C14.301 24.1499 13.7712 25 12.5 25Z" fill="#DC3027"/>
<path d="M12.4998 25.0001C12.348 25.0001 12.1972 24.9965 12.0469 24.9912C12.1988 24.9963 12.3498 25.0001 12.4998 25.0001Z" fill="#C42126"/>
<path d="M15.6495 2.29736H5.28294C4.36992 2.94416 3.5461 3.70813 2.83691 4.57128H16.6084C16.3392 3.7198 16.0204 2.94986 15.6495 2.29736Z" fill="#F3F4F5"/>
<path d="M5.28271 2.29695H15.6493C14.9145 1.00435 13.98 0.165174 12.8461 0.0224609H11.769C9.35997 0.161585 7.1354 0.983876 5.28271 2.29695Z" fill="#E73625"/>
<path d="M0.466309 9.11962H17.5048C17.4235 8.33823 17.3138 7.57579 17.1746 6.8457H1.35288C0.986547 7.56655 0.688559 8.32699 0.466309 9.11962Z" fill="#F3F4F5"/>
<path d="M2.83663 4.57129C2.26309 5.26976 1.76613 6.03257 1.35303 6.84557H17.1746C17.0212 6.04149 16.8316 5.27868 16.6081 4.57129H2.83663Z" fill="#E73625"/>
<path d="M0 12.5C0 12.894 0.0205309 13.2838 0.056262 13.6684H17.6574C17.6835 12.9125 17.6839 12.1508 17.6592 11.3945H0.0515119C0.0195281 11.7591 0 12.1272 0 12.5Z" fill="#F3F4F5"/>
<path d="M0.0517578 11.394H17.6593C17.6342 10.6265 17.5827 9.86482 17.5051 9.12012H0.466228C0.260761 9.85332 0.120053 10.613 0.0517578 11.394Z" fill="#E73625"/>
<path d="M17.4988 15.9429H0.484375C0.711376 16.7363 1.01432 17.4971 1.38557 18.2172H17.1621C17.3034 17.4879 17.4157 16.7254 17.4988 15.9429Z" fill="#F3F4F5"/>
<path d="M0.484028 15.9429H17.4985C17.5776 15.1986 17.6307 14.4367 17.6573 13.6689H0.0561523C0.128565 14.4503 0.274445 15.21 0.484028 15.9429Z" fill="#E73625"/>
<path d="M5.37156 22.7656H15.6111C15.9887 22.1153 16.3143 21.3467 16.5883 20.4917H2.88965C3.60986 21.3566 4.4453 22.1214 5.37156 22.7656Z" fill="#F3F4F5"/>
<path d="M1.38574 18.2173C1.80517 19.031 2.30921 19.7939 2.88988 20.4916H16.5885C16.8147 19.7854 17.0064 19.0222 17.1621 18.2173H1.38574Z" fill="#E73625"/>
<path d="M11.9712 24.9884C11.9965 24.9892 12.0217 24.9904 12.047 24.9912C12.1974 24.9965 12.3482 25 12.4999 25C13.7712 25 14.8078 24.15 15.6109 22.7666H5.37256C7.25923 24.0788 9.52386 24.8864 11.9712 24.9884Z" fill="#E73625"/>
<path d="M12.2415 0.00634766C5.83596 0.136658 0.615103 5.08249 0.0532227 11.3736H12.2418V0.00634766H12.2415Z" fill="#283991"/>
<path d="M2.50131 7.08203L2.69173 7.6684H3.30871L2.80959 8.03099L3.00022 8.61778L2.50131 8.25498L2.00255 8.61778L2.19282 8.03099L1.69385 7.6684H2.31083L2.50131 7.08203Z" fill="#EFEFEF"/>
<path d="M2.50131 9.15381L2.69173 9.74055H3.30871L2.80959 10.1031L3.00022 10.6899L2.50131 10.3271L2.00255 10.6899L2.19282 10.1031L1.69385 9.74055H2.31083L2.50131 9.15381Z" fill="#EFEFEF"/>
<path d="M4.5733 3.97412L4.76377 4.5607H5.38054L4.88158 4.9235L5.07205 5.50987L4.5733 5.14749L4.07433 5.50987L4.2648 4.9235L3.76562 4.5607H4.38261L4.5733 3.97412Z" fill="#EFEFEF"/>
<path d="M4.5733 6.0459L4.76377 6.63248H5.38054L4.88158 6.99486L5.07205 7.58165L4.5733 7.21927L4.07433 7.58165L4.2648 6.99486L3.76562 6.63248H4.38261L4.5733 6.0459Z" fill="#EFEFEF"/>
<path d="M4.5733 8.11816L4.76377 8.70496H5.38054L4.88158 9.06712L5.07205 9.65392L4.5733 9.29117L4.07433 9.65392L4.2648 9.06712L3.76562 8.70496H4.38261L4.5733 8.11816Z" fill="#EFEFEF"/>
<path d="M0.928312 9.65359L0.737675 9.0668L1.23664 8.70442H0.620032L0.606204 8.66162C0.538489 8.87105 0.477319 9.08301 0.420898 9.29734L0.429607 9.29085L0.928312 9.65359Z" fill="#EFEFEF"/>
<path d="M2.00286 6.54616L2.50161 6.18342L3.00058 6.54616L2.80995 5.95937L3.30892 5.59662H2.69193L2.50146 5.01025L2.31098 5.59662H2.08361C2.04139 5.66059 2.00053 5.72493 1.95947 5.78985L2.19318 5.95937L2.00286 6.54616Z" fill="#EFEFEF"/>
<path d="M4.57312 3.07551L5.07188 3.43789L4.8814 2.85152L5.38016 2.48877H5.0239C4.72132 2.71498 4.42941 2.95438 4.14894 3.20698L4.07373 3.43789L4.57312 3.07551Z" fill="#EFEFEF"/>
<path d="M6.14648 2.40215L6.64545 2.0394L7.14421 2.40215L6.95373 1.81536L7.45249 1.45298H6.83572L6.80986 1.37402C6.60085 1.48079 6.39402 1.59189 6.19187 1.71012L6.33675 1.81531L6.14648 2.40215Z" fill="#EFEFEF"/>
<path d="M6.64551 2.93799L6.83599 3.5242H7.45276L6.95379 3.88695L7.14427 4.47374L6.64551 4.11094L6.14654 4.47374L6.33702 3.88695L5.83789 3.5242H6.45482L6.64551 2.93799Z" fill="#EFEFEF"/>
<path d="M6.64551 5.01025L6.83599 5.59647H7.45276L6.95379 5.95921L7.14427 6.546L6.64551 6.18321L6.14654 6.546L6.33702 5.95921L5.83789 5.59647H6.45482L6.64551 5.01025Z" fill="#EFEFEF"/>
<path d="M6.64551 7.08203L6.83599 7.6684H7.45276L6.95379 8.03099L7.14427 8.61778L6.64551 8.25498L6.14654 8.61778L6.33702 8.03099L5.83789 7.6684H6.45482L6.64551 7.08203Z" fill="#EFEFEF"/>
<path d="M6.64551 9.15381L6.83599 9.74055H7.45276L6.95379 10.1031L7.14427 10.6899L6.64551 10.3271L6.14654 10.6899L6.33702 10.1031L5.83789 9.74055H6.45482L6.64551 9.15381Z" fill="#EFEFEF"/>
<path d="M8.71729 1.90186L8.90776 2.48844H9.52453L9.02578 2.85124L9.21604 3.43761L8.71729 3.07523L8.21816 3.43761L8.4088 2.85124L7.90967 2.48844H8.5266L8.71729 1.90186Z" fill="#EFEFEF"/>
<path d="M8.71729 3.97412L8.90776 4.5607H9.52453L9.02578 4.9235L9.21604 5.50987L8.71729 5.14749L8.21816 5.50987L8.4088 4.9235L7.90967 4.5607H8.5266L8.71729 3.97412Z" fill="#EFEFEF"/>
<path d="M8.71729 6.0459L8.90776 6.63248H9.52453L9.02578 6.99486L9.21604 7.58165L8.71729 7.21927L8.21816 7.58165L8.4088 6.99486L7.90967 6.63248H8.5266L8.71729 6.0459Z" fill="#EFEFEF"/>
<path d="M8.71729 8.11816L8.90776 8.70496H9.52453L9.02578 9.06712L9.21604 9.65392L8.71729 9.29117L8.21816 9.65392L8.4088 9.06712L7.90967 8.70496H8.5266L8.71729 8.11816Z" fill="#EFEFEF"/>
<path d="M10.7891 0.866211L10.9795 1.45279H11.5963L11.0973 1.81517L11.2878 2.40196L10.7891 2.03916L10.2899 2.40196L10.4806 1.81517L9.98145 1.45279H10.5982L10.7891 0.866211Z" fill="#EFEFEF"/>
<path d="M10.7891 2.93799L10.9795 3.5242H11.5963L11.0973 3.88695L11.2878 4.47374L10.7891 4.11094L10.2899 4.47374L10.4806 3.88695L9.98145 3.5242H10.5982L10.7891 2.93799Z" fill="#EFEFEF"/>
<path d="M10.7891 5.01025L10.9795 5.59647H11.5963L11.0973 5.95921L11.2878 6.546L10.7891 6.18321L10.2899 6.546L10.4806 5.95921L9.98145 5.59647H10.5982L10.7891 5.01025Z" fill="#EFEFEF"/>
<path d="M10.7891 7.08203L10.9795 7.6684H11.5963L11.0973 8.03099L11.2878 8.61778L10.7891 8.25498L10.2899 8.61778L10.4806 8.03099L9.98145 7.6684H10.5982L10.7891 7.08203Z" fill="#EFEFEF"/>
<path d="M10.7891 9.15381L10.9795 9.74055H11.5963L11.0973 10.1031L11.2878 10.6899L10.7891 10.3271L10.2899 10.6899L10.4806 10.1031L9.98145 9.74055H10.5982L10.7891 9.15381Z" fill="#EFEFEF"/>
</g>
<defs>
<clipPath id="clip0_683_6245">
<rect width="25" height="25" fill="white"/>
</clipPath>
</defs>
</svg>
