<svg width="21" height="20" viewBox="0 0 21 20" fill="none" xmlns="http://www.w3.org/2000/svg">
<path d="M8.40913 1.72519C9.01506 -0.102192 11.5999 -0.10219 12.2059 1.7252L13.2898 4.99421C13.5611 5.81242 14.3261 6.36475 15.1882 6.36475H18.6082C20.5554 6.36475 21.3544 8.86465 19.7681 9.99401L17.0716 11.9138C16.3563 12.423 16.0568 13.3392 16.3332 14.1726L17.3796 17.3283C17.9882 19.1638 15.8966 20.7086 14.3212 19.5871L11.4674 17.5553C10.7731 17.061 9.84185 17.061 9.14754 17.5553L6.29375 19.5871C4.71843 20.7086 2.62682 19.1638 3.23543 17.3283L4.28183 14.1726C4.55816 13.3392 4.25866 12.423 3.54342 11.9138L0.846861 9.99401C-0.739443 8.86465 0.0595508 6.36475 2.00681 6.36475H5.42683C6.28885 6.36475 7.05389 5.81242 7.32519 4.99421L8.40913 1.72519Z" fill="#FFB04E"/>
</svg>
