<svg width="21" height="20" viewBox="0 0 21 20" fill="none" xmlns="http://www.w3.org/2000/svg">
<path d="M11.5583 2.0223L12.5677 5.13577C12.9019 6.1666 13.8622 6.86475 14.9458 6.86475H18.2216C19.6739 6.86475 20.2786 8.7225 19.1046 9.57736L16.4469 11.5125C15.5726 12.1491 15.2068 13.2757 15.5403 14.3045L16.5537 17.4302C17.0019 18.8127 15.4188 19.9609 14.2439 19.1054L11.603 17.1825C10.7258 16.5438 9.53693 16.5438 8.65983 17.1825L6.01891 19.1054C4.84398 19.9609 3.26085 18.8127 3.70909 17.4302L4.72246 14.3045C5.05601 13.2757 4.6902 12.1491 3.81589 11.5125L1.1582 9.57736C-0.0158415 8.7225 0.588845 6.86475 2.04114 6.86475H5.31695C6.40061 6.86475 7.36088 6.1666 7.69509 5.13577L8.70451 2.0223C9.15295 0.639119 11.1098 0.639119 11.5583 2.0223Z" stroke="#FFB04E"/>
</svg>
