<svg width="433" height="66" viewBox="0 0 433 66" fill="none" xmlns="http://www.w3.org/2000/svg">
<path d="M11.7694 38.412C12.3966 38.7703 13.0984 39.0791 13.8575 39.3309C14.1043 38.804 14.4716 38.2997 14.949 37.8324C15.6846 37.3517 16.9897 36.5742 17.5118 36.7014C19.8846 37.3093 21.4744 36.1076 23.4676 35.9521L21.688 35.5563C21.6776 35.4763 21.6776 35.3959 21.688 35.3159H25.4846L24.6304 36.0652C25.7931 35.9804 27.0032 36.0652 27.0032 35.8532C27.9286 34.4394 29.2574 35.2594 30.1117 35.5421C30.8947 35.1746 31.393 34.7787 31.9862 34.7222C33.6235 34.5667 35.332 34.5949 36.993 34.4677C37.6205 34.3489 38.2129 34.1725 38.7489 33.9446C38.1588 33.5614 37.3676 33.3093 36.505 33.2296C35.6425 33.15 34.7602 33.2476 34.0031 33.5064C33.3387 33.7325 32.3422 34.1001 31.8201 33.9446C29.4473 33.266 27.4778 34.1708 25.3422 34.3546C24.401 34.5013 23.4123 34.5013 22.471 34.3546C19.6948 33.5912 16.9185 34.4253 14.166 34.1567C13.6781 34.1149 13.1827 34.1149 12.6949 34.1567C9.98981 34.3546 7.26096 34.5808 4.55588 34.7646C4.04224 34.7402 3.53796 34.6686 3.06097 34.5525V33.0257C4.69824 32.3754 6.81009 32.545 8.04401 32.0785C10.0372 31.315 11.6271 32.6016 13.5016 31.8947C13.5016 30.6082 13.2881 29.251 13.1931 27.9362C15.0914 27.3707 15.827 28.0352 16.349 28.8127C18.7219 28.5159 19.7422 28.8127 21.0948 30.2265L23.6337 30.0992C22.8111 29.3076 22.1467 28.6855 21.6405 28.2331C22.4841 27.9835 23.2797 27.6802 24.0134 27.3283C23.5626 26.6073 24.5829 26.6073 25.0575 26.3104C26.5524 25.4198 28.4507 25.646 30.2303 25.5612C30.7761 26.6073 30.7761 26.6073 32.7693 26.9749C32.6269 25.8863 35.1421 25.4339 34.0743 24.1474C37.0167 25.0522 39.4607 24.7553 40.1488 23.3416C40.2432 23.0309 40.5093 22.7479 40.905 22.5378C41.3007 22.3277 41.803 22.2025 42.3319 22.1823C44.8234 21.8289 47.3149 21.4896 49.7827 21.0938C52.2505 20.6979 54.9081 20.2172 57.4471 19.7507C58.847 19.4962 60.2233 19.1711 61.5996 18.8742C59.9386 18.5632 58.3725 18.2663 56.8538 18.8742C56.8538 18.0825 57.7793 17.9836 58.7996 17.8705C63.5453 17.3332 68.2911 16.7394 72.8944 16.2164C73.6902 16.1956 74.4872 16.2336 75.2673 16.3295C73.5826 17.4039 71.6368 16.9656 70.0707 17.3191C68.5046 17.6725 66.7012 17.8846 65.0165 18.1532L65.1589 18.5208C69.9046 17.8704 74.8402 17.5877 79.5622 16.8243V16.4567L76.9283 16.3153V15.9478C78.613 15.8206 80.3452 15.7498 82.0062 15.5519C88.1994 14.8168 94.3689 14.0251 100.562 13.2758C102.294 13.0638 104.05 12.8375 105.806 12.682L122.131 11.1835C124.109 10.8615 126.158 10.7233 128.206 10.7735C129.851 10.8834 131.516 10.7871 133.094 10.4908C136.018 10.0279 138.98 9.6551 141.968 9.3739C148.589 8.83668 155.233 8.42669 161.853 7.96016C166.504 7.62087 171.155 7.26275 175.806 6.88575C177.063 6.78679 178.439 6.30612 179.531 6.48991C181.904 6.91403 184.277 6.23543 186.65 6.61714C187.005 6.61714 187.622 6.61714 187.765 6.61714C188.358 6.07992 188.904 6.22129 189.71 6.43335C190.365 6.57321 191.066 6.61795 191.755 6.56386C192.444 6.50976 193.102 6.35839 193.673 6.12232C194.48 5.74151 195.447 5.50046 196.468 5.42564C197.489 5.35082 198.526 5.44514 199.463 5.69822C199.771 5.81132 200.341 5.69818 200.816 5.61336C201.29 5.52853 202.453 5.30234 203.188 5.44372C205.281 5.79763 207.524 5.64523 209.429 5.01961C210.687 4.69445 211.802 4.39756 213.107 5.14684C213.392 5.33063 214.222 5.25994 214.768 5.14684C215.314 5.03375 215.836 4.80756 216.382 4.80756C218.854 4.81035 221.292 4.46646 223.5 3.80378C224 3.56753 224.618 3.43896 225.256 3.43896C225.894 3.43896 226.513 3.56753 227.012 3.80378C227.577 3.98445 228.209 4.07899 228.851 4.07899C229.493 4.07899 230.124 3.98445 230.69 3.80378C233.751 2.58797 237.476 3.32311 240.585 2.39004C240.917 2.27695 241.486 2.47489 241.961 2.50317C242.537 2.53131 243.117 2.53131 243.693 2.50317C247.015 2.33352 250.337 2.19213 253.635 1.95179C254.964 1.85283 256.008 1.95181 256.578 2.41835C258.016 2.1992 259.473 2.02925 260.944 1.90938C263.317 1.76801 265.879 0.990453 268.347 1.90938C268.958 2.1449 269.697 2.23101 270.412 2.14973C271.771 1.86627 273.095 1.52613 274.374 1.13184L275.94 1.95179C276.083 1.42871 276.201 1.03286 276.296 0.665287C277.673 0.778386 278.812 0.834937 279.951 0.976311C280.912 1.05523 281.854 1.20728 282.751 1.42872C285.123 2.07903 286.001 1.9094 287.117 0.255336C287.437 0.552416 287.863 0.80404 288.365 0.99249C288.866 1.18094 289.431 1.30162 290.019 1.3461C290.607 1.39057 291.204 1.35773 291.769 1.24989C292.333 1.14204 292.851 0.961788 293.286 0.721849L298.317 2.06491C298.744 1.55597 299.052 1.17424 299.384 0.806669L300.666 1.96594C301.828 1.64078 303.039 1.00461 303.679 1.17425C304.467 1.37108 305.333 1.42906 306.174 1.34135C307.015 1.25364 307.796 1.02391 308.425 0.679439C311.842 1.01873 314.855 2.47491 317.703 0.439128C317.922 0.318419 318.211 0.252605 318.51 0.255336C321.262 0.156374 324.015 -0.0133068 326.767 0.000830556C329.52 0.0149679 331.893 0.269468 334.432 0.382566C336.88 0.605084 339.361 0.680867 341.835 0.608769C344.208 0.424984 346.581 1.76804 349.072 0.750151C349.154 0.720153 349.249 0.704246 349.345 0.704246C349.441 0.704246 349.536 0.720153 349.618 0.750151C351.208 1.85286 352.75 1.06113 354.364 0.665287L355.692 1.9942C357.092 1.32975 358.848 2.54558 360.581 1.48528C361.767 0.764273 364.258 1.71148 365.777 0.736C365.611 1.03288 365.445 1.32974 365.255 1.72559H369.313L371.282 0.467387L374.13 0.89149C373.869 1.2732 373.679 1.57008 373.394 1.95179H376.218C376.621 1.51353 377.048 1.08941 377.499 0.538056C377.925 0.606425 378.333 0.711185 378.709 0.84908C380.133 1.59836 381.462 2.00837 383.313 1.146C383.782 0.993455 384.302 0.905378 384.836 0.888254C385.37 0.871131 385.903 0.925385 386.397 1.04702C387.775 1.29134 389.208 1.4058 390.645 1.38631C393.516 1.55595 397.051 0.834935 398.76 3.13932C399.708 2.59104 400.97 2.27743 402.291 2.26169C403.612 2.24595 404.894 2.52925 405.878 3.0545C406.211 3.21001 406.994 3.33728 407.207 3.22419C409.177 2.23457 410.956 3.12519 412.665 3.49276C413.047 3.64334 413.37 3.84132 413.611 4.07313C413.853 4.30493 414.008 4.56509 414.065 4.83582C414.024 5.43652 413.815 6.02895 413.448 6.58884L403.956 5.1751C403.956 5.86783 403.956 6.58886 403.956 7.18262L407.634 7.46539C408.299 8.72361 408.56 8.97805 410.79 8.70944C414.184 8.29946 416.39 9.69907 419.095 10.3211C419.285 10.3211 419.356 10.618 419.57 10.8725C419.024 10.9997 418.075 11.1976 418.075 11.2118C418.739 12.4135 416.794 12.3852 415.821 12.781C415.939 13.092 415.821 13.3748 416.106 13.5303C418.224 15.0723 419.594 16.93 420.068 18.9025C420.161 19.3952 420.419 19.8718 420.826 20.3041C421.234 20.7363 421.783 21.1155 422.441 21.4189C425.194 22.6348 425.241 24.5857 425.905 26.5225L423.936 25.9429L423.533 26.2115C424.031 26.5932 424.933 26.9608 424.98 27.3707C425.217 28.8693 427.211 29.152 428.943 29.6468C429.254 29.7104 429.539 29.8118 429.781 29.9445C430.022 30.0773 430.215 30.2384 430.347 30.4179C430.478 30.5973 430.546 30.7911 430.545 30.9869C430.545 31.1827 430.476 31.3763 430.343 31.5554L426.214 31.2868L428.444 32.4885C427.614 33.6619 425.644 33.3791 424.031 33.9022L427.97 38.7089L426.38 39.1895C427.187 41.2253 427.97 43.247 428.753 45.2686C428.966 45.2686 429.228 45.2686 429.275 45.2686C430.177 46.2017 430.248 47.4175 432.549 48.0113L430.177 48.4637C430.177 48.6757 430.343 48.8454 430.438 49.0009C431.007 49.9198 431.624 50.8246 432.099 51.7435C432.383 52.2807 432.336 52.8745 432.668 53.3835C433.261 54.3448 433.143 54.9244 431.624 55.2072C430.213 55.423 428.762 55.5323 427.305 55.5324C426.083 55.5234 424.863 55.4715 423.651 55.3768L425.502 59.4201C425.147 59.8929 424.581 60.2985 423.865 60.5927C423.15 60.8869 422.312 61.0584 421.444 61.0883C419.712 61.2297 417.956 61.371 416.224 61.5548C415.755 61.6078 415.314 61.7293 414.943 61.9083C412.784 62.9827 412.38 62.9827 410.363 61.781L404.289 62.7V63.011L406.116 63.4775L402.319 64.2127H402.201L392.424 63.5765C392.614 63.2372 392.78 62.9262 392.97 62.6151L392.567 62.4172L388.153 64.0713L389.245 64.4389C387.912 64.5278 386.567 64.5278 385.235 64.4389C384.214 64.2834 383.431 64.0572 382.577 64.6227C382.387 64.7499 381.865 64.7357 381.509 64.7499C377.784 64.8771 374.058 65.0044 370.333 65.1033C364.306 65.273 358.279 65.4238 352.252 65.5557C347.016 65.6688 341.772 65.7489 336.52 65.796C335.452 65.796 334.147 65.174 333.364 65.4143C331.252 66.1495 329.093 65.7253 326.981 65.796C323.421 65.9233 319.862 65.9374 316.279 65.9657C313.12 65.8209 309.947 65.8209 306.788 65.9657C306.266 66.0401 305.716 65.9921 305.252 65.8316C304.788 65.671 304.446 65.4102 304.296 65.1033H299.55L298.696 65.9374H279.903C277.72 65.9374 277.72 65.9374 276.273 64.8064C276.107 64.7014 275.924 64.6067 275.727 64.5237L278.218 63.4634H273.473C273.781 63.8734 273.995 64.1844 274.303 64.5802L271.812 65.1316L273.544 65.9657L259.093 65.6264V65.4143L262.51 65.2871C262.961 63.8027 260.754 64.8913 260.137 64.2127C260.137 64.0289 259.924 63.6613 259.758 63.1948H254.703C254.419 63.8734 254.181 64.4247 253.944 64.9619L255.534 65.3012C255.534 65.4143 255.534 65.5416 255.534 65.6547L231.212 65.3154C231.212 64.4954 231.093 63.9016 231.022 63.223C230.011 62.8989 228.877 62.7363 227.729 62.7512C226.581 62.766 225.459 62.9579 224.473 63.3079C226.965 63.3079 226.846 64.3682 227.605 65.1881H217.165C216.785 65.1881 216.12 65.1881 216.097 65.0043C215.622 63.7179 213.487 64.1844 212.466 63.5906C211.114 64.5661 212.917 64.5237 213.321 64.8771H199.226L199.938 64.2127C199.487 63.7603 199.036 63.3786 198.656 62.9686C198.277 62.5586 196.9 62.4031 196.829 62.8696C196.829 63.5906 196.141 63.5058 195.405 63.6896C194.67 63.8734 194.504 64.2975 193.982 64.6792L190.802 64.4954L193.46 63.9016L190.541 62.5586C189.995 63.0958 189.853 63.6472 188.5 63.5765C186.128 63.4351 183.755 63.5765 181.382 63.4916C180.053 63.4916 178.534 63.732 177.965 62.5869C177.965 62.389 176.992 62.2476 176.47 62.2476C175.284 62.2476 174.097 62.3183 172.863 62.3607C172.389 62.7989 171.867 63.2796 171.226 63.9016C169.541 62.6434 168.165 62.0638 166.243 62.4879L165.389 63.5341C164.393 63.3928 163.375 63.3123 162.351 63.2937C159.978 63.421 157.795 63.6613 155.517 63.8168C154.521 63.8875 153.548 63.8875 152.551 63.9299V63.6048L155.85 63.4492C153.809 63.0392 151.602 63.633 149.894 62.6575C150.843 61.9224 151.816 62.3607 152.718 62.3748H155.707C155.707 62.2335 155.707 62.0921 155.707 61.9507C153.073 61.9507 150.44 61.9507 147.853 61.7528C145.267 61.5549 142.467 61.9083 140.45 60.4945C140.118 60.2683 139.097 60.3814 138.409 60.3532L138.03 60.7914L139.572 61.2014C136.629 61.2014 134.019 61.2014 131.433 61.2014C127.992 61.1307 124.552 60.9752 121.111 60.9187C117.67 60.8621 113.755 61.2014 110.742 59.5049C110.395 59.3875 110.001 59.3288 109.603 59.3353C104.311 59.0384 99.0197 58.7415 93.7282 58.4729C90.5723 58.3174 87.4164 58.2467 84.2367 58.1195C83.8055 58.0702 83.384 57.9944 82.9791 57.8933V57.5398H88.674C90.5485 57.5398 92.4231 57.5398 94.2976 57.5398C96.254 57.6598 98.226 57.6598 100.182 57.5398C102.009 57.3419 104.026 58.2609 105.925 57.2006C105.047 56.9744 103.979 56.8895 103.837 56.6209C103.362 55.7585 102.389 55.9847 101.464 56.013C97.3112 56.1685 93.3485 55.391 89.2672 55.2354C89.0062 55.2354 88.7926 55.0658 88.1994 54.8255L89.8842 52.8886L91.6638 53.8359C91.9723 53.6097 92.257 53.5107 92.3282 53.3552C92.4156 53.094 92.4711 52.8294 92.4942 52.5635C90.1214 51.7011 87.0129 52.7614 84.9485 51.0366C86.7282 50.6125 88.3654 50.2874 89.9078 49.8491C91.4502 49.4109 92.4942 50.8104 94.2739 50.5418C94.1078 50.2025 93.9417 49.9057 93.7282 49.4815C94.4763 49.4792 95.2008 49.3254 95.7829 49.0454C96.365 48.7654 96.7701 48.3758 96.9315 47.9406L98.2603 46.9227L96.2671 46.3713C96.1247 45.9189 96.0061 45.4807 95.8637 44.9576C94.2502 44.9576 92.779 44.9576 91.3315 44.9576C87.6062 45.1414 83.9045 45.3958 80.2028 45.5514C79.2062 45.5514 78.0672 45.6786 77.4503 44.8586C77.2842 44.6324 76.2639 44.5194 75.6232 44.5194C72.1826 44.5194 68.7181 44.7455 65.2775 44.7597C58.4673 44.7597 51.6573 44.7597 44.8709 44.7597C42.6167 44.7597 40.3861 44.7597 38.1556 44.6466C35.9252 44.5335 33.8371 44.5617 31.6778 44.4911C30.8947 44.4911 30.1117 44.3497 29.3049 44.3356C25.7456 44.3356 22.1863 44.2649 18.6507 44.2083C18.4846 44.2083 18.3423 44.0952 18.1762 44.0387C18.0101 43.9821 18.4372 43.6287 18.5321 43.4732L4.69824 40.8012C5.59995 39.5006 3.32199 39.3168 2.32538 38.6524C4.46097 38.2141 6.35925 37.7476 8.32874 37.4507C8.99966 37.3665 9.69839 37.4148 10.3192 37.5882C10.9399 37.7617 11.449 38.0508 11.7694 38.412ZM429.275 47.5165C429.014 46.852 428.8 46.2865 428.587 45.721L427.495 45.3817C427.638 46.2441 427.448 47.0782 429.251 47.5165H429.275ZM423.983 39.4299L424.553 39.133L423.675 38.61C423.675 38.61 423.272 38.7937 423.295 38.822C423.319 38.8503 423.722 39.232 423.96 39.4299H423.983ZM412.784 16.174C412.784 15.8629 412.784 15.5519 412.665 15.2409H412.19C412.19 15.5519 412.024 15.8771 411.977 16.1881L412.784 16.174ZM411.004 10.8018C411.039 10.5289 411.039 10.2547 411.004 9.98183C411.004 9.98183 410.719 9.89699 410.577 9.86871C410.434 10.1373 410.316 10.406 410.197 10.6887L411.004 10.8018ZM404.858 9.21841C404.858 9.99596 404.407 10.8159 406.543 11.0845C406.994 9.98183 406.021 9.57184 404.834 9.21841H404.858ZM408.94 13.092C408.342 12.7556 407.608 12.5175 406.809 12.401C406.01 12.2846 405.175 12.2937 404.384 12.4276C405.404 13.813 407.089 12.8517 408.916 13.092H408.94ZM399.638 62.9545H396.838C397.906 63.3503 398.546 63.6755 399.614 62.9545H399.638ZM389.197 5.72648C389.363 7.14021 390.977 7.36641 392.994 7.53606C395.96 7.77639 398.879 8.27121 401.821 8.61051C402.934 8.66178 404.053 8.66178 405.167 8.61051L403.743 7.52191C402.248 7.0271 403.411 5.98097 402.438 5.34479C398.048 4.3269 395.628 4.41171 394.441 5.76889C393.589 5.37451 392.666 5.03787 391.689 4.76515C390.375 4.61261 389.04 4.53684 387.702 4.53895C388.462 5.14685 389.055 5.4296 389.055 5.72648H389.197ZM315.377 64.1702C315.591 63.9723 315.876 63.8168 315.805 63.732C315.733 63.6472 315.401 63.4634 315.188 63.322C315.069 63.4634 314.855 63.6048 314.879 63.732C314.903 63.8592 315.14 63.9441 315.377 64.1702ZM303.513 64.7075L305.364 64.4813L305.222 64.0854L303.442 64.2833L303.513 64.7075ZM300.333 64.8489C298.625 63.6048 297.415 63.4351 295.588 64.2833C297.061 64.7255 298.716 64.907 300.357 64.8064L300.333 64.8489ZM295.588 64.2975L292.811 63.5482C293.666 64.6085 293.689 64.6226 295.588 64.2551V64.2975ZM289.49 64.2975V64.0006H286.428V64.1702L289.49 64.2975ZM285.693 64.2975C282.395 63.421 282.395 63.421 281.422 64.2975C282.869 64.3116 284.174 64.9902 285.693 64.2692V64.2975ZM266.71 7.05539H278.29C277.872 6.81833 277.476 6.56822 277.103 6.30612C276.89 6.12233 276.723 5.93853 276.415 5.62751C276.913 5.51441 277.269 5.35892 277.578 5.3872C278.574 5.48616 279.523 5.66993 280.71 5.85371L280.259 7.01298L284.815 6.53232C285.479 6.53232 286.239 6.24954 286.784 6.36264C287.351 6.54191 287.998 6.60977 288.633 6.55644C289.268 6.5031 289.859 6.33133 290.32 6.06576C290.723 5.86784 291.862 5.9951 292.503 6.17889C295.113 6.91403 297.557 7.49363 299.788 5.75474C300.144 5.47199 301.211 5.52856 302.042 5.41546C302.303 5.89613 302.516 6.27785 302.801 6.75852H321.974C321.452 6.09407 321.12 5.62753 320.645 4.99135C325.249 5.64167 329.757 4.49653 334.337 5.33064C334.337 5.82544 334.526 6.2637 334.621 6.74437C334.977 6.74437 335.31 6.8292 335.523 6.74437C336.349 6.53587 337.143 6.28517 337.896 5.99509C338.322 5.79101 338.864 5.69317 339.408 5.72217C339.952 5.75117 340.456 5.90473 340.815 6.15058C342.903 7.23916 342.903 7.23916 344.231 5.71233C344.492 6.10817 344.682 6.39093 344.896 6.68781L347.269 5.66992L347.672 5.86786L346.865 6.71607C353.533 7.0695 360.153 6.85745 366.797 6.89986C373.441 6.94227 379.777 6.82918 386.824 7.08365L384.997 4.9489C382.411 4.75098 380.085 4.52479 377.76 4.42583C376.502 4.42583 375.174 4.69446 373.963 4.58136C369.962 4.27747 365.911 4.27747 361.909 4.58136C360.438 4.56907 358.974 4.46001 357.543 4.25618C357.18 4.19213 356.806 4.15418 356.428 4.14311C350.045 4.83583 343.615 4.25621 337.232 4.36931C332.486 4.45413 327.74 4.36931 322.994 4.36931H314.998C310.845 4.36931 306.669 4.55309 302.54 4.36931C298.411 4.18552 293.761 4.63792 289.371 4.36931C286.998 4.25621 284.791 4.92064 282.371 4.21377C281.422 3.94516 279.808 4.60962 278.479 4.65203C274.256 4.82168 270.032 4.89238 265.808 5.01961C265.062 5.07994 264.324 5.17445 263.602 5.30233V5.78304H268.656C268.751 6.81507 266.069 5.61336 266.781 7.02709L266.71 7.05539ZM264.503 7.16847V6.88575L263.032 6.70196V7.16847H264.503ZM261.917 5.57095L260.042 5.44372L258.571 7.16847C261.395 7.35226 261.561 7.26744 261.988 5.54269L261.917 5.57095ZM255.581 5.33064C253.849 5.47201 253.849 5.47202 253.208 7.19678C253.875 7.05128 254.459 6.79598 254.891 6.46061C255.324 6.12525 255.588 5.72357 255.652 5.30233L255.581 5.33064ZM251.642 65.7678L252.568 65.273C252.354 65.1175 252.117 64.863 251.88 64.863C251.705 64.8677 251.536 64.9004 251.389 64.9576C251.243 65.0148 251.126 65.0945 251.049 65.1881C251.049 65.2588 251.429 65.4709 251.713 65.7395L251.642 65.7678ZM250.503 7.38053L251.785 7.04124C251.785 6.92814 251.571 6.74437 251.524 6.74437L250.266 6.98468L250.503 7.38053ZM243.812 65.3436L247.49 65.5133L247.608 65.2588L246.019 64.8771L247.585 63.8168C246.596 63.6628 245.588 63.554 244.571 63.4916C244.334 63.4916 244.049 63.9016 243.788 64.1278C245.568 64.4954 243.314 64.7782 243.883 65.273L243.812 65.3436ZM243.669 7.83293C244.307 7.66365 244.874 7.41266 245.33 7.0978C245.33 7.0978 244.856 6.63128 244.358 6.13648C243.646 6.67369 243.147 7.01297 242.72 7.39468C242.768 7.35226 243.551 7.80467 243.741 7.76226L243.669 7.83293ZM237.785 65.2871H238.473C238.473 64.9054 238.354 64.5096 238.283 64.1278H237.476C237.666 64.4247 237.761 64.8206 237.856 65.2164L237.785 65.2871ZM219.87 65.2871L220.083 65.0185C219.751 64.8771 219.442 64.6368 219.087 64.5944C218.731 64.5519 218.446 64.7781 217.758 65.0326L219.87 65.2871ZM214.222 7.21088C216.144 7.83293 217.592 9.07701 220.083 8.93564C222.575 8.79427 225.802 9.27495 228.388 8.32775C227.399 7.91102 226.322 7.57357 225.185 7.32401C224.192 7.27994 223.194 7.34705 222.243 7.52191C222.456 7.09779 222.598 6.67366 221.531 6.63125C220.463 6.58884 218.992 6.53232 217.71 6.53232C216.429 6.53232 215.527 6.61714 214.27 6.65955C214.341 6.65955 214.175 7.0271 214.293 7.08365L214.222 7.21088ZM209.477 64.764C207.148 64.2261 204.584 64.1664 202.192 64.5944C204.66 64.5095 206.866 65.4709 209.643 64.6368L209.477 64.764ZM195.548 9.84045L213.7 9.43046C213.083 8.58222 212.632 8.01671 212.11 7.2957C209.737 6.53229 206.985 7.29573 204.351 7.40883C203.243 7.57548 202.075 7.53599 201.005 7.2957C200.746 7.22397 200.464 7.18797 200.178 7.19039C199.892 7.19281 199.611 7.23359 199.356 7.30968C199.101 7.38578 198.877 7.49524 198.703 7.6299C198.528 7.76455 198.407 7.92092 198.348 8.08739C197.921 8.99218 197.043 8.48326 196.307 8.51154C196.022 8.78015 195.714 9.04875 195.453 9.34564C195.548 9.28909 195.666 9.43047 195.714 9.71322L195.548 9.84045ZM196.212 8.42672C195.666 7.63503 194.717 8.29948 193.839 8.42672H196.212ZM188.643 62.5869L186.673 62.8979C186.934 63.3927 187.527 63.3361 188.809 62.4738L188.643 62.5869ZM193.127 9.71322C190.698 9.3458 188.153 9.3458 185.724 9.71322C183.558 9.95871 181.342 10.0064 179.151 9.85456C178.642 9.77797 178.111 9.7713 177.597 9.83497C177.083 9.89865 176.601 10.031 176.185 10.2221C174.263 11.1835 173.362 11.0704 171.439 9.72733L168.023 11.3532C176.544 11.4958 185.055 10.9053 193.294 9.6001L193.127 9.71322ZM167.88 11.2824L164.463 11.4804C165.626 12.2579 165.839 12.2438 168.046 11.1694L167.88 11.2824ZM160.548 12.3145C159.789 11.5652 159.789 11.5652 158.033 12.3145H160.548ZM156.324 12.3145L152.836 12.1307L153.809 11.2542C153.619 11.1694 153.406 11.0421 153.382 11.0562C152.671 11.3879 152.019 11.7621 151.436 12.1731C150.511 12.4276 149.063 12.1731 148.399 12.9365C149.765 13.1756 151.203 13.2285 152.608 13.0915C154.013 12.9544 155.348 12.6309 156.514 12.1448L156.324 12.3145ZM143.653 13.5868L146.833 13.3606C146.833 13.2051 146.833 13.0496 146.833 12.8941L143.677 13.1062L143.653 13.5868ZM134.636 12.4841C134.613 12.7243 134.613 12.965 134.636 13.2051C134.865 13.2226 135.096 13.2226 135.324 13.2051C135.324 12.9507 135.324 12.682 135.324 12.4276L134.636 12.4841ZM140.83 13.7565V13.2758C140.274 13.211 139.711 13.1732 139.145 13.1627C137.104 13.2617 135.04 13.3324 132.999 13.5303C132.002 13.6292 130.626 13.5303 130.436 14.5199C134.114 14.2654 137.531 13.9261 140.996 13.5868L140.83 13.7565ZM127.019 15.0571L130.318 14.7602C129.663 14.4786 128.944 14.2548 128.182 14.0958C127.375 13.813 126.925 14.1948 127.186 14.8875L127.019 15.0571ZM121.182 60.2966L118.145 60.127C119.118 60.8904 119.972 60.848 121.348 60.0845L121.182 60.2966ZM120.565 15.354C119.497 15.4247 117.481 14.5764 115.369 15.7357C117.931 16.2022 119.616 14.9864 120.731 15.142L120.565 15.354ZM107.443 47.7709L108.274 46.9651L109.531 47.6013L111.382 46.3996L108.559 45.2686L105.996 46.3006L107.443 47.7709ZM106.803 44.6466L102.935 45.5372C105.237 45.9331 105.237 45.9331 106.969 44.378L106.803 44.6466ZM98.9722 47.5871L100.894 47.3751C102.009 48.3647 102.223 48.4212 104.525 48.3506C104.508 48.1448 104.452 47.9409 104.359 47.7427C104.222 47.5906 104.045 47.4523 103.837 47.3327L105.142 46.8237V46.4844C103.969 46.3536 102.771 46.3203 101.582 46.3855C100.579 46.5996 99.6412 46.91 98.8061 47.3044L98.9722 47.5871ZM92.6604 18.1815L104.169 17.1212L104.05 16.6122L92.5654 17.6725C92.7552 17.6301 92.8027 17.7998 92.8265 17.9694L92.6604 18.1815ZM91.4265 15.6933L92.8265 15.5095L92.6129 15.255L91.3315 15.4106L91.4265 15.6933ZM82.0774 16.6405L84.9011 16.3719C84.7317 16.2594 84.5229 16.1705 84.2894 16.1114C84.056 16.0523 83.8036 16.0244 83.5501 16.0298C83.2966 16.0352 83.0482 16.0737 82.8224 16.1426C82.5966 16.2115 82.399 16.3091 82.2435 16.4285L82.0774 16.6405ZM89.7655 18.4218L89.5519 17.927C86.4197 18.238 83.1214 18.0401 80.3452 19.3407L89.7655 18.4218ZM77.3791 18.9025C75.7418 19.1711 74.0334 18.648 72.6334 19.7224C75.3859 20.09 76.5486 19.9062 77.5452 18.6904L77.3791 18.9025ZM55.8098 33.0398C55.8098 33.0398 55.9996 32.8702 56.308 32.5874L54.9792 32.9267C55.3177 32.9227 55.6535 32.8894 55.9759 32.8277L55.8098 33.0398ZM41.5726 34.3688C43.9454 33.775 46.8878 34.2698 49.6403 33.4922C48.0356 33.1202 46.2998 32.9938 44.5919 33.1247C42.8841 33.2556 41.2586 33.6396 39.8641 34.2415C40.6234 34.086 41.2166 34.2556 41.6438 34.1567L41.5726 34.3688ZM401.584 65.174C398.561 65.3978 395.493 65.229 392.59 64.6792H402.082C401.916 64.863 401.773 65.1599 401.584 65.174ZM146.738 63.8875C147.213 63.8875 147.663 64.0147 148.138 64.0713V64.1702L145.077 64.0289V63.7603L146.738 63.8875ZM103.623 60.1128V60.3815L99.5891 60.2259L99.7315 60.1128H103.623ZM18.888 27.2718L20.288 26.678L20.8812 27.1728C20.4826 27.3774 20.0445 27.5531 19.5761 27.6959C19.5761 27.6959 19.1965 27.4132 18.888 27.2718ZM182.616 64.4389V64.6651H180.077V64.4389H182.616ZM82.7656 50.5843L80.9384 50.7115V50.3157H82.7892L82.7656 50.5843ZM406.567 65.2023V65.4002L403.719 65.2164V64.9902L406.567 65.2023ZM0.806793 33.6053C1.12244 33.6717 1.41867 33.767 1.68472 33.888C1.44745 34.0294 1.23389 34.2839 1.02032 34.2839C0.806763 34.2839 0.427124 34.086 3.05176e-05 33.9163C0.28476 33.7608 0.522034 33.5912 0.711853 33.6053H0.806793ZM419.617 62.912V63.11H417.245L417.411 62.912H419.617ZM135.965 62.5586H134.28V62.2617H135.965V62.5586ZM137.982 63.6472H136.843V63.4492H137.958L137.982 63.6472ZM419.641 64.2551C419.933 64.2988 420.218 64.3555 420.495 64.4247H418.905V64.2409C419.119 64.2349 419.334 64.2397 419.546 64.2551H419.641ZM170.277 64.3682V64.4389H168.212V64.2975L170.277 64.3682ZM56.8538 18.9308H54.1013C55.5013 18.0967 56.1894 18.549 56.8538 18.9308ZM94.3451 48.8312L96.7179 48.4778L94.6299 49.1988L94.3451 48.8312ZM147.023 62.7565L146.88 63.1524L145.101 62.8979V62.6717L147.023 62.7565ZM383.858 5.62751L381.343 6.05165C382.363 5.40134 382.363 5.4013 383.811 5.57095L383.858 5.62751ZM283.795 5.50028L282.371 6.05165L282.015 5.72648L283.486 5.20341C283.567 5.28568 283.654 5.36584 283.747 5.44372L283.795 5.50028ZM205.063 7.90364C205.276 7.90364 205.514 8.03086 205.751 8.10154L205.039 8.62462C204.778 8.4267 204.47 8.28534 204.493 8.20052C204.522 8.11987 204.585 8.04501 204.677 7.98311C204.768 7.92122 204.885 7.87437 205.016 7.84708L205.063 7.90364ZM220.415 7.71985V7.38053H222.432L220.415 7.71985Z" fill="#042041"/>
<path d="M421.231 27.5881C420.603 27.2298 419.902 26.921 419.142 26.6691C418.896 27.1961 418.528 27.7004 418.051 28.1677C417.315 28.6484 416.01 29.4259 415.488 29.2987C413.115 28.6908 411.526 29.8924 409.532 30.0479L411.312 30.4438C411.322 30.5238 411.322 30.6041 411.312 30.6841L407.515 30.6841L408.37 29.9349C407.207 30.0197 405.997 29.9349 405.997 30.1469C405.071 31.5606 403.743 30.7407 402.888 30.4579C402.105 30.8255 401.607 31.2213 401.014 31.2779C399.377 31.4334 397.668 31.4052 396.007 31.5324C395.38 31.6511 394.787 31.8276 394.251 32.0555C394.841 32.4387 395.632 32.6908 396.495 32.7704C397.357 32.8501 398.24 32.7525 398.997 32.4937C399.661 32.2675 400.658 31.9 401.18 32.0555C403.553 32.7341 405.522 31.8293 407.658 31.6455C408.599 31.4987 409.588 31.4987 410.529 31.6455C413.305 32.4089 416.081 31.5748 418.834 31.8434C419.322 31.8852 419.817 31.8852 420.305 31.8434C423.01 31.6455 425.739 31.4193 428.444 31.2355C428.958 31.2599 429.462 31.3315 429.939 31.4476L429.939 32.9744C428.302 33.6247 426.19 33.4551 424.956 33.9216C422.963 34.685 421.373 33.3985 419.498 34.1054C419.498 35.3919 419.712 36.7491 419.807 38.0638C417.909 38.6293 417.173 37.9649 416.651 37.1873C414.278 37.4842 413.258 37.1873 411.905 35.7736L409.366 35.9008C410.189 36.6925 410.853 37.3146 411.359 37.767C410.516 38.0166 409.72 38.3199 408.987 38.6717C409.437 39.3927 408.417 39.3927 407.943 39.6896C406.448 40.5803 404.549 40.3541 402.77 40.4389C402.224 39.3927 402.224 39.3927 400.231 39.0252C400.373 40.1137 397.858 40.5661 398.926 41.8526C395.983 40.9478 393.539 41.2447 392.851 42.6585C392.757 42.9692 392.491 43.2522 392.095 43.4623C391.699 43.6724 391.197 43.7975 390.668 43.8177C388.177 44.1712 385.685 44.5105 383.217 44.9063C380.75 45.3021 378.092 45.7828 375.553 46.2494C374.153 46.5038 372.777 46.829 371.4 47.1259C373.061 47.4369 374.628 47.7338 376.146 47.1259C376.146 47.9176 375.221 48.0165 374.2 48.1296C369.455 48.6668 364.709 49.2606 360.106 49.7837C359.31 49.8044 358.513 49.7664 357.733 49.6706C359.417 48.5961 361.363 49.0344 362.929 48.681C364.495 48.3276 366.299 48.1155 367.983 47.8468L367.841 47.4793C363.095 48.1296 358.16 48.4123 353.438 49.1758L353.438 49.5433L356.072 49.6847L356.072 50.0523C354.387 50.1795 352.655 50.2502 350.994 50.4482C344.801 51.1833 338.631 51.975 332.438 52.7242C330.706 52.9363 328.95 53.1625 327.194 53.318L310.869 54.8166C308.891 55.1385 306.842 55.2768 304.794 55.2265C303.149 55.1166 301.484 55.213 299.906 55.5093C296.982 55.9722 294.02 56.3449 291.032 56.6262C284.411 57.1634 277.767 57.5734 271.147 58.0399C266.496 58.3792 261.845 58.7373 257.194 59.1143C255.937 59.2133 254.561 59.6939 253.469 59.5101C251.096 59.086 248.723 59.7646 246.35 59.3829C245.995 59.3829 245.378 59.3829 245.235 59.3829C244.642 59.9201 244.096 59.7788 243.29 59.5667C242.635 59.4268 241.934 59.3821 241.245 59.4362C240.556 59.4903 239.898 59.6417 239.327 59.8777C238.52 60.2585 237.553 60.4996 236.532 60.5744C235.511 60.6492 234.474 60.5549 233.537 60.3018C233.229 60.1887 232.659 60.3019 232.184 60.3867C231.71 60.4715 230.547 60.6977 229.812 60.5563C227.719 60.2024 225.476 60.3548 223.571 60.9804C222.313 61.3056 221.198 61.6025 219.893 60.8532C219.608 60.6694 218.778 60.7401 218.232 60.8532C217.686 60.9663 217.164 61.1925 216.618 61.1925C214.146 61.1897 211.708 61.5336 209.5 62.1963C209 62.4325 208.382 62.5611 207.744 62.5611C207.106 62.5611 206.487 62.4325 205.988 62.1963C205.423 62.0156 204.791 61.921 204.149 61.921C203.507 61.921 202.876 62.0156 202.31 62.1963C199.249 63.4121 195.524 62.6769 192.415 63.61C192.083 63.7231 191.514 63.5251 191.039 63.4969C190.463 63.4687 189.883 63.4687 189.307 63.4969C185.985 63.6665 182.663 63.8079 179.365 64.0482C178.036 64.1472 176.992 64.0482 176.422 63.5817C174.984 63.8008 173.527 63.9708 172.056 64.0906C169.683 64.232 167.121 65.0096 164.653 64.0906C164.042 63.8551 163.303 63.769 162.588 63.8503C161.229 64.1338 159.905 64.4739 158.626 64.8682L157.06 64.0482C156.917 64.5713 156.799 64.9672 156.704 65.3347C155.327 65.2216 154.188 65.1651 153.049 65.0237C152.088 64.9448 151.146 64.7927 150.249 64.5713C147.877 63.921 146.999 64.0906 145.883 65.7447C145.563 65.4476 145.137 65.196 144.635 65.0075C144.134 64.8191 143.569 64.6984 142.981 64.6539C142.393 64.6095 141.796 64.6423 141.231 64.7501C140.667 64.858 140.149 65.0382 139.714 65.2782L134.683 63.9351C134.256 64.4441 133.948 64.8258 133.616 65.1934L132.334 64.0341C131.172 64.3592 129.961 64.9954 129.321 64.8258C128.533 64.6289 127.667 64.571 126.826 64.6587C125.985 64.7464 125.204 64.9761 124.575 65.3206C121.158 64.9813 118.145 63.5251 115.297 65.5609C115.078 65.6816 114.789 65.7474 114.49 65.7447C111.738 65.8436 108.985 66.0133 106.233 65.9992C103.48 65.985 101.107 65.7305 98.5684 65.6175C96.1195 65.3949 93.6394 65.3191 91.1651 65.3912C88.7923 65.575 86.4194 64.232 83.9279 65.2499C83.8458 65.2799 83.7513 65.2958 83.655 65.2958C83.5587 65.2958 83.4642 65.2799 83.3821 65.2499C81.7923 64.1472 80.2499 64.9389 78.6364 65.3347L77.3076 64.0058C75.9076 64.6703 74.1517 63.4544 72.4195 64.5147C71.2331 65.2357 68.7415 64.2885 67.2229 65.264C67.389 64.9671 67.5551 64.6703 67.7449 64.2744L63.6874 64.2744L61.7178 65.5326L58.8705 65.1085C59.1315 64.7268 59.3213 64.4299 59.606 64.0482L56.7823 64.0482C56.3789 64.4865 55.9518 64.9106 55.501 65.462C55.0745 65.3936 54.6669 65.2888 54.2908 65.1509C52.8671 64.4017 51.5383 63.9916 49.6875 64.854C49.2183 65.0066 48.6976 65.0946 48.1639 65.1118C47.6301 65.1289 47.0967 65.0746 46.6027 64.953C45.2252 64.7087 43.7921 64.5942 42.3553 64.6137C39.4841 64.4441 35.9486 65.1651 34.2401 62.8607C33.2919 63.409 32.0299 63.7226 30.7088 63.7383C29.3877 63.7541 28.1058 63.4708 27.1215 62.9455C26.7893 62.79 26.0063 62.6627 25.7927 62.7758C23.8232 63.7654 22.0435 62.8748 20.3351 62.5072C19.9531 62.3567 19.6303 62.1587 19.3887 61.9269C19.1471 61.6951 18.9923 61.4349 18.9351 61.1642C18.976 60.5635 19.1845 59.9711 19.5521 59.4112L29.0435 60.8249C29.0435 60.1322 29.0435 59.4111 29.0435 58.8174L25.3656 58.5346C24.7012 57.2764 24.4402 57.022 22.2097 57.2906C18.8165 57.7005 16.6097 56.3009 13.9046 55.6789C13.7148 55.6789 13.6437 55.382 13.4301 55.1276C13.9759 55.0003 14.925 54.8024 14.925 54.7882C14.2606 53.5866 16.2063 53.6148 17.1792 53.219C17.0606 52.908 17.1792 52.6252 16.8945 52.4697C14.7762 50.9277 13.4059 49.07 12.9318 47.0975C12.8391 46.6048 12.5813 46.1282 12.1737 45.6959C11.7661 45.2637 11.217 44.8845 10.5589 44.5811C7.80637 43.3652 7.75894 41.4143 7.09454 39.4775L9.06398 40.0571L9.4674 39.7885C8.9691 39.4068 8.06737 39.0392 8.01992 38.6293C7.78263 37.1307 5.78946 36.848 4.05727 36.3532C3.74641 36.2896 3.4611 36.1882 3.21944 36.0555C2.97778 35.9227 2.785 35.7616 2.65338 35.5821C2.52176 35.4027 2.45415 35.2089 2.45482 35.0131C2.45549 34.8173 2.52445 34.6237 2.65729 34.4446L6.78605 34.7132L4.55555 33.5115C5.38606 32.3381 7.35557 32.6209 8.96912 32.0978L5.03016 27.2911L6.61994 26.8105C5.81316 24.7747 5.03012 22.753 4.24707 20.7314C4.03351 20.7314 3.7725 20.7314 3.72504 20.7314C2.82335 19.7983 2.75223 18.5825 0.450547 17.9887L2.82341 17.5363C2.82341 17.3243 2.65727 17.1546 2.56236 16.9991C1.99287 16.0802 1.3759 15.1754 0.901326 14.2565C0.616582 13.7193 0.664062 13.1255 0.331861 12.6165C-0.261355 11.6552 -0.142705 11.0756 1.37593 10.7928C2.78688 10.577 4.23783 10.4677 5.69456 10.4676C6.91671 10.4766 8.13692 10.5285 9.34879 10.6232L7.49796 6.57988C7.85295 6.10706 8.41904 5.70146 9.13459 5.40727C9.85014 5.11309 10.6876 4.94164 11.5555 4.91168C13.2877 4.77031 15.0436 4.62895 16.7758 4.44517C17.2453 4.39217 17.6856 4.27075 18.0572 4.09174C20.2165 3.0173 20.6198 3.01729 22.6368 4.21897L28.7113 3.30005L28.7113 2.98903L26.8842 2.52247L30.6808 1.78734L30.7994 1.78734L40.5756 2.42354C40.3858 2.76284 40.2197 3.07385 40.0299 3.38487L40.4333 3.58277L44.8468 1.92873L43.7553 1.56114C45.0879 1.4722 46.4329 1.4722 47.7654 1.56114C48.7857 1.71665 49.5688 1.94284 50.4231 1.37735C50.6129 1.25012 51.1349 1.26426 51.4908 1.25012C55.2162 1.12289 58.9417 0.995646 62.6671 0.896686C68.6941 0.72704 74.7212 0.576238 80.7483 0.444289C85.9844 0.331192 91.2285 0.251099 96.4804 0.203981C97.5482 0.203981 98.8532 0.826006 99.6363 0.585672C101.748 -0.149473 103.907 0.274668 106.019 0.203983C109.579 0.0767477 113.138 0.0626187 116.721 0.0343448C119.88 0.179105 123.053 0.179106 126.212 0.0343464C126.734 -0.040124 127.284 0.00787258 127.748 0.168433C128.212 0.328994 128.554 0.58979 128.704 0.896697L133.45 0.896698L134.304 0.0626071L153.097 0.0626103C155.28 0.0626107 155.28 0.0625878 156.727 1.19358C156.893 1.29862 157.076 1.39338 157.273 1.47635L154.782 2.53664L159.527 2.53664C159.219 2.12666 159.005 1.81562 158.697 1.41978L161.188 0.868444L159.456 0.0343521L173.907 0.373634L173.907 0.585685L170.49 0.712912C170.039 2.19734 172.246 1.10877 172.863 1.78737C172.863 1.97115 173.076 2.33873 173.243 2.80526L178.297 2.80526C178.581 2.12667 178.819 1.57531 179.056 1.03809L177.466 0.698807C177.466 0.585709 177.466 0.458473 177.466 0.345375L201.788 0.684658C201.788 1.50463 201.907 2.09841 201.978 2.777C202.989 3.10118 204.123 3.26373 205.271 3.24887C206.419 3.234 207.541 3.04218 208.527 2.69214C206.035 2.69214 206.154 1.63186 205.395 0.811895L215.835 0.811896C216.215 0.811896 216.88 0.811904 216.903 0.995689C217.378 2.28218 219.513 1.81565 220.534 2.40942C221.886 1.43394 220.083 1.47636 219.679 1.12292L233.774 1.12292L233.062 1.78738C233.513 2.23977 233.964 2.62149 234.344 3.03147C234.723 3.44145 236.1 3.59698 236.171 3.13044C236.171 2.40944 236.859 2.49424 237.595 2.31045C238.33 2.12667 238.496 1.70257 239.018 1.32086L242.198 1.50461L239.54 2.0984L242.459 3.44147C243.005 2.90425 243.147 2.35289 244.5 2.42358C246.872 2.56495 249.245 2.42357 251.618 2.5084C252.947 2.5084 254.466 2.26804 255.035 3.41317C255.035 3.61109 256.008 3.75245 256.53 3.75245C257.717 3.75245 258.903 3.68178 260.137 3.63937C260.611 3.20111 261.133 2.72045 261.774 2.09841C263.459 3.35663 264.835 3.93626 266.757 3.51214L267.611 2.46599C268.607 2.60729 269.625 2.68779 270.649 2.7063C273.022 2.57907 275.205 2.33874 277.483 2.18323C278.479 2.11254 279.452 2.11256 280.449 2.07015L280.449 2.39528L277.15 2.55081C279.191 2.9608 281.398 2.36703 283.106 3.3425C282.157 4.07764 281.184 3.63936 280.282 3.62522L277.293 3.62522C277.293 3.7666 277.293 3.908 277.293 4.04937C279.927 4.04937 282.56 4.04935 285.147 4.24727C287.733 4.44519 290.533 4.09178 292.55 5.50552C292.882 5.73171 293.903 5.61862 294.591 5.6469L294.971 5.20865L293.428 4.79865C296.371 4.79865 298.981 4.79865 301.567 4.79865C305.008 4.86934 308.448 5.02482 311.889 5.08137C315.33 5.13793 319.245 4.79863 322.258 6.49511C322.605 6.61256 322.999 6.67127 323.397 6.66479C328.689 6.96168 333.98 7.25855 339.272 7.52715C342.428 7.68266 345.584 7.75335 348.763 7.88059C349.195 7.92982 349.616 8.00563 350.021 8.10679L350.021 8.46023L344.326 8.46023C342.451 8.46023 340.577 8.46023 338.702 8.46023C336.746 8.34024 334.774 8.34024 332.818 8.46022C330.991 8.65815 328.974 7.7392 327.075 8.7995C327.953 9.0257 329.021 9.11053 329.163 9.37914C329.638 10.2415 330.611 10.0153 331.536 9.98704C335.689 9.83153 339.651 10.6091 343.733 10.7646C343.994 10.7646 344.207 10.9342 344.801 11.1746L343.116 13.1114L341.336 12.1642C341.028 12.3904 340.743 12.4894 340.672 12.6449C340.584 12.906 340.529 13.1706 340.506 13.4366C342.879 14.2989 345.987 13.2387 348.051 14.9634C346.272 15.3875 344.635 15.7127 343.092 16.1509C341.55 16.5892 340.506 15.1896 338.726 15.4582C338.892 15.7975 339.058 16.0944 339.272 16.5185C338.524 16.5208 337.799 16.6746 337.217 16.9546C336.635 17.2346 336.23 17.6243 336.068 18.0595L334.74 19.0774L336.733 19.6287C336.875 20.0811 336.994 20.5194 337.136 21.0425C338.75 21.0425 340.221 21.0425 341.668 21.0425C345.394 20.8587 349.096 20.6042 352.797 20.4487C353.794 20.4487 354.933 20.3215 355.55 21.1414C355.716 21.3676 356.736 21.4807 357.377 21.4807C360.817 21.4807 364.282 21.2545 367.723 21.2404C374.533 21.2404 381.343 21.2404 388.129 21.2404C390.383 21.2404 392.614 21.2404 394.844 21.3535C397.075 21.4666 399.163 21.4383 401.322 21.509C402.105 21.509 402.888 21.6504 403.695 21.6645C407.254 21.6645 410.814 21.7352 414.349 21.7917C414.515 21.7917 414.658 21.9048 414.824 21.9614C414.99 22.0179 414.563 22.3714 414.468 22.5269L428.302 25.1989C427.4 26.4995 429.678 26.6833 430.675 27.3477C428.539 27.786 426.641 28.2525 424.671 28.5494C424 28.6336 423.302 28.5853 422.681 28.4119C422.06 28.2384 421.551 27.9492 421.231 27.5881ZM3.72504 18.4835C3.98605 19.148 4.19963 19.7135 4.41319 20.279L5.50469 20.6183C5.36232 19.7559 5.55217 18.9218 3.74879 18.4835L3.72504 18.4835ZM9.01655 26.5701L8.44709 26.867L9.32504 27.39C9.32504 27.39 9.72843 27.2063 9.7047 27.178C9.68098 27.1497 9.27759 26.768 9.0403 26.5701L9.01655 26.5701ZM20.2165 49.826C20.2165 50.1371 20.2164 50.4481 20.3351 50.7591L20.8097 50.7591C20.8097 50.4481 20.9758 50.1229 21.0232 49.8119L20.2165 49.826ZM21.9961 55.1982C21.9607 55.4711 21.9607 55.7453 21.9961 56.0182C21.9961 56.0182 22.2808 56.103 22.4232 56.1313C22.5656 55.8627 22.6842 55.594 22.8029 55.3113L21.9961 55.1982ZM28.1418 56.7816C28.1418 56.004 28.5927 55.1841 26.4571 54.9155C26.0063 56.0182 26.9792 56.4282 28.1656 56.7816L28.1418 56.7816ZM24.0605 52.908C24.6582 53.2444 25.3924 53.4825 26.1911 53.599C26.9897 53.7155 27.8255 53.7063 28.6164 53.5724C27.5961 52.187 25.9114 53.1483 24.0843 52.908L24.0605 52.908ZM33.3622 3.04555L36.1621 3.04555C35.0943 2.6497 34.4536 2.32454 33.3858 3.04555L33.3622 3.04555ZM43.8028 60.2735C43.6367 58.8598 42.0231 58.6336 40.0062 58.4639C37.0401 58.2236 34.1214 57.7288 31.1791 57.3895C30.0655 57.3382 28.9469 57.3382 27.8333 57.3895L29.2571 58.4781C30.752 58.9729 29.5893 60.019 30.5621 60.6552C34.9519 61.6731 37.3723 61.5883 38.5587 60.2311C39.4109 60.6255 40.3341 60.9621 41.3113 61.2349C42.6245 61.3874 43.9597 61.4632 45.2977 61.4611C44.5384 60.8532 43.9451 60.5704 43.9451 60.2735L43.8028 60.2735ZM117.623 1.82977C117.409 2.02769 117.124 2.1832 117.195 2.26802C117.267 2.35285 117.599 2.53665 117.812 2.67802C117.931 2.53665 118.145 2.39526 118.121 2.26802C118.097 2.14079 117.86 2.05597 117.623 1.82977ZM129.487 1.29254L127.636 1.51874L127.778 1.91459L129.558 1.71669L129.487 1.29254ZM132.667 1.15116C134.375 2.39525 135.585 2.56493 137.412 1.71669C135.939 1.27454 134.284 1.09299 132.643 1.19357L132.667 1.15116ZM137.412 1.70254L140.189 2.45182C139.334 1.39152 139.311 1.37738 137.412 1.74495L137.412 1.70254ZM143.511 1.70254L143.511 1.99941L146.572 1.99941L146.572 1.82978L143.511 1.70254ZM147.307 1.70254C150.605 2.57906 150.605 2.57906 151.578 1.70254C150.131 1.6884 148.826 1.0098 147.307 1.7308L147.307 1.70254ZM166.29 58.9446L154.71 58.9446C155.128 59.1817 155.524 59.4318 155.897 59.6939C156.11 59.8777 156.277 60.0615 156.585 60.3725C156.087 60.4856 155.731 60.6411 155.422 60.6128C154.426 60.5139 153.477 60.3301 152.29 60.1463L152.741 58.987L148.185 59.4677C147.521 59.4677 146.761 59.7505 146.216 59.6374C145.649 59.4581 145.002 59.3903 144.367 59.4436C143.732 59.4969 143.141 59.6687 142.68 59.9343C142.277 60.1322 141.138 60.0049 140.497 59.8211C137.887 59.086 135.443 58.5064 133.212 60.2453C132.856 60.528 131.789 60.4715 130.958 60.5846C130.697 60.1039 130.484 59.7222 130.199 59.2415L111.026 59.2415C111.548 59.906 111.88 60.3725 112.355 61.0087C107.751 60.3583 103.243 61.5035 98.6634 60.6694C98.6634 60.1746 98.4736 59.7363 98.3786 59.2556C98.0227 59.2556 97.6905 59.1708 97.4769 59.2556C96.6512 59.4641 95.8573 59.7148 95.1041 60.0049C94.6783 60.209 94.1364 60.3068 93.5921 60.2779C93.0479 60.2489 92.5436 60.0953 92.1854 59.8494C90.0973 58.7609 90.0974 58.7609 88.7686 60.2877C88.5076 59.8918 88.3177 59.6091 88.1041 59.3122L85.7312 60.3301L85.3279 60.1322L86.1347 59.2839C79.4669 58.9305 72.8466 59.1426 66.2026 59.1002C59.5586 59.0577 53.223 59.1708 46.1756 58.9164L48.0027 61.0511C50.5891 61.249 52.9146 61.4752 55.24 61.5742C56.4976 61.5742 57.8263 61.3056 59.0365 61.4187C63.0384 61.7225 67.0888 61.7225 71.0907 61.4187C72.5617 61.4309 74.0259 61.54 75.4568 61.7438C75.8196 61.8079 76.194 61.8458 76.572 61.8569C82.955 61.1642 89.3855 61.7438 95.7685 61.6307C100.514 61.5459 105.26 61.6307 110.006 61.6307L118.002 61.6307C122.155 61.6307 126.331 61.4469 130.46 61.6307C134.589 61.8145 139.239 61.3621 143.629 61.6307C146.002 61.7438 148.209 61.0794 150.629 61.7863C151.578 62.0549 153.192 61.3904 154.521 61.348C158.744 61.1784 162.968 61.1077 167.192 60.9804C167.938 60.9201 168.676 60.8256 169.398 60.6977L169.398 60.217L164.344 60.217C164.249 59.185 166.931 60.3867 166.219 58.9729L166.29 58.9446ZM168.497 58.8316L168.497 59.1143L169.968 59.2981L169.968 58.8316L168.497 58.8316ZM171.083 60.4291L172.958 60.5563L174.429 58.8316C171.605 58.6478 171.439 58.7326 171.012 60.4573L171.083 60.4291ZM177.419 60.6694C179.151 60.528 179.151 60.528 179.792 58.8033C179.125 58.9487 178.541 59.2041 178.109 59.5394C177.676 59.8748 177.412 60.2765 177.348 60.6977L177.419 60.6694ZM181.358 0.232255L180.432 0.727067C180.646 0.882577 180.883 1.13706 181.12 1.13706C181.295 1.13234 181.464 1.09963 181.611 1.0424C181.757 0.985185 181.874 0.905557 181.951 0.81189C181.951 0.741204 181.571 0.529168 181.287 0.260552L181.358 0.232255ZM182.497 58.6195L181.215 58.9588C181.215 59.0719 181.429 59.2557 181.476 59.2557L182.734 59.0153L182.497 58.6195ZM189.188 0.656397L185.51 0.486719L185.392 0.74122L186.981 1.12291L185.415 2.18321C186.404 2.33727 187.412 2.44599 188.429 2.50839C188.666 2.50839 188.951 2.09839 189.212 1.87219C187.432 1.50462 189.686 1.22188 189.117 0.727068L189.188 0.656397ZM189.331 58.1671C188.693 58.3364 188.126 58.5874 187.67 58.9022C187.67 58.9022 188.144 59.3688 188.642 59.8636C189.354 59.3263 189.853 58.9871 190.28 58.6054C190.232 58.6478 189.449 58.1954 189.259 58.2378L189.331 58.1671ZM195.215 0.712917L194.527 0.712917C194.527 1.09463 194.646 1.49048 194.717 1.8722L195.524 1.8722C195.334 1.57531 195.239 1.17948 195.144 0.783633L195.215 0.712917ZM213.13 0.71292L212.917 0.981535C213.249 1.12291 213.558 1.36327 213.913 1.40568C214.269 1.4481 214.554 1.2219 215.242 0.967429L213.13 0.71292ZM218.778 58.7892C216.856 58.1671 215.408 56.923 212.917 57.0644C210.425 57.2058 207.198 56.7251 204.612 57.6723C205.601 58.089 206.678 58.4265 207.815 58.676C208.808 58.7201 209.806 58.653 210.757 58.4781C210.544 58.9022 210.402 59.3264 211.469 59.3688C212.537 59.4112 214.008 59.4677 215.29 59.4677C216.571 59.4677 217.473 59.3829 218.73 59.3405C218.659 59.3405 218.825 58.9729 218.707 58.9164L218.778 58.7892ZM223.524 1.236C225.852 1.77392 228.416 1.83366 230.808 1.40569C228.34 1.49051 226.134 0.529168 223.357 1.36327L223.524 1.236ZM237.452 56.1596L219.3 56.5696C219.917 57.4178 220.368 57.9833 220.89 58.7043C223.263 59.4678 226.015 58.7043 228.649 58.5912C229.757 58.4246 230.925 58.464 231.995 58.7043C232.254 58.7761 232.536 58.8121 232.822 58.8096C233.108 58.8072 233.389 58.7665 233.644 58.6904C233.899 58.6143 234.123 58.5048 234.297 58.3701C234.472 58.2355 234.593 58.0791 234.652 57.9126C235.079 57.0079 235.957 57.5168 236.693 57.4885C236.978 57.2199 237.286 56.9513 237.547 56.6544C237.452 56.711 237.334 56.5696 237.286 56.2868L237.452 56.1596ZM236.788 57.5733C237.334 58.365 238.283 57.7006 239.161 57.5733L236.788 57.5733ZM244.357 3.41317L246.327 3.10214C246.066 2.60733 245.473 2.66391 244.191 3.52629L244.357 3.41317ZM239.873 56.2868C242.302 56.6542 244.847 56.6542 247.276 56.2868C249.442 56.0413 251.658 55.9937 253.849 56.1455C254.358 56.2221 254.889 56.2287 255.403 56.1651C255.917 56.1014 256.399 55.969 256.815 55.7779C258.737 54.8166 259.638 54.9297 261.561 56.2727L264.977 54.6469C256.456 54.5043 247.945 55.0947 239.706 56.3999L239.873 56.2868ZM265.12 54.7176L268.537 54.5197C267.374 53.7421 267.161 53.7562 264.954 54.8307L265.12 54.7176ZM272.452 53.6856C273.211 54.4348 273.211 54.4348 274.967 53.6856L272.452 53.6856ZM276.676 53.6856L280.164 53.8694L279.191 54.7459C279.381 54.8307 279.594 54.9579 279.618 54.9438C280.329 54.6122 280.981 54.2379 281.564 53.8269C282.489 53.5725 283.937 53.8269 284.601 53.0635C283.235 52.8245 281.797 52.7715 280.392 52.9086C278.987 53.0456 277.652 53.3691 276.486 53.8552L276.676 53.6856ZM289.347 52.4132L286.167 52.6394C286.167 52.7949 286.167 52.9504 286.167 53.1059L289.323 52.8939L289.347 52.4132ZM298.364 53.5159C298.387 53.2758 298.387 53.035 298.364 52.7949C298.135 52.7775 297.904 52.7775 297.676 52.7949C297.676 53.0494 297.676 53.318 297.676 53.5725L298.364 53.5159ZM292.17 52.2436L292.17 52.7242C292.726 52.789 293.289 52.8268 293.855 52.8373C295.896 52.7384 297.96 52.6677 300.001 52.4698C300.998 52.3708 302.374 52.4698 302.564 51.4801C298.886 51.7346 295.469 52.0739 292.004 52.4132L292.17 52.2436ZM305.981 50.9429L302.682 51.2398C303.337 51.5215 304.056 51.7453 304.818 51.9043C305.625 52.187 306.075 51.8053 305.814 51.1126L305.981 50.9429ZM311.818 5.70342L314.855 5.87306C313.882 5.10965 313.028 5.1521 311.652 5.91552L311.818 5.70342ZM312.435 50.646C313.503 50.5754 315.519 51.4236 317.631 50.2644C315.069 49.7978 313.384 51.0136 312.269 50.8581L312.435 50.646ZM325.557 18.2291L324.726 19.035L323.469 18.3988L321.618 19.6005L324.441 20.7314L327.004 19.6994L325.557 18.2291ZM326.197 21.3535L330.065 20.4628C327.763 20.067 327.763 20.067 326.031 21.6221L326.197 21.3535ZM334.028 18.4129L332.106 18.625C330.991 17.6354 330.777 17.5788 328.475 17.6495C328.492 17.8552 328.548 18.0591 328.641 18.2574C328.778 18.4094 328.955 18.5478 329.163 18.6674L327.858 19.1763L327.858 19.5156C329.031 19.6465 330.229 19.6798 331.418 19.6146C332.421 19.4005 333.359 19.0901 334.194 18.6956L334.028 18.4129ZM340.34 47.8186L328.831 48.8789L328.95 49.3878L340.435 48.3275C340.245 48.37 340.197 48.2003 340.174 48.0306L340.34 47.8186ZM341.574 50.3068L340.174 50.4906L340.387 50.745L341.668 50.5895L341.574 50.3068ZM350.923 49.3595L348.099 49.6282C348.268 49.7406 348.477 49.8296 348.711 49.8887C348.944 49.9478 349.196 49.9756 349.45 49.9702C349.703 49.9649 349.952 49.9264 350.178 49.8575C350.403 49.7886 350.601 49.691 350.756 49.5716L350.923 49.3595ZM343.235 47.5782L343.448 48.073C346.58 47.762 349.879 47.9599 352.655 46.6593L343.235 47.5782ZM355.621 47.0976C357.258 46.829 358.967 47.3521 360.367 46.2776C357.614 45.9101 356.451 46.0938 355.455 47.3097L355.621 47.0976ZM377.19 32.9602C377.19 32.9602 377 33.1299 376.692 33.4126L378.021 33.0733C377.682 33.0773 377.347 33.1107 377.024 33.1723L377.19 32.9602ZM391.427 31.6313C389.055 32.2251 386.112 31.7303 383.36 32.5079C384.964 32.8799 386.7 33.0062 388.408 32.8753C390.116 32.7444 391.741 32.3605 393.136 31.7586C392.377 31.9141 391.783 31.7444 391.356 31.8434L391.427 31.6313ZM31.4164 0.826017C34.4389 0.602202 37.507 0.771018 40.4096 1.32083L30.9181 1.32083C31.0842 1.13704 31.2266 0.840154 31.4164 0.826017ZM286.262 2.11256C285.787 2.11256 285.337 1.98532 284.862 1.92877L284.862 1.8298L287.923 1.97118L287.923 2.23979L286.262 2.11256ZM329.377 5.88721L329.377 5.6186L333.411 5.77414L333.269 5.88721L329.377 5.88721ZM414.112 38.7283L412.712 39.322L412.119 38.8273C412.517 38.6226 412.955 38.447 413.424 38.3041C413.424 38.3041 413.804 38.5869 414.112 38.7283ZM250.384 1.56118L250.384 1.33497L252.923 1.33497L252.923 1.56118L250.384 1.56118ZM350.234 15.4158L352.062 15.2885L352.062 15.6844L350.211 15.6844L350.234 15.4158ZM26.4334 0.797711L26.4334 0.599812L29.2808 0.783605L29.2808 1.00981L26.4334 0.797711ZM432.193 32.3948C431.878 32.3284 431.581 32.233 431.315 32.112C431.553 31.9707 431.766 31.7162 431.98 31.7162C432.193 31.7162 432.573 31.9141 433 32.0837C432.715 32.2392 432.478 32.4089 432.288 32.3948L432.193 32.3948ZM13.3826 3.088L13.3826 2.89005L15.7555 2.89005L15.5894 3.088L13.3826 3.088ZM297.035 3.44148L298.72 3.44148L298.72 3.73835L297.035 3.73835L297.035 3.44148ZM295.018 2.35287L296.157 2.35287L296.157 2.55082L295.042 2.55082L295.018 2.35287ZM13.3589 1.74493C13.0674 1.7012 12.7819 1.6445 12.5047 1.57529L14.0945 1.57529L14.0945 1.75908C13.8807 1.76507 13.6663 1.76033 13.4538 1.74493L13.3589 1.74493ZM262.723 1.63185L262.723 1.56118L264.788 1.56118L264.788 1.70256L262.723 1.63185ZM376.146 47.0693L378.899 47.0693C377.499 47.9034 376.811 47.451 376.146 47.0693ZM338.655 17.1688L336.282 17.5223L338.37 16.8012L338.655 17.1688ZM285.977 3.24353L286.12 2.84769L287.899 3.10215L287.899 3.32835L285.977 3.24353ZM49.1417 60.3725L51.6569 59.9484C50.6366 60.5987 50.6366 60.5987 49.1891 60.4291L49.1417 60.3725ZM149.205 60.4997L150.629 59.9484L150.985 60.2735L149.514 60.7966C149.433 60.7143 149.346 60.6342 149.253 60.5563L149.205 60.4997ZM227.937 58.0964C227.724 58.0964 227.486 57.9692 227.249 57.8985L227.961 57.3754C228.222 57.5733 228.53 57.7147 228.507 57.7995C228.478 57.8802 228.415 57.955 228.323 58.0169C228.232 58.0788 228.115 58.1257 227.984 58.153L227.937 58.0964ZM212.585 58.2802L212.585 58.6195L210.568 58.6195L212.585 58.2802Z" fill="#042041"/>
</svg>
