<svg width="25" height="25" viewBox="0 0 25 25" fill="none" xmlns="http://www.w3.org/2000/svg">
<g clip-path="url(#clip0_684_6318)">
<mask id="mask0_684_6318" style="mask-type:luminance" maskUnits="userSpaceOnUse" x="0" y="0" width="25" height="25">
<path d="M24.2289 12.5001C24.2295 14.0389 23.9269 15.5628 23.3384 16.9846C22.75 18.4064 21.8872 19.6984 20.7993 20.7867C19.7114 21.875 18.4198 22.7383 16.9982 23.3273C15.5766 23.9163 14.0529 24.2195 12.5141 24.2195C10.9753 24.2195 9.45158 23.9163 8.02998 23.3273C6.60838 22.7383 5.31675 21.875 4.22887 20.7867C3.14099 19.6984 2.27819 18.4064 1.68973 16.9846C1.10128 15.5628 0.798714 14.0389 0.799317 12.5001C0.798714 10.9613 1.10128 9.4375 1.68973 8.01567C2.27819 6.59384 3.14099 5.30187 4.22887 4.21356C5.31675 3.12526 6.60838 2.26195 8.02998 1.67294C9.45158 1.08393 10.9753 0.780762 12.5141 0.780762C14.0529 0.780762 15.5766 1.08393 16.9982 1.67294C18.4198 2.26195 19.7114 3.12526 20.7993 4.21356C21.8872 5.30187 22.75 6.59384 23.3384 8.01567C23.9269 9.4375 24.2295 10.9613 24.2289 12.5001Z" fill="white"/>
</mask>
<g mask="url(#mask0_684_6318)">
<path d="M22.8851 24.4604C23.7555 24.4604 24.4556 23.7588 24.4556 22.8885V2.17151C24.4556 1.30118 23.7555 0.601074 22.8851 0.601074H2.16818C1.29785 0.601074 0.596191 1.30118 0.596191 2.17151V22.8885C0.596191 23.7588 1.29785 24.4604 2.16818 24.4604H22.8851Z" fill="white"/>
<path d="M22.8929 24.4604C23.7633 24.4604 24.4634 24.0119 24.4634 23.4556V19.4897H0.604003V23.4556C0.604003 24.0119 1.30566 24.4604 2.17599 24.4604H22.8929Z" fill="#E74C3C"/>
<path d="M2.12135 0.537109C1.24925 0.537109 0.547726 0.985632 0.547726 1.54197V5.50781H24.4556V1.54197C24.4556 0.985632 23.7525 0.537109 22.8804 0.537109H2.12135Z" fill="#E74C3C"/>
<path d="M0.537109 8.83789H24.4629V16.1621H0.537109V8.83789Z" fill="#356BA0"/>
</g>
</g>
<defs>
<clipPath id="clip0_684_6318">
<rect width="25" height="25" fill="white"/>
</clipPath>
</defs>
</svg>
