<svg width="56" height="56" viewBox="0 0 56 56" fill="none" xmlns="http://www.w3.org/2000/svg">
<path d="M42.4692 28.0126L20.7909 14.1731V41.852L42.4692 28.0126Z" fill="white"/>
<path d="M23.3806 54.1334C23.2823 54.1334 23.184 54.1247 23.0844 54.1061C20.4437 53.612 17.9013 52.7198 15.5282 51.4554C13.2073 50.2184 11.0843 48.6454 9.21884 46.7813C7.35342 44.9158 5.78044 42.7928 4.54471 40.4719C3.28035 38.0988 2.38933 35.5564 1.89404 32.9157C1.73102 32.0458 2.30471 31.2083 3.17458 31.0453C4.04444 30.8822 4.88196 31.4559 5.04498 32.3258C6.80213 41.7114 14.2875 49.198 23.6731 50.9539C24.5429 51.1169 25.1166 51.9544 24.9536 52.8243C24.8105 53.5958 24.1372 54.1334 23.3806 54.1334Z" fill="white"/>
<path d="M32.6194 54.1334C31.8628 54.1334 31.1895 53.5958 31.0452 52.8255C30.8821 51.9556 31.4558 51.1181 32.3257 50.9551C41.7113 49.198 49.1979 41.7126 50.9538 32.327C51.1168 31.4571 51.9543 30.8835 52.8242 31.0465C53.694 31.2095 54.2677 32.047 54.1047 32.9169C53.6107 35.5576 52.7184 38.1 51.454 40.4732C50.2171 42.794 48.6441 44.9171 46.7799 46.7825C44.9145 48.6479 42.7915 50.2209 40.4706 51.4566C38.0974 52.721 35.555 53.612 32.9143 54.1073C32.816 54.1247 32.7164 54.1334 32.6194 54.1334Z" fill="white"/>
<path d="M3.47182 24.9823C3.37351 24.9823 3.2752 24.9736 3.17564 24.9549C2.30578 24.7919 1.73209 23.9544 1.89511 23.0845C2.38915 20.4438 3.28142 17.9014 4.54578 15.5283C5.78275 13.2074 7.35573 11.0844 9.21991 9.21894C11.0853 7.35352 13.2084 5.78054 15.5292 4.54481C17.9024 3.28045 20.4448 2.38943 23.0855 1.89414C23.9554 1.73112 24.7929 2.30481 24.9559 3.17467C25.1189 4.04454 24.5452 4.88205 23.6754 5.04507C14.2885 6.80223 6.80195 14.2888 5.04604 23.6744C4.90169 24.4447 4.22844 24.9823 3.47182 24.9823Z" fill="white"/>
<path d="M52.528 24.9823C51.7714 24.9823 51.0981 24.4447 50.9538 23.6744C49.1966 14.2888 41.7113 6.8022 32.3257 5.04629C31.4558 4.88327 30.8821 4.04576 31.0452 3.17589C31.2082 2.30603 32.0457 1.73234 32.9156 1.89536C35.5563 2.3894 38.0987 3.28167 40.4718 4.54603C42.7927 5.783 44.9157 7.35598 46.7812 9.22016C48.6466 11.0856 50.2196 13.2086 51.4553 15.5295C52.7196 17.9027 53.6107 20.4451 54.106 23.0858C54.269 23.9556 53.6953 24.7931 52.8254 24.9562C52.7259 24.9736 52.6263 24.9823 52.528 24.9823Z" fill="white"/>
</svg>
