<svg width="40" height="40" viewBox="0 0 40 40" fill="none" xmlns="http://www.w3.org/2000/svg">
<path d="M5 36.6693H35M9.33333 13.9693H6.66667C5.75 13.9693 5 14.7193 5 15.6359V30.0026C5 30.9193 5.75 31.6693 6.66667 31.6693H9.33333C10.25 31.6693 11 30.9193 11 30.0026V15.6359C11 14.7193 10.25 13.9693 9.33333 13.9693ZM21.3333 8.6526H18.6667C17.75 8.6526 17 9.4026 17 10.3193V30.0026C17 30.9193 17.75 31.6693 18.6667 31.6693H21.3333C22.25 31.6693 23 30.9193 23 30.0026V10.3193C23 9.4026 22.25 8.6526 21.3333 8.6526ZM33.3333 3.33594H30.6667C29.75 3.33594 29 4.08594 29 5.0026V30.0026C29 30.9193 29.75 31.6693 30.6667 31.6693H33.3333C34.25 31.6693 35 30.9193 35 30.0026V5.0026C35 4.08594 34.25 3.33594 33.3333 3.33594Z" stroke="#1457ED" stroke-width="2.5" stroke-linecap="round" stroke-linejoin="round"/>
</svg>
