<svg width="40" height="40" viewBox="0 0 40 40" fill="none" xmlns="http://www.w3.org/2000/svg">
<path d="M35 11.6693V28.3359C35 33.3359 32.5 36.6693 26.6667 36.6693H13.3333C7.5 36.6693 5 33.3359 5 28.3359V11.6693C5 6.66927 7.5 3.33594 13.3333 3.33594H26.6667C32.5 3.33594 35 6.66927 35 11.6693Z" stroke="#1457ED" stroke-width="2.5" stroke-miterlimit="10" stroke-linecap="round" stroke-linejoin="round"/>
<path d="M22.0827 23.3359H29.166M14.9993 30.0026H29.166M25.8327 3.33594V16.4359C25.8327 17.1693 24.966 17.5359 24.4327 17.0526L20.566 13.4859C20.4127 13.3416 20.21 13.2612 19.9993 13.2612C19.7887 13.2612 19.586 13.3416 19.4327 13.4859L15.566 17.0526C15.0327 17.5359 14.166 17.1693 14.166 16.4359V3.33594H25.8327Z" stroke="#1457ED" stroke-width="2.5" stroke-miterlimit="10" stroke-linecap="round" stroke-linejoin="round"/>
</svg>
