<svg width="24" height="24" viewBox="0 0 24 24" fill="none" xmlns="http://www.w3.org/2000/svg">
<path d="M22 8.3C22 8.72 21.67 9.05 21.25 9.05H20V10.887C20 10.963 19.9799 11.0377 19.9418 11.1035C19.9037 11.1693 19.849 11.2239 19.783 11.2617C19.7171 11.2996 19.6423 11.3193 19.5663 11.319C19.4902 11.3187 19.4156 11.2984 19.35 11.26C18.92 11.01 18.42 10.93 17.94 11.06C17.632 11.134 17.26 10.935 17.26 10.618V9.74C17.26 8.09 15.91 6.74 14.26 6.74H9.74C8.09 6.74 6.74 8.09 6.74 9.74V14.26C6.74 15.91 8.09 17.26 9.74 17.26H10.19C10.2176 17.26 10.2449 17.2654 10.2704 17.276C10.2958 17.2865 10.319 17.302 10.3385 17.3215C10.358 17.341 10.3735 17.3642 10.384 17.3896C10.3946 17.4151 10.4 17.4424 10.4 17.47C10.4 18.433 11.098 19.244 12.017 19.43C12.19 19.465 12.307 19.672 12.25 19.838C12.2348 19.8846 12.2054 19.9252 12.166 19.9543C12.1265 19.9833 12.079 19.9993 12.03 20H9.06V21.25C9.06 21.4489 8.98098 21.6397 8.84033 21.7803C8.69968 21.921 8.50891 22 8.31 22C8.11109 22 7.92032 21.921 7.77967 21.7803C7.63902 21.6397 7.56 21.4489 7.56 21.25V19.78C6.77429 19.5408 6.05953 19.112 5.47878 18.5312C4.89803 17.9505 4.46916 17.2357 4.23 16.45H2.75C2.55109 16.45 2.36032 16.371 2.21967 16.2303C2.07902 16.0897 2 15.8989 2 15.7C2 15.5011 2.07902 15.3103 2.21967 15.1697C2.36032 15.029 2.55109 14.95 2.75 14.95H4V12.75H2.75C2.55109 12.75 2.36032 12.671 2.21967 12.5303C2.07902 12.3897 2 12.1989 2 12C2 11.8011 2.07902 11.6103 2.21967 11.4697C2.36032 11.329 2.55109 11.25 2.75 11.25H4V9.05H2.75C2.55109 9.05 2.36032 8.97098 2.21967 8.83033C2.07902 8.68968 2 8.49891 2 8.3C2 8.10109 2.07902 7.91032 2.21967 7.76967C2.36032 7.62902 2.55109 7.55 2.75 7.55H4.23C4.46916 6.76429 4.89803 6.04953 5.47878 5.46878C6.05953 4.88803 6.77429 4.45916 7.56 4.22V2.75C7.56 2.55109 7.63902 2.36032 7.77967 2.21967C7.92032 2.07902 8.11109 2 8.31 2C8.50891 2 8.69968 2.07902 8.84033 2.21967C8.98098 2.36032 9.06 2.55109 9.06 2.75V4H11.25V2.75C11.25 2.34 11.59 2 12 2C12.41 2 12.75 2.34 12.75 2.75V4H14.95V2.75C14.95 2.34 15.29 2 15.7 2C16.11 2 16.45 2.34 16.45 2.75V4.23C18.04 4.71 19.29 5.96 19.77 7.55H21.25C21.67 7.55 22 7.89 22 8.3Z" fill="white"/>
<path d="M20.9904 15.5301C20.3104 15.5301 19.9204 15.1901 19.9204 14.6901C19.9204 14.4901 19.9804 14.2601 20.1204 14.0201C20.1865 13.906 20.2294 13.7799 20.2466 13.6491C20.2638 13.5183 20.2549 13.3854 20.2205 13.2581C20.1861 13.1308 20.1269 13.0115 20.0462 12.9071C19.9655 12.8028 19.865 12.7154 19.7504 12.6501L18.8404 12.1201C18.7399 12.0617 18.6289 12.0236 18.5138 12.008C18.3986 11.9925 18.2815 11.9998 18.1691 12.0295C18.0568 12.0592 17.9513 12.1108 17.8589 12.1812C17.7665 12.2517 17.6888 12.3396 17.6304 12.4401L17.5704 12.5401C17.0904 13.3701 16.3104 13.3701 15.8304 12.5401L15.7704 12.4401C15.7131 12.3398 15.6365 12.2518 15.545 12.1813C15.4534 12.1109 15.3488 12.0592 15.2372 12.0295C15.1256 11.9997 15.0092 11.9924 14.8947 12.008C14.7803 12.0235 14.67 12.0616 14.5704 12.1201L13.6504 12.6501C13.3304 12.8301 13.1404 13.1701 13.1404 13.5201C13.1404 13.6901 13.1904 13.8601 13.2804 14.0201C13.4204 14.2601 13.4904 14.4901 13.4904 14.6901C13.4904 15.1901 13.0904 15.5301 12.4104 15.5301C11.8604 15.5301 11.4004 15.9801 11.4004 16.5301V17.4701C11.4004 18.0201 11.8604 18.4701 12.4104 18.4701C13.0904 18.4701 13.4904 18.8101 13.4904 19.3101C13.4904 19.5101 13.4204 19.7401 13.2804 19.9801C13.2143 20.0942 13.1714 20.2203 13.1542 20.3511C13.137 20.4819 13.1459 20.6148 13.1803 20.7421C13.2147 20.8694 13.2739 20.9887 13.3546 21.0931C13.4353 21.1974 13.5358 21.2848 13.6504 21.3501L14.5704 21.8801C14.9804 22.1301 15.5304 21.9801 15.7704 21.5601L15.8304 21.4601C16.3104 20.6301 17.0904 20.6301 17.5704 21.4601L17.6304 21.5601C17.8804 21.9801 18.4204 22.1301 18.8404 21.8801L19.7504 21.3501C20.0704 21.1701 20.2604 20.8301 20.2604 20.4801C20.2604 20.3101 20.2104 20.1401 20.1204 19.9801C19.9804 19.7401 19.9204 19.5101 19.9204 19.3101C19.9204 18.8101 20.3104 18.4701 20.9904 18.4701C21.5504 18.4701 22.0004 18.0201 22.0004 17.4701V16.5301C22.0004 15.9801 21.5504 15.5301 20.9904 15.5301ZM16.7004 18.7201C16.2442 18.7201 15.8067 18.5389 15.4842 18.2163C15.1616 17.8938 14.9804 17.4563 14.9804 17.0001C14.9804 16.5439 15.1616 16.1064 15.4842 15.7839C15.8067 15.4613 16.2442 15.2801 16.7004 15.2801C17.1566 15.2801 17.5941 15.4613 17.9166 15.7839C18.2392 16.1064 18.4204 16.5439 18.4204 17.0001C18.4204 17.4563 18.2392 17.8938 17.9166 18.2163C17.5941 18.5389 17.1566 18.7201 16.7004 18.7201Z" fill="white"/>
<path d="M16.25 10.02V10.592C16.25 10.927 15.805 11.138 15.48 11.06C14.98 10.93 14.48 11 14.07 11.25L13.16 11.78C12.8238 11.968 12.5493 12.2494 12.3697 12.5902C12.1901 12.9309 12.1131 13.3164 12.148 13.7C12.18 14.086 11.91 14.555 11.559 14.72C11.0742 14.9477 10.6995 15.3584 10.517 15.862C10.439 16.078 10.25 16.25 10.02 16.25C8.76 16.25 7.75 15.24 7.75 13.98V10.02C7.75 8.76 8.76 7.75 10.02 7.75H13.98C15.24 7.75 16.25 8.76 16.25 10.02Z" fill="white"/>
</svg>
