<svg width="24" height="24" viewBox="0 0 24 24" fill="none" xmlns="http://www.w3.org/2000/svg">
<path d="M14.8901 3.45H9.11008C8.71008 3.45 8.39008 3.13 8.39008 2.73C8.39008 2.33 8.71008 2 9.11008 2H14.8901C15.2901 2 15.6101 2.32 15.6101 2.72C15.6101 3.12 15.2901 3.45 14.8901 3.45ZM14.0001 19.968V17.028C14.0001 15.218 15.2201 13.998 17.0301 13.998H19.9701C20.2001 13.998 20.4201 14.018 20.6301 14.058C20.6501 13.818 20.6701 13.578 20.6701 13.328C20.6701 8.538 16.7801 4.648 12.0001 4.648C7.22008 4.648 3.33008 8.538 3.33008 13.328C3.33008 18.108 7.22008 21.998 12.0001 21.998C12.8501 21.998 13.6601 21.858 14.4401 21.638C14.1441 21.1318 13.9919 20.5543 14.0001 19.968ZM12.7501 12.998C12.7501 13.408 12.4101 13.748 12.0001 13.748C11.5901 13.748 11.2501 13.408 11.2501 12.998V7.998C11.2501 7.588 11.5901 7.248 12.0001 7.248C12.4101 7.248 12.7501 7.588 12.7501 7.998V12.998Z" fill="white"/>
<path d="M19.97 15H17.04C15.76 15 15 15.76 15 17.03V19.97C15 21.24 15.76 22 17.04 22H19.97C21.24 22 22 21.24 22 19.97V17.03C22 15.76 21.24 15 19.97 15ZM17.92 20.06C17.92 20.38 17.66 20.64 17.33 20.64C17.1762 20.64 17.0286 20.5789 16.9199 20.4701C16.8111 20.3614 16.75 20.2138 16.75 20.06V16.94C16.75 16.62 17.01 16.36 17.33 16.36C17.66 16.36 17.92 16.62 17.92 16.94V20.06ZM20.25 20.06C20.25 20.38 19.99 20.64 19.67 20.64C19.35 20.64 19.08 20.38 19.08 20.06V16.94C19.08 16.62 19.35 16.36 19.67 16.36C19.99 16.36 20.25 16.62 20.25 16.94V20.06Z" fill="white"/>
</svg>
