<svg width="24" height="24" viewBox="0 0 24 24" fill="none" xmlns="http://www.w3.org/2000/svg">
<path d="M21.5609 10.7425L20.2009 9.1625C19.9409 8.8625 19.7309 8.3025 19.7309 7.9025V6.2025C19.7309 5.1425 18.8609 4.2725 17.8009 4.2725H16.1009C15.7109 4.2725 15.1409 4.0625 14.8409 3.8025L13.2609 2.4425C12.5709 1.8525 11.4409 1.8525 10.7409 2.4425L9.17086 3.8125C8.87086 4.0625 8.30086 4.2725 7.91086 4.2725H6.18086C5.12086 4.2725 4.25086 5.1425 4.25086 6.2025V7.9125C4.25086 8.3025 4.04086 8.8625 3.79086 9.1625L2.44086 10.7525C1.86086 11.4425 1.86086 12.5625 2.44086 13.2525L3.79086 14.8425C4.04086 15.1425 4.25086 15.7025 4.25086 16.0925V17.8025C4.25086 18.8625 5.12086 19.7325 6.18086 19.7325H7.91086C8.30086 19.7325 8.87086 19.9425 9.17086 20.2025L10.7509 21.5625C11.4409 22.1525 12.5709 22.1525 13.2709 21.5625L14.8509 20.2025C15.1509 19.9425 15.7109 19.7325 16.1109 19.7325H17.8109C18.8709 19.7325 19.7409 18.8625 19.7409 17.8025V16.1025C19.7409 15.7125 19.9509 15.1425 20.2109 14.8425L21.5709 13.2625C22.1509 12.5725 22.1509 11.4325 21.5609 10.7425ZM16.6809 12.0025L15.5109 15.5625C15.3609 16.1525 14.7309 16.6325 14.0909 16.6325H12.2409C11.9209 16.6325 11.4709 16.5225 11.2709 16.3225L9.80086 15.1725C9.77086 15.8125 9.48086 16.0825 8.77086 16.0825H8.29086C7.55086 16.0825 7.25086 15.7925 7.25086 15.0925V10.3125C7.25086 9.6125 7.55086 9.3225 8.29086 9.3225H8.78086C9.52086 9.3225 9.82086 9.6125 9.82086 10.3125V10.6725L11.7609 7.7925C11.9609 7.4825 12.4709 7.2625 12.9009 7.4325C13.3709 7.5925 13.6709 8.1125 13.5709 8.5725L13.3309 10.1325C13.3109 10.2725 13.3409 10.4025 13.4309 10.5025C13.5109 10.5925 13.6309 10.6525 13.7609 10.6525H15.7109C16.0909 10.6525 16.4109 10.8025 16.6009 11.0725C16.7709 11.3325 16.8009 11.6625 16.6809 12.0025Z" fill="white"/>
</svg>
