<svg width="40" height="40" viewBox="0 0 40 40" fill="none" xmlns="http://www.w3.org/2000/svg">
<g clip-path="url(#clip0_438_776)">
<path d="M21.1508 33.0142V33.0848L21.2174 33.1084C22.5427 33.5785 23.4946 34.8445 23.4946 36.3284V38.8284C23.4946 39.4204 23.0147 39.9003 22.4227 39.9003H1.17187C0.579824 39.9003 0.1 39.4204 0.1 38.8284V36.3284C0.1 34.8445 1.05186 33.5785 2.37717 33.1084L2.44374 33.0848V33.0142V31.4892C2.44374 29.6893 3.90835 28.225 5.70829 28.225H17.8863C19.6862 28.225 21.1508 29.6893 21.1508 31.4892V33.0142ZM18.9071 32.9128H19.0071V32.8128V31.4892C19.0071 30.8712 18.5042 30.3687 17.8863 30.3687H5.70829C5.09032 30.3687 4.58779 30.8713 4.58779 31.4892V32.8128V32.9128H4.68779H18.9071ZM21.2508 37.7565H21.3508V37.6565V36.3284C21.3508 35.6268 20.7802 35.0565 20.0787 35.0565H3.51561C2.81435 35.0565 2.24374 35.6268 2.24374 36.3284V37.6565V37.7565H2.34374H21.2508Z" fill="white" stroke="#1457ED" stroke-width="0.2"/>
<path d="M19.7807 21.768L19.6871 21.7839L19.6982 21.8782C19.8352 23.0464 19.3674 24.2547 18.3625 25.0112L18.4227 25.0911L18.3625 25.0112C16.8535 26.1473 14.7085 25.8366 13.5792 24.3366L7.94017 16.8467L7.86028 16.9069L7.94017 16.8467C6.80458 15.3385 7.10639 13.199 8.61469 12.0634C9.61681 11.3092 10.8998 11.1845 11.9955 11.6439L12.083 11.6806L12.1242 11.5951C14.0548 7.58895 17.7924 4.77535 22.1763 4.02854L22.2699 4.01259L22.2589 3.9183C22.1218 2.7502 22.5896 1.54213 23.5945 0.785679L23.5344 0.705787L23.5945 0.785675C25.0991 -0.347179 27.245 -0.0447359 28.3778 1.4599L34.0169 8.9498C35.1497 10.4544 34.847 12.6003 33.3423 13.7331L33.4025 13.813L33.3423 13.7331C32.3487 14.4814 31.0598 14.6117 29.9622 14.1514L29.8746 14.1147L29.8334 14.2002C29.3932 15.1143 28.8584 15.966 28.244 16.7455L28.1963 16.806L28.2427 16.8676L39.2146 31.4412C40.3474 32.9458 40.0447 35.0917 38.5404 36.2245C37.0319 37.36 34.8866 37.0508 33.757 35.55L33.6771 35.6101L33.757 35.55L22.7848 20.9764L22.7384 20.9148L22.6671 20.9439C21.7479 21.3193 20.7811 21.5977 19.7807 21.768ZM26.7737 18.481L26.7082 18.394L26.6271 18.4666C26.0481 18.985 25.4265 19.4534 24.7681 19.8663L24.6759 19.9242L24.7414 20.0112L26.3063 22.0894L26.3665 22.1693L26.4464 22.1091L28.3189 20.6995L28.3988 20.6394L28.3386 20.5595L26.7737 18.481ZM27.7357 23.8219L27.6558 23.8821L27.7159 23.962L35.4695 34.2607C35.8915 34.8212 36.6903 34.9338 37.2508 34.5117L37.1906 34.4319L37.2508 34.5117C37.8109 34.0897 37.9239 33.291 37.5018 32.7305L29.7483 22.4321L29.6881 22.3522L29.6082 22.4123L27.7357 23.8219ZM26.6654 2.74952L26.6654 2.74949C26.2447 2.19109 25.4463 2.07506 24.8841 2.49843C24.3236 2.92015 24.211 3.71895 24.633 4.27941L30.2721 11.7693C30.695 12.331 31.4916 12.4433 32.053 12.0204C32.6135 11.5987 32.7261 10.7996 32.3041 10.2394L26.6654 2.74952ZM23.3094 6.0854L23.2751 6.03986L23.2185 6.04613C18.9985 6.5131 15.3897 9.22978 13.7746 13.1561L13.7529 13.2088L13.7871 13.2543L18.648 19.7112L18.6822 19.7567L18.7388 19.7504C22.9549 19.2841 26.5695 16.5619 28.1828 12.6401L28.2045 12.5875L28.1702 12.5419C27.6541 11.8568 23.8169 6.75982 23.3094 6.0854ZM17.0732 23.2984L17.0733 23.2984C17.6334 22.8764 17.746 22.0773 17.3243 21.5171L11.6853 14.0272C11.2617 13.4645 10.4644 13.3542 9.90429 13.7762C9.34261 14.1991 9.23034 14.9957 9.65292 15.5574L9.65294 15.5574L15.292 23.0473L15.292 23.0474C15.714 23.6075 16.5127 23.7201 17.0732 23.2984Z" fill="white" stroke="#1457ED" stroke-width="0.2"/>
</g>
<defs>
<clipPath id="clip0_438_776">
<rect width="40" height="40" fill="white"/>
</clipPath>
</defs>
</svg>
