<svg width="40" height="40" viewBox="0 0 40 40" fill="none" xmlns="http://www.w3.org/2000/svg">
<path d="M36.6673 14.9953V24.9953C36.6673 29.162 35.834 32.0786 33.9673 33.962L23.334 23.3286L36.2173 10.4453C36.5173 11.762 36.6673 13.262 36.6673 14.9953Z" stroke="white" stroke-width="2.5" stroke-linecap="round" stroke-linejoin="round"/>
<path d="M36.2173 10.4526L10.4507 36.2193C5.43398 35.0693 3.33398 31.6026 3.33398 25.0026V15.0026C3.33398 6.66927 6.66732 3.33594 15.0007 3.33594H25.0007C31.6007 3.33594 35.0673 5.43594 36.2173 10.4526Z" stroke="white" stroke-width="2.5" stroke-linecap="round" stroke-linejoin="round"/>
<path d="M33.9659 33.9693C32.0825 35.8359 29.1659 36.6693 24.9992 36.6693H14.9992C13.2659 36.6693 11.7659 36.5193 10.4492 36.2193L23.3326 23.3359L33.9659 33.9693Z" stroke="white" stroke-width="2.5" stroke-linecap="round" stroke-linejoin="round"/>
<path d="M10.4014 13.3031C11.5347 8.41979 18.8681 8.41979 20.0014 13.3031C20.6514 16.1698 18.8514 18.6031 17.2681 20.1031C16.7105 20.633 15.9706 20.9285 15.2014 20.9285C14.4322 20.9285 13.6923 20.633 13.1348 20.1031C11.5514 18.6031 9.73475 16.1698 10.4014 13.3031Z" stroke="white" stroke-width="2.5"/>
<path d="M15.1562 14.5H15.1712" stroke="white" stroke-width="3.33333" stroke-linecap="round" stroke-linejoin="round"/>
</svg>
