<svg width="40" height="40" viewBox="0 0 40 40" fill="none" xmlns="http://www.w3.org/2000/svg">
<path d="M10.8327 36.663H29.166M15.8327 23.3297H24.166M27.8327 31.6297H12.166C11.466 31.6297 10.6827 31.0797 10.4494 30.413L3.54936 11.113C2.56602 8.34636 3.71602 7.49635 6.08269 9.19635L12.5827 13.8464C13.666 14.5964 14.8994 14.213 15.366 12.9964L18.2994 5.17969C19.2327 2.67969 20.7827 2.67969 21.716 5.17969L24.6494 12.9964C25.116 14.213 26.3494 14.5964 27.416 13.8464L33.516 9.49635C36.116 7.62969 37.366 8.57969 36.2994 11.5964L29.566 30.4464C29.316 31.0797 28.5327 31.6297 27.8327 31.6297Z" stroke="white" stroke-width="2.5" stroke-linecap="round" stroke-linejoin="round"/>
</svg>
