<svg width="20" height="16" viewBox="0 0 20 16" fill="none" xmlns="http://www.w3.org/2000/svg">
<path d="M20 1.89471C19.251 2.22088 18.4567 2.43511 17.6434 2.5303C18.5002 2.02536 19.1414 1.23103 19.4474 0.295272C18.6423 0.76618 17.761 1.09762 16.842 1.27518C16.0662 0.460441 14.9819 -0.00126267 13.8475 2.59368e-06C11.5819 2.59368e-06 9.7443 1.80833 9.7443 4.03965C9.7443 4.3562 9.7812 4.66319 9.85017 4.95939C6.43861 4.79031 3.41629 3.18315 1.39191 0.738943C1.02742 1.3554 0.835866 2.05614 0.836837 2.7694C0.836837 4.17077 1.56147 5.40768 2.66221 6.13184C2.01061 6.11155 1.37337 5.93832 0.803615 5.62644C0.802987 5.64341 0.802987 5.66038 0.802987 5.67642C0.802987 7.63412 2.21745 9.26717 4.09517 9.63796C3.74275 9.73184 3.37925 9.77926 3.01417 9.77897C2.74902 9.77897 2.4917 9.75492 2.24159 9.70769C2.76407 11.3122 4.27851 12.4803 6.07473 12.5123C4.62119 13.6353 2.82625 14.2446 0.978504 14.242C0.651479 14.2422 0.324729 14.2232 0 14.1852C1.87587 15.3723 4.05938 16.0023 6.28942 16C13.8375 16 17.9646 9.84504 17.9646 4.50739C17.9646 4.33275 17.9603 4.15751 17.9525 3.98473C18.7557 3.41341 19.4491 2.70566 20 1.89471Z" fill="#7E8DA0"/>
</svg>
