<svg width="60" height="60" viewBox="0 0 60 60" fill="none" xmlns="http://www.w3.org/2000/svg">
<path d="M54.1504 26.1L51.7004 36.55C49.6004 45.575 45.4504 49.225 37.6504 48.475C36.4004 48.375 35.0504 48.15 33.6004 47.8L29.4004 46.8C18.9754 44.325 15.7504 39.175 18.2004 28.725L20.6504 18.25C21.1504 16.125 21.7504 14.275 22.5004 12.75C25.4254 6.70002 30.4004 5.07502 38.7504 7.05002L42.9254 8.02502C53.4004 10.475 56.6004 15.65 54.1504 26.1Z" stroke="#8290A0" stroke-width="3" stroke-linecap="round" stroke-linejoin="round"/>
<path d="M31.5996 21.3252L43.7246 24.4002M29.1496 31.0002L36.3996 32.8502M37.6496 48.4752C36.0996 49.5252 34.1496 50.4002 31.7746 51.1752L27.8246 52.4752C17.8996 55.6752 12.6746 53.0002 9.44963 43.0752L6.24963 33.2002C3.04963 23.2752 5.69963 18.0252 15.6246 14.8252L19.5746 13.5252C20.5996 13.2002 21.5746 12.9252 22.4996 12.7502C21.7496 14.2752 21.1496 16.1252 20.6496 18.2502L18.1996 28.7252C15.7496 39.1752 18.9746 44.3252 29.3996 46.8002L33.5996 47.8002C35.0496 48.1502 36.3996 48.3752 37.6496 48.4752Z" stroke="#8290A0" stroke-width="3" stroke-linecap="round" stroke-linejoin="round"/>
</svg>
