<svg width="60" height="60" viewBox="0 0 60 60" fill="none" xmlns="http://www.w3.org/2000/svg">
<path d="M6.2502 33.1002V28.7752C6.2502 23.6002 10.4752 19.3752 15.6502 19.3752H44.3502C49.5252 19.3752 53.7502 23.6002 53.7502 28.7752V32.3752H48.7002C47.3002 32.3752 46.0252 32.9252 45.1002 33.8752C44.0502 34.9002 43.4502 36.3752 43.6002 37.9502C43.8252 40.6502 46.3002 42.6252 49.0002 42.6252H53.7502V45.6002C53.7502 50.7752 49.5252 55.0002 44.3502 55.0002H30.6502" stroke="#8290A0" stroke-width="3" stroke-linecap="round" stroke-linejoin="round"/>
<path d="M6.2502 31.025V19.6C6.2502 16.625 8.0752 13.975 10.8502 12.925L30.7002 5.425C31.4194 5.15397 32.1937 5.06152 32.9565 5.15558C33.7193 5.24963 34.4479 5.52739 35.0797 5.96501C35.7116 6.40263 36.2278 6.98703 36.5841 7.66807C36.9403 8.3491 37.126 9.10641 37.1252 9.875V19.375M17.5002 30H35.0002M56.3977 34.925V40.075C56.3977 41.45 55.2977 42.575 53.8977 42.625H48.9977C46.2977 42.625 43.8227 40.65 43.5977 37.95C43.4477 36.375 44.0477 34.9 45.0977 33.875C46.0227 32.925 47.2977 32.375 48.6977 32.375H53.8977C55.2977 32.425 56.3977 33.55 56.3977 34.925Z" stroke="#8290A0" stroke-width="3" stroke-linecap="round" stroke-linejoin="round"/>
<path d="M7.5 41.25H20.85C22.45 41.25 23.75 42.55 23.75 44.15V47.35" stroke="#8290A0" stroke-width="3" stroke-miterlimit="10" stroke-linecap="round" stroke-linejoin="round"/>
<path d="M10.55 38.1997L7.5 41.2497L10.55 44.2997M23.75 54.4497H10.4C8.8 54.4497 7.5 53.1497 7.5 51.5497V48.3497" stroke="#8290A0" stroke-width="3" stroke-miterlimit="10" stroke-linecap="round" stroke-linejoin="round"/>
<path d="M20.7018 57.5001L23.7518 54.4501L20.7018 51.4001" stroke="#8290A0" stroke-width="3" stroke-miterlimit="10" stroke-linecap="round" stroke-linejoin="round"/>
</svg>
