<svg width="60" height="60" viewBox="0 0 60 60" fill="none" xmlns="http://www.w3.org/2000/svg">
<path d="M32.5 56.875H22.5C8.925 56.875 3.125 51.075 3.125 37.5V22.5C3.125 8.925 8.925 3.125 22.5 3.125H37.5C51.075 3.125 56.875 8.925 56.875 22.5V32.5C56.875 33.525 56.025 34.375 55 34.375C53.975 34.375 53.125 33.525 53.125 32.5V22.5C53.125 10.975 49.025 6.875 37.5 6.875H22.5C10.975 6.875 6.875 10.975 6.875 22.5V37.5C6.875 49.025 10.975 53.125 22.5 53.125H32.5C33.525 53.125 34.375 53.975 34.375 55C34.375 56.025 33.525 56.875 32.5 56.875Z" fill="#8290A0"/>
<path d="M55 47C55 45.4178 54.5308 43.871 53.6518 42.5554C52.7727 41.2398 51.5233 40.2145 50.0615 39.609C48.5997 39.0035 46.9911 38.845 45.4393 39.1537C43.8874 39.4624 42.462 40.2243 41.3431 41.3431C40.2243 42.462 39.4624 43.8874 39.1537 45.4393C38.845 46.9911 39.0035 48.5997 39.609 50.0615C40.2145 51.5233 41.2398 52.7727 42.5554 53.6518C43.871 54.5308 45.4178 55 47 55C49.121 54.9976 51.1544 54.154 52.6542 52.6542C54.154 51.1544 54.9976 49.121 55 47ZM49.9084 48.8171C49.9035 49.4241 49.6805 50.0091 49.28 50.4652C48.8796 50.9214 48.3285 51.2184 47.7273 51.3019V51.3636C47.7273 51.5565 47.6507 51.7415 47.5143 51.8779C47.3779 52.0143 47.1929 52.0909 47 52.0909C46.8071 52.0909 46.6221 52.0143 46.4857 51.8779C46.3494 51.7415 46.2727 51.5565 46.2727 51.3636V51.3185C45.6721 51.2611 45.1085 51.0021 44.6737 50.5838C44.2976 50.2001 44.0886 49.6832 44.0923 49.146C44.1016 48.9533 44.1871 48.7722 44.33 48.6425C44.4728 48.5129 44.6613 48.4452 44.854 48.4546C45.0467 48.4639 45.2278 48.5494 45.3575 48.6922C45.4872 48.8351 45.5548 49.0236 45.5455 49.2163C45.5629 49.3568 45.6285 49.4866 45.7312 49.5842C45.8857 49.7164 46.0726 49.8051 46.2727 49.8412V47.6668C45.6695 47.588 45.1156 47.2925 44.7143 46.8354C44.313 46.3783 44.0916 45.7907 44.0916 45.1824C44.0916 44.5741 44.313 43.9866 44.7143 43.5295C45.1156 43.0724 45.6695 42.7769 46.2727 42.6981V42.6364C46.2727 42.4435 46.3494 42.2585 46.4857 42.1221C46.6221 41.9857 46.8071 41.9091 47 41.9091C47.1929 41.9091 47.3779 41.9857 47.5143 42.1221C47.6507 42.2585 47.7273 42.4435 47.7273 42.6364V42.6817C48.3279 42.7392 48.8914 42.998 49.3264 43.4162C49.7024 43.7999 49.9114 44.3168 49.9077 44.8541C49.8926 45.0446 49.8054 45.2223 49.6639 45.3507C49.5223 45.4792 49.3371 45.5489 49.1459 45.5455C48.9564 45.5362 48.7781 45.4533 48.6488 45.3144C48.5196 45.1754 48.4498 44.9915 48.4542 44.8018C48.4422 44.6547 48.3762 44.5172 48.2688 44.4158C48.1143 44.2838 47.9274 44.1953 47.7273 44.1595V46.3332C48.3282 46.417 48.8791 46.7138 49.2795 47.1698C49.6798 47.6257 49.903 48.2104 49.9084 48.8171Z" fill="#8290A0"/>
<path d="M18.3249 38.1049C17.9249 38.1049 17.5249 37.9799 17.1749 37.7049C16.9796 37.5555 16.8156 37.3691 16.6923 37.1564C16.5689 36.9436 16.4887 36.7086 16.4562 36.4649C16.4237 36.2211 16.4396 35.9734 16.5028 35.7357C16.5661 35.4981 16.6755 35.2752 16.8249 35.0799L22.7749 27.3549C23.4999 26.4299 24.5249 25.8299 25.6999 25.6799C26.8749 25.5299 28.0249 25.8549 28.9499 26.5799L33.5249 30.1799C33.6999 30.3299 33.8749 30.3049 33.9999 30.3049C34.0999 30.3049 34.2749 30.2549 34.4249 30.0549L40.1999 22.6049C40.8249 21.7799 41.9999 21.6299 42.8249 22.2799C43.6499 22.9049 43.7999 24.0799 43.1499 24.9049L37.3749 32.3549C36.6499 33.2799 35.6249 33.8799 34.4499 34.0049C33.2999 34.1549 32.1249 33.8299 31.2249 33.1049L26.6499 29.5049C26.5859 29.4487 26.5096 29.4081 26.4272 29.3864C26.3447 29.3647 26.2584 29.3625 26.1749 29.3799C26.0749 29.3799 25.8999 29.4299 25.7499 29.6299L19.7999 37.3549C19.4499 37.8549 18.8999 38.1049 18.3249 38.1049Z" fill="#8290A0"/>
</svg>
