<svg width="60" height="60" viewBox="0 0 60 60" fill="none" xmlns="http://www.w3.org/2000/svg">
<path d="M5 25H55" stroke="#8290A0" stroke-width="3" stroke-miterlimit="10" stroke-linecap="round" stroke-linejoin="round"/>
<path d="M28.8695 51.2494H16.0945C7.21948 51.2494 4.96948 49.0494 4.96948 40.2744V19.7244C4.96948 11.7744 6.81948 9.22441 13.7945 8.82441C14.4945 8.79941 15.2695 8.77441 16.0945 8.77441H43.8695C52.7445 8.77441 54.9945 10.9744 54.9945 19.7494V30.7744" stroke="#8290A0" stroke-width="3" stroke-linecap="round" stroke-linejoin="round"/>
<path d="M15 40H25M55 45C55 46.875 54.475 48.65 53.55 50.15C52.6687 51.6312 51.4168 52.8574 49.9176 53.7078C48.4184 54.5582 46.7236 55.0036 45 55C43.2764 55.0036 41.5816 54.5582 40.0824 53.7078C38.5832 52.8574 37.3313 51.6312 36.45 50.15C35.4984 48.6011 34.9963 46.8179 35 45C35 39.475 39.475 35 45 35C50.525 35 55 39.475 55 45Z" stroke="#8290A0" stroke-width="3" stroke-miterlimit="10" stroke-linecap="round" stroke-linejoin="round"/>
<path d="M41.1023 45L43.5773 47.475L48.9023 42.55" stroke="#8290A0" stroke-width="3" stroke-linecap="round" stroke-linejoin="round"/>
</svg>
