<svg width="60" height="60" viewBox="0 0 60 60" fill="none" xmlns="http://www.w3.org/2000/svg">
<path d="M29.9984 43.2414C38.1294 43.2414 44.7445 36.6277 44.7445 28.4984C44.7401 24.5888 43.1851 20.8407 40.4206 18.0762C37.6561 15.3117 33.9079 13.7567 29.9984 13.7522C21.8691 13.7522 15.2555 20.3674 15.2555 28.4984C15.2618 32.218 16.6684 35.7988 19.1953 38.5282L17.6704 44.2174C17.5803 44.5532 17.5919 44.9083 17.7037 45.2375C17.8154 45.5668 18.0224 45.8556 18.2983 46.0672C18.5742 46.2789 18.9067 46.404 19.2537 46.4266C19.6007 46.4493 19.9466 46.3685 20.2477 46.1945L26.2119 42.7483C27.4473 43.0764 28.7202 43.2422 29.9984 43.2414ZM25.1061 39.3274L22.1658 41.0266L22.8534 38.4613C22.9361 38.153 22.9332 37.8279 22.8451 37.521C22.757 37.2142 22.587 36.9371 22.3533 36.7196C21.2182 35.6731 20.3136 34.4017 19.6968 32.9864C19.0801 31.5711 18.7648 30.0428 18.7711 28.499C18.7719 26.1291 19.5229 23.8202 20.9165 21.9033C22.31 19.9864 24.2746 18.5598 26.5286 17.8279C28.7827 17.096 31.2106 17.0965 33.4644 17.8291C35.7183 18.5617 37.6824 19.989 39.0752 21.9064C40.4681 23.8238 41.2183 26.1329 41.2184 28.5028C41.2184 30.8727 40.4682 33.1818 39.0754 35.0993C37.6826 37.0167 35.7185 38.444 33.4647 39.1767C31.2109 39.9094 28.783 39.9099 26.5289 39.1781C26.2946 39.1018 26.0468 39.0756 25.8017 39.1012C25.5566 39.1269 25.3196 39.2042 25.1061 39.3274ZM59.0391 29.7538C59.0582 29.0345 59.078 28.2908 59.0436 27.5164C58.9509 25.3529 58.0222 23.3098 56.4531 21.8173C54.8841 20.3248 52.7971 19.4994 50.6317 19.5149C47.1563 11.5636 39.2162 5.99243 29.9984 5.99243C20.7805 5.99243 12.8438 11.5635 9.36821 19.5148C7.20327 19.4994 5.1168 20.3245 3.54791 21.8164C1.97902 23.3083 1.05009 25.3507 0.956608 27.5137C0.922155 28.2909 0.94196 29.0348 0.961061 29.7542C0.981335 30.5143 1.00219 31.3002 0.96317 32.1835C0.870116 34.3978 1.65897 36.5586 3.15674 38.1922C4.65452 39.8257 6.73897 40.7986 8.95301 40.8975C9.08411 40.9036 9.21493 40.9067 9.34547 40.9067C10.449 40.9074 11.5415 40.6866 12.5582 40.2575C12.983 40.0795 13.3208 39.7417 13.4986 39.3168C13.6765 38.892 13.6803 38.4143 13.509 37.9867C13.4878 37.9038 13.4553 37.8241 13.4125 37.7499C11.8376 34.9207 11.0111 31.7364 11.0112 28.4984C11.0112 18.0271 19.5288 9.50806 29.9984 9.50806C40.4679 9.50806 48.9888 18.0276 48.9888 28.4984C49.0011 32.9307 47.4577 37.2268 44.6276 40.6379C41.7975 44.049 37.8601 46.3588 33.5017 47.1649C33.0426 46.1257 32.2348 45.2796 31.2181 44.7729C30.2013 44.2661 29.0395 44.1305 27.9334 44.3895C26.8272 44.6484 25.8463 45.2857 25.1602 46.1912C24.4741 47.0966 24.1259 48.2134 24.1758 49.3483C24.2257 50.4832 24.6706 51.5651 25.4335 52.4068C26.1964 53.2486 27.2294 53.7974 28.354 53.9583C29.4786 54.1192 30.6241 53.8821 31.5924 53.2881C32.5608 52.6941 33.2911 51.7804 33.6573 50.705C36.7534 50.1928 39.7084 49.0399 42.3332 47.32C44.958 45.6001 47.1949 43.3511 48.9005 40.717C49.476 40.8428 50.0634 40.9064 50.6525 40.9068C50.7817 40.9068 50.9112 40.9038 51.041 40.8979C52.1384 40.8507 53.2157 40.5877 54.2115 40.1241C55.2073 39.6604 56.1019 39.0052 56.8444 38.1957C57.5869 37.3863 58.1627 36.4385 58.5388 35.4065C58.915 34.3745 59.0842 33.2785 59.0367 32.1811C58.9978 31.3007 59.0188 30.514 59.0391 29.7538ZM9.10934 37.3854C7.82588 37.3288 6.61727 36.7654 5.74858 35.8189C4.87988 34.8724 4.42202 33.62 4.4754 32.3364C4.51981 31.3311 4.49626 30.4437 4.4754 29.6607C4.45712 28.9722 4.44024 28.322 4.46895 27.6668C4.51433 26.6229 4.89557 25.6216 5.55592 24.8118C6.21627 24.0021 7.12045 23.4272 8.13387 23.1727C7.02588 27.7283 7.36588 32.516 9.10653 36.8692L9.10442 36.8701C9.17286 37.0444 9.24352 37.218 9.31641 37.3907C9.2479 37.3904 9.17887 37.3886 9.10934 37.3854ZM29.045 50.4918C28.7765 50.4918 28.5139 50.4122 28.2905 50.263C28.0672 50.1138 27.8931 49.9018 27.7903 49.6536C27.6875 49.4055 27.6605 49.1325 27.7129 48.869C27.7652 48.6056 27.8945 48.3636 28.0844 48.1736C28.2743 47.9837 28.5162 47.8543 28.7796 47.8018C29.0431 47.7493 29.3161 47.7762 29.5643 47.8789C29.8125 47.9816 30.0246 48.1556 30.1739 48.3789C30.3232 48.6021 30.4029 48.8647 30.403 49.1333V49.1358C30.4021 49.4955 30.2587 49.8402 30.0042 50.0944C29.7496 50.3485 29.4047 50.4914 29.045 50.4918ZM55.5245 32.334C55.5519 32.9704 55.4536 33.6059 55.2352 34.2043C55.0168 34.8027 54.6826 35.3522 54.2517 35.8214C53.8208 36.2905 53.3017 36.6702 52.724 36.9386C52.1463 37.207 51.5214 37.3589 50.8849 37.3857C50.8174 37.3889 50.7501 37.3906 50.6829 37.3908C50.6858 37.3843 50.6863 37.3769 50.6842 37.3701C52.6033 32.89 53.018 27.9085 51.8661 23.1728C52.88 23.4273 53.7845 24.0026 54.4449 24.8128C55.1054 25.6231 55.4864 26.6251 55.5312 27.6694C55.5601 28.3219 55.5429 28.9721 55.5246 29.6604C55.5038 30.4435 55.4801 31.3309 55.5245 32.334ZM25.8914 28.3261C25.8971 28.3834 25.8998 28.4409 25.8996 28.4984C25.8998 28.5563 25.8971 28.6142 25.8914 28.6718C25.8856 28.7281 25.8762 28.7855 25.8656 28.8418C25.8551 28.898 25.8398 28.9543 25.8234 29.0093C25.807 29.0644 25.7871 29.1183 25.7648 29.1711C25.7426 29.2238 25.718 29.2765 25.691 29.3269C25.6641 29.3773 25.6348 29.4265 25.6031 29.4746C25.5718 29.5226 25.5378 29.5688 25.5012 29.6129C25.4648 29.6586 25.425 29.7008 25.3852 29.7418C25.3442 29.7826 25.3011 29.8213 25.2563 29.8578C25.2117 29.8941 25.1648 29.9281 25.118 29.9609C25.0699 29.9914 25.0207 30.0218 24.9691 30.0488C24.919 30.0758 24.8673 30.1001 24.8145 30.1215C24.7616 30.1437 24.7076 30.1633 24.6527 30.18C24.5977 30.1965 24.5414 30.2105 24.4852 30.2222C24.429 30.2337 24.3723 30.2423 24.3152 30.248C24.1999 30.259 24.0837 30.259 23.9684 30.248C23.9113 30.2423 23.8546 30.2337 23.7984 30.2222C23.7422 30.2105 23.6859 30.1965 23.6309 30.18C23.576 30.1633 23.522 30.1437 23.4691 30.1215C23.4163 30.1001 23.3646 30.0758 23.3145 30.0488C23.2629 30.0218 23.2137 29.9914 23.1656 29.9609C23.1188 29.9281 23.0719 29.8941 23.0273 29.8578C22.9825 29.8213 22.9394 29.7826 22.8984 29.7418C22.8586 29.7008 22.8188 29.6586 22.7824 29.6129C22.7458 29.5688 22.7118 29.5226 22.6805 29.4746C22.6492 29.4265 22.6199 29.3773 22.5926 29.3269C22.5656 29.2765 22.541 29.2238 22.5188 29.1711C22.4965 29.1183 22.4777 29.0644 22.4602 29.0093C22.4426 28.9543 22.4297 28.898 22.418 28.8418C22.4063 28.7855 22.3981 28.7293 22.3922 28.6718C22.3863 28.6144 22.384 28.5558 22.384 28.4984C22.384 28.441 22.3875 28.3836 22.3922 28.3261C22.3969 28.2687 22.4074 28.2113 22.418 28.155C22.4285 28.0988 22.4438 28.0437 22.4602 27.9886C22.4766 27.9336 22.4965 27.8797 22.5188 27.8269C22.541 27.7742 22.5656 27.7215 22.5926 27.6711C22.6467 27.5696 22.7102 27.4735 22.7824 27.384C22.8188 27.3394 22.8586 27.2961 22.8984 27.2562C22.9394 27.2154 22.9825 27.1767 23.0273 27.1402C23.0719 27.1039 23.1188 27.0687 23.1656 27.0371C23.2137 27.0053 23.2634 26.976 23.3145 26.9492C23.3648 26.9222 23.4164 26.8976 23.4691 26.8754C23.5219 26.8543 23.577 26.8343 23.6309 26.8179C23.686 26.801 23.7419 26.7869 23.7984 26.7758C24.025 26.7297 24.2586 26.7297 24.4852 26.7758C24.5417 26.7869 24.5976 26.801 24.6527 26.8179C24.7066 26.8343 24.7617 26.8543 24.8145 26.8754C24.8672 26.8965 24.9188 26.9222 24.9691 26.9492C25.0202 26.976 25.0699 27.0053 25.118 27.0371C25.1648 27.0687 25.2117 27.1039 25.2563 27.1402C25.3011 27.1767 25.3442 27.2154 25.3852 27.2562C25.425 27.2961 25.4648 27.3394 25.5012 27.384C25.5734 27.4735 25.6369 27.5696 25.691 27.6711C25.718 27.7215 25.7426 27.7742 25.7648 27.8269C25.7871 27.8797 25.8059 27.9336 25.8234 27.9886C25.841 28.0437 25.8539 28.1 25.8656 28.155C25.8773 28.2101 25.8856 28.2687 25.8914 28.3261ZM28.2422 28.4984C28.242 28.2677 28.2873 28.0391 28.3755 27.8259C28.4636 27.6126 28.593 27.4189 28.7561 27.2556C28.9191 27.0924 29.1128 26.9629 29.326 26.8745C29.5391 26.7861 29.7676 26.7406 29.9984 26.7406H30.0016C30.3492 26.7409 30.6889 26.8443 30.9778 27.0376C31.2666 27.231 31.4917 27.5056 31.6245 27.8269C31.7573 28.1481 31.7919 28.5015 31.7238 28.8423C31.6558 29.1832 31.4883 29.4963 31.2424 29.7419C30.9965 29.9876 30.6833 30.1549 30.3423 30.2226C30.0014 30.2903 29.648 30.2554 29.3269 30.1223C29.0058 29.9892 28.7314 29.7639 28.5383 29.4748C28.3452 29.1858 28.2422 28.846 28.2422 28.4984ZM34.1086 28.6714C34.1029 28.6137 34.1002 28.5559 34.1004 28.4979C34.1002 28.4404 34.1029 28.3829 34.1086 28.3257C34.1145 28.2683 34.1238 28.2108 34.1344 28.1546C34.1449 28.0983 34.1602 28.0433 34.1766 27.9882C34.1931 27.9332 34.2127 27.8792 34.2352 27.8265C34.2563 27.7737 34.282 27.721 34.3078 27.6706C34.3629 27.5694 34.4268 27.4734 34.4988 27.3835C34.5352 27.339 34.575 27.2956 34.6148 27.2558C34.6558 27.2149 34.6989 27.1762 34.7438 27.1397C34.7879 27.1028 34.834 27.0683 34.882 27.0366C34.9301 27.0054 34.9793 26.9761 35.0297 26.9487C35.0801 26.9218 35.1328 26.8972 35.1856 26.8749C35.2383 26.8526 35.2934 26.8339 35.3473 26.8175C35.4024 26.8005 35.4583 26.7864 35.5148 26.7753C35.6844 26.7408 35.8583 26.7321 36.0305 26.7495C36.0879 26.7551 36.145 26.7637 36.2016 26.7753C36.2578 26.7863 36.3133 26.8004 36.368 26.8175C36.4231 26.8339 36.4781 26.8538 36.5309 26.8749C36.5836 26.896 36.6352 26.9218 36.6856 26.9487C36.7366 26.9755 36.7863 27.0048 36.8344 27.0366C36.8813 27.0683 36.9281 27.1034 36.9727 27.1397C37.0174 27.1759 37.0601 27.2147 37.1004 27.2558C37.1414 27.2956 37.1801 27.339 37.2176 27.3835C37.2527 27.428 37.2879 27.4749 37.3195 27.5229C37.3513 27.5706 37.3807 27.6199 37.4074 27.6706C37.4344 27.721 37.459 27.7737 37.4813 27.8265C37.5034 27.8793 37.5225 27.9333 37.5387 27.9882C37.5562 28.0427 37.5703 28.0983 37.5809 28.1546C37.593 28.211 37.6016 28.2682 37.6066 28.3257C37.6127 28.3829 37.6158 28.4404 37.616 28.4979C37.6158 28.5559 37.6127 28.6138 37.6066 28.6714C37.6015 28.7285 37.5929 28.7852 37.5809 28.8413C37.5703 28.898 37.5562 28.9539 37.5387 29.0089C37.5223 29.0637 37.5032 29.1177 37.4813 29.1706C37.459 29.2233 37.4344 29.2761 37.4074 29.3265C37.3805 29.3768 37.3512 29.4261 37.3195 29.4741C37.2879 29.5222 37.2527 29.569 37.2176 29.6124C37.1801 29.6581 37.1414 29.7003 37.1004 29.7413C37.0601 29.7824 37.0174 29.8211 36.9727 29.8573C36.9281 29.8936 36.8813 29.9276 36.8344 29.9593C36.7863 29.9914 36.7366 30.0212 36.6856 30.0483C36.6354 30.0754 36.5837 30.0996 36.5309 30.121C36.4777 30.1435 36.4233 30.163 36.368 30.1796C36.3141 30.196 36.2578 30.21 36.2016 30.2218C36.0886 30.2447 35.9735 30.2561 35.8582 30.2558C35.8003 30.2559 35.7424 30.2532 35.6848 30.2475C35.6277 30.2418 35.571 30.2332 35.5148 30.2218C35.4586 30.21 35.4024 30.196 35.3473 30.1796C35.2924 30.1628 35.2384 30.1433 35.1856 30.121C35.1323 30.0996 35.0803 30.0754 35.0297 30.0483C34.9793 30.0214 34.9301 29.9909 34.882 29.9593C34.834 29.9279 34.7879 29.8939 34.7438 29.8573C34.6989 29.8208 34.6558 29.7821 34.6148 29.7413C34.575 29.7003 34.5352 29.6581 34.4988 29.6124C34.4622 29.5683 34.4282 29.5221 34.3969 29.4741C34.3652 29.4261 34.3348 29.3768 34.3078 29.3265C34.2809 29.2761 34.2563 29.2233 34.2352 29.1706C34.2129 29.1177 34.1933 29.0638 34.1766 29.0089C34.1602 28.9538 34.1461 28.8975 34.1344 28.8413C34.1227 28.785 34.1145 28.7276 34.1086 28.6714Z" fill="#8290A0" stroke="white" stroke-width="0.5"/>
</svg>
