<svg width="60" height="60" viewBox="0 0 60 60" fill="none" xmlns="http://www.w3.org/2000/svg">
<path d="M57.5 39.9255C57.5 49.6005 49.675 57.4255 40 57.4255L42.625 53.0505M2.5 19.9255C2.5 10.2505 10.325 2.42554 20 2.42554L17.375 6.80054" stroke="#8290A0" stroke-width="3" stroke-linecap="round" stroke-linejoin="round"/>
<path d="M16.5503 38.3255H23.5753C25.1503 38.3255 26.4003 37.0505 26.4003 35.5005C26.4003 34.0755 25.1253 32.6755 23.5753 32.6755H16.5503V38.3255ZM16.5503 38.3255H24.6003C26.3753 38.3255 27.8253 39.5755 27.8253 41.1505C27.8253 42.7005 26.3753 43.9755 24.6003 43.9755H16.5503V38.3255ZM21.0503 43.9505V46.7505M21.0503 29.8755V32.6755" stroke="#8290A0" stroke-width="3" stroke-miterlimit="10" stroke-linecap="round" stroke-linejoin="round"/>
<path d="M37.125 38.3254C37.125 46.8504 30.225 53.7504 21.7 53.7504C13.175 53.7504 6.27502 46.8504 6.27502 38.3254C6.27502 29.8004 13.175 22.9004 21.7 22.9004C22.1 22.9004 22.475 22.9254 22.9 22.9504C30.475 23.5254 36.525 29.5754 37.1 37.1504C37.1 37.5254 37.125 37.9004 37.125 38.3254Z" stroke="#8290A0" stroke-width="3" stroke-miterlimit="10" stroke-linecap="round" stroke-linejoin="round"/>
<path d="M53.7498 21.675C53.7498 30.2 46.8498 37.1 38.3248 37.1H37.0998C36.8161 33.4283 35.2289 29.979 32.6248 27.3749C30.0208 24.7709 26.5715 23.1837 22.8998 22.9V21.675C22.8998 13.15 29.7998 6.25 38.3248 6.25C46.8498 6.25 53.7498 13.15 53.7498 21.675Z" stroke="#8290A0" stroke-width="3" stroke-miterlimit="10" stroke-linecap="round" stroke-linejoin="round"/>
</svg>
