<svg width="17" height="20" viewBox="0 0 17 20" fill="none" xmlns="http://www.w3.org/2000/svg">
<path d="M15.8862 8.36266C15.8862 14.0899 8.48679 18.999 8.48679 18.999C8.48679 18.999 1.0874 14.0899 1.0874 8.36266C1.0874 6.4097 1.86698 4.53673 3.25463 3.15578C4.64228 1.77483 6.52435 0.999023 8.48679 0.999023C10.4492 0.999023 12.3313 1.77483 13.7189 3.15578C15.1066 4.53673 15.8862 6.4097 15.8862 8.36266Z" stroke="white" stroke-width="1.5" stroke-linecap="round" stroke-linejoin="round"/>
<path d="M8.48672 10.8173C9.84891 10.8173 10.9532 9.71836 10.9532 8.36275C10.9532 7.00714 9.84891 5.9082 8.48672 5.9082C7.12454 5.9082 6.02026 7.00714 6.02026 8.36275C6.02026 9.71836 7.12454 10.8173 8.48672 10.8173Z" stroke="white" stroke-width="1.5" stroke-linecap="round" stroke-linejoin="round"/>
</svg>
