<svg width="60" height="60" viewBox="0 0 60 60" fill="none" xmlns="http://www.w3.org/2000/svg">
<g clip-path="url(#clip0_157_1357)">
<path d="M36.2632 59.9999C38.2693 59.9999 40.0188 58.2504 40.0188 56.2443V47.4733H42.5265C44.0313 47.4733 45.0341 46.4701 45.0341 44.9656V19.9146H14.9658V44.9659C14.9658 46.4704 15.9689 47.4735 17.4735 47.4735H19.9814V56.2445C19.9814 58.2507 21.7304 60.0001 23.737 60.0001C25.7429 60.0001 27.4923 58.2507 27.4923 56.2445V47.4735H32.5078V56.2445C32.5075 58.2504 34.257 59.9999 36.2632 59.9999Z" fill="#A6D864"/>
<path d="M51.2976 44.9659C53.3037 44.9659 55.0529 43.2166 55.0529 41.2102V23.6685C55.0529 21.6729 53.3038 19.9146 51.2976 19.9146C49.2912 19.9146 47.542 21.6731 47.542 23.6685V41.2102C47.542 43.2164 49.2911 44.9659 51.2976 44.9659Z" fill="#A6D864"/>
<path d="M8.70252 44.9659C10.7089 44.9659 12.4581 43.2166 12.4581 41.2102V23.6685C12.4581 21.6729 10.7091 19.9146 8.70252 19.9146C6.6964 19.9146 4.94727 21.6731 4.94727 23.6685V41.2102C4.94738 43.2164 6.6964 44.9659 8.70252 44.9659Z" fill="#A6D864"/>
<path d="M42.0245 0.378368C41.5232 -0.126123 40.7769 -0.126123 40.2755 0.378368L36.9121 3.7305L36.757 3.88542C34.7627 2.88676 32.5266 2.38801 30.0367 2.3832C30.0245 2.3832 30.0124 2.38285 30.0002 2.38285H29.9999C29.9872 2.38285 29.9756 2.3832 29.9631 2.3832C27.4732 2.38801 25.2373 2.88676 23.2431 3.88542L23.0876 3.7305L19.7242 0.378368C19.2225 -0.126123 18.4765 -0.126123 17.9752 0.378368C17.4735 0.880045 17.4735 1.62465 17.9752 2.12598L21.2286 5.38003C20.1803 6.07999 19.2297 6.93651 18.403 7.91619C16.424 10.262 15.1615 13.3151 14.988 16.6231C14.9863 16.6575 14.9829 16.6915 14.9814 16.726C14.9707 16.9512 14.9658 17.1776 14.9658 17.4049H45.034C45.034 17.1777 45.0286 16.9513 45.0184 16.726C45.0168 16.6915 45.0134 16.6575 45.0114 16.6231C44.8382 13.3151 43.5755 10.2619 41.5963 7.91642C40.7701 6.93674 39.8191 6.08022 38.7707 5.38026L42.0245 2.12621C42.5263 1.62465 42.5263 0.880163 42.0245 0.378368ZM23.7321 13.0265C22.6947 13.0265 21.8535 12.1854 21.8535 11.1479C21.8535 10.1103 22.6945 9.26923 23.7321 9.26923C24.7696 9.26923 25.6107 10.1103 25.6107 11.1479C25.6107 12.1854 24.7696 13.0265 23.7321 13.0265ZM36.2676 13.0265C35.2302 13.0265 34.389 12.1854 34.389 11.1479C34.389 10.1103 35.23 9.26923 36.2676 9.26923C37.3051 9.26923 38.1462 10.1103 38.1462 11.1479C38.1462 12.1854 37.3052 13.0265 36.2676 13.0265Z" fill="#A6D864"/>
</g>
<defs>
<clipPath id="clip0_157_1357">
<rect width="60" height="60" fill="white"/>
</clipPath>
</defs>
</svg>
