<svg width="20" height="20" viewBox="0 0 20 20" fill="none" xmlns="http://www.w3.org/2000/svg">
<path d="M12.281 4.43937C13.1267 4.60327 13.904 5.01413 14.5134 5.61935C15.1227 6.22458 15.5363 6.99664 15.7013 7.83671M12.281 0.999023C14.0382 1.19292 15.6767 1.97451 16.9277 3.21547C18.1786 4.45644 18.9676 6.08301 19.165 7.82811M18.2991 14.6916V17.2719C18.3001 17.5114 18.2507 17.7485 18.1541 17.968C18.0575 18.1875 17.9158 18.3845 17.7381 18.5464C17.5603 18.7083 17.3506 18.8316 17.1221 18.9084C16.8937 18.9851 16.6516 19.0136 16.4114 18.992C13.7468 18.7045 11.1873 17.8001 8.93853 16.3516C6.84633 15.0311 5.07251 13.2692 3.74303 11.1911C2.27961 8.94726 1.3689 6.39262 1.08467 3.7341C1.06303 3.49626 1.09148 3.25655 1.16823 3.03023C1.24497 2.80391 1.36831 2.59594 1.53041 2.41956C1.69251 2.24318 1.8898 2.10226 2.10973 2.00577C2.32966 1.90928 2.56741 1.85934 2.80784 1.85911H5.40559C5.82583 1.855 6.23323 2.00281 6.55186 2.27499C6.87049 2.54717 7.07861 2.92514 7.13743 3.33846C7.24707 4.1642 7.45041 4.97497 7.74357 5.7553C7.86007 6.06315 7.88529 6.39772 7.81622 6.71936C7.74716 7.041 7.58672 7.33624 7.35391 7.57009L6.25419 8.6624C7.48687 10.8157 9.28183 12.5985 11.4497 13.8229L12.5494 12.7306C12.7848 12.4994 13.0821 12.34 13.4059 12.2714C13.7297 12.2028 14.0666 12.2279 14.3765 12.3436C15.1621 12.6348 15.9784 12.8367 16.8097 12.9456C17.2304 13.0046 17.6145 13.215 17.8891 13.5369C18.1637 13.8589 18.3096 14.2698 18.2991 14.6916Z" stroke="white" stroke-width="1.5" stroke-linecap="round" stroke-linejoin="round"/>
</svg>
