<svg width="40" height="40" viewBox="0 0 40 40" fill="none" xmlns="http://www.w3.org/2000/svg">
<path d="M3.33301 16.6667H36.6663" stroke="#1457ED" stroke-width="2.5" stroke-miterlimit="10" stroke-linecap="round" stroke-linejoin="round"/>
<path d="M19.2468 34.1663H10.7301C4.81348 34.1663 3.31348 32.6996 3.31348 26.8496V13.1496C3.31348 7.84961 4.54681 6.14961 9.19681 5.88294C9.66348 5.86628 10.1801 5.84961 10.7301 5.84961H29.2468C35.1635 5.84961 36.6635 7.31628 36.6635 13.1663V20.5163" stroke="#1457ED" stroke-width="2.5" stroke-linecap="round" stroke-linejoin="round"/>
<path d="M10 26.6666H16.6667M36.6667 29.9999C36.6667 31.2499 36.3167 32.4333 35.7 33.4333C35.1124 34.4207 34.2779 35.2382 33.2784 35.8051C32.2789 36.3721 31.1491 36.669 30 36.6666C28.8509 36.669 27.7211 36.3721 26.7216 35.8051C25.7221 35.2382 24.8876 34.4207 24.3 33.4333C23.6656 32.4006 23.3309 31.2119 23.3333 29.9999C23.3333 26.3166 26.3167 23.3333 30 23.3333C33.6833 23.3333 36.6667 26.3166 36.6667 29.9999Z" stroke="#1457ED" stroke-width="2.5" stroke-miterlimit="10" stroke-linecap="round" stroke-linejoin="round"/>
<path d="M27.4023 29.9993L29.0523 31.6493L32.6023 28.366" stroke="#1457ED" stroke-width="2.5" stroke-linecap="round" stroke-linejoin="round"/>
</svg>
