<svg width="40" height="40" viewBox="0 0 40 40" fill="none" xmlns="http://www.w3.org/2000/svg">
<path d="M5 36.6668H35M9.33333 13.9668H6.66667C5.75 13.9668 5 14.7168 5 15.6335V30.0002C5 30.9168 5.75 31.6668 6.66667 31.6668H9.33333C10.25 31.6668 11 30.9168 11 30.0002V15.6335C11 14.7168 10.25 13.9668 9.33333 13.9668ZM21.3333 8.65016H18.6667C17.75 8.65016 17 9.40016 17 10.3168V30.0002C17 30.9168 17.75 31.6668 18.6667 31.6668H21.3333C22.25 31.6668 23 30.9168 23 30.0002V10.3168C23 9.40016 22.25 8.65016 21.3333 8.65016ZM33.3333 3.3335H30.6667C29.75 3.3335 29 4.0835 29 5.00016V30.0002C29 30.9168 29.75 31.6668 30.6667 31.6668H33.3333C34.25 31.6668 35 30.9168 35 30.0002V5.00016C35 4.0835 34.25 3.3335 33.3333 3.3335Z" stroke="white" stroke-width="2.5" stroke-linecap="round" stroke-linejoin="round"/>
</svg>
