<svg width="40" height="40" viewBox="0 0 40 40" fill="none" xmlns="http://www.w3.org/2000/svg">
<path d="M13.333 20.3333H24.9997M13.333 26.9999H20.633M16.6663 9.99992H23.333C26.6663 9.99992 26.6663 8.33325 26.6663 6.66659C26.6663 3.33325 24.9997 3.33325 23.333 3.33325H16.6663C14.9997 3.33325 13.333 3.33325 13.333 6.66659C13.333 9.99992 14.9997 9.99992 16.6663 9.99992Z" stroke="#1457ED" stroke-width="2.5" stroke-miterlimit="10" stroke-linecap="round" stroke-linejoin="round"/>
<path d="M26.6667 6.69922C32.2167 6.99922 35 9.04922 35 16.6659V26.6659C35 33.3326 33.3333 36.6659 25 36.6659H15C6.66667 36.6659 5 33.3326 5 26.6659V16.6659C5 9.06589 7.78333 6.99922 13.3333 6.69922" stroke="#1457ED" stroke-width="2.5" stroke-miterlimit="10" stroke-linecap="round" stroke-linejoin="round"/>
</svg>
