<svg width="40" height="40" viewBox="0 0 40 40" fill="none" xmlns="http://www.w3.org/2000/svg">
<path d="M14.4531 23.8833C14.4531 26.0333 16.1031 27.7667 18.1531 27.7667H22.3365C24.1198 27.7667 25.5698 26.25 25.5698 24.3833C25.5698 22.35 24.6865 21.6333 23.3698 21.1667L16.6531 18.8333C15.3365 18.3667 14.4531 17.65 14.4531 15.6167C14.4531 13.75 15.9031 12.2333 17.6865 12.2333H21.8698C23.9198 12.2333 25.5698 13.9667 25.5698 16.1167M19.9998 10V30" stroke="white" stroke-width="2.30769" stroke-linecap="round" stroke-linejoin="round"/>
<path d="M25.0007 36.6659H15.0007C6.66732 36.6659 3.33398 33.3325 3.33398 24.9992V14.9992C3.33398 6.66585 6.66732 3.33252 15.0007 3.33252H25.0007C33.334 3.33252 36.6673 6.66585 36.6673 14.9992V24.9992C36.6673 33.3325 33.334 36.6659 25.0007 36.6659Z" stroke="white" stroke-width="2.30769" stroke-linecap="round" stroke-linejoin="round"/>
</svg>
