<svg width="40" height="40" viewBox="0 0 40 40" fill="none" xmlns="http://www.w3.org/2000/svg">
<path d="M21.666 37.9166H14.9994C5.94937 37.9166 2.0827 34.0499 2.0827 24.9999V14.9999C2.0827 5.94992 5.94937 2.08325 14.9994 2.08325H24.9994C34.0494 2.08325 37.916 5.94992 37.916 14.9999V21.6666C37.916 22.3499 37.3494 22.9166 36.666 22.9166C35.9827 22.9166 35.416 22.3499 35.416 21.6666V14.9999C35.416 7.31659 32.6827 4.58325 24.9994 4.58325H14.9994C7.31604 4.58325 4.5827 7.31659 4.5827 14.9999V24.9999C4.5827 32.6833 7.31604 35.4166 14.9994 35.4166H21.666C22.3494 35.4166 22.916 35.9833 22.916 36.6666C22.916 37.3499 22.3494 37.9166 21.666 37.9166Z" fill="white"/>
<path d="M36.667 31.3333C36.667 30.2785 36.3542 29.2474 35.7682 28.3703C35.1822 27.4932 34.3492 26.8096 33.3747 26.406C32.4001 26.0023 31.3278 25.8967 30.2932 26.1025C29.2587 26.3083 28.3083 26.8162 27.5625 27.5621C26.8166 28.308 26.3086 29.2583 26.1028 30.2929C25.8971 31.3274 26.0027 32.3998 26.4063 33.3743C26.81 34.3489 27.4936 35.1818 28.3707 35.7678C29.2477 36.3539 30.2789 36.6667 31.3337 36.6667C32.7477 36.6651 34.1033 36.1027 35.1032 35.1028C36.103 34.103 36.6654 32.7473 36.667 31.3333ZM33.2726 32.5447C33.2693 32.9494 33.1207 33.3394 32.8537 33.6435C32.5868 33.9476 32.2194 34.1456 31.8185 34.2013V34.2424C31.8185 34.371 31.7675 34.4943 31.6765 34.5853C31.5856 34.6762 31.4623 34.7273 31.3337 34.7273C31.2051 34.7273 31.0818 34.6762 30.9909 34.5853C30.8999 34.4943 30.8489 34.371 30.8489 34.2424V34.2124C30.4484 34.174 30.0727 34.0014 29.7828 33.7225C29.5321 33.4667 29.3928 33.1222 29.3953 32.764C29.4015 32.6355 29.4585 32.5148 29.5537 32.4284C29.6489 32.3419 29.7746 32.2968 29.9031 32.303C30.0315 32.3093 30.1523 32.3662 30.2387 32.4615C30.3251 32.5567 30.3702 32.6824 30.364 32.8108C30.3756 32.9045 30.4194 32.9911 30.4878 33.0561C30.5908 33.1443 30.7154 33.2034 30.8489 33.2275V31.7778C30.4467 31.7254 30.0774 31.5284 29.8099 31.2236C29.5423 30.9188 29.3948 30.5272 29.3948 30.1216C29.3948 29.7161 29.5423 29.3244 29.8099 29.0197C30.0774 28.7149 30.4467 28.5179 30.8489 28.4654V28.4242C30.8489 28.2957 30.8999 28.1723 30.9909 28.0814C31.0818 27.9905 31.2051 27.9394 31.3337 27.9394C31.4623 27.9394 31.5856 27.9905 31.6765 28.0814C31.7675 28.1723 31.8185 28.2957 31.8185 28.4242V28.4545C32.219 28.4928 32.5947 28.6654 32.8846 28.9442C33.1353 29.2 33.2746 29.5445 33.2721 29.9027C33.2621 30.0297 33.204 30.1482 33.1096 30.2338C33.0152 30.3195 32.8918 30.3659 32.7643 30.3636C32.638 30.3575 32.5191 30.3022 32.4329 30.2096C32.3468 30.117 32.3002 29.9944 32.3032 29.8679C32.2952 29.7698 32.2512 29.6781 32.1796 29.6106C32.0766 29.5225 31.9519 29.4635 31.8185 29.4397V30.8888C32.2192 30.9446 32.5864 31.1426 32.8534 31.4465C33.1203 31.7505 33.2691 32.1402 33.2726 32.5447Z" fill="white"/>
<path d="M12.2171 25.4032C11.9505 25.4032 11.6838 25.3199 11.4505 25.1365C11.3202 25.0369 11.2109 24.9127 11.1287 24.7708C11.0465 24.629 10.993 24.4724 10.9713 24.3098C10.9497 24.1473 10.9602 23.9822 11.0024 23.8237C11.0446 23.6653 11.1175 23.5167 11.2171 23.3865L15.1838 18.2365C15.6671 17.6199 16.3505 17.2199 17.1338 17.1199C17.9171 17.0199 18.6838 17.2365 19.3005 17.7199L22.3505 20.1199C22.4671 20.2199 22.5838 20.2032 22.6671 20.2032C22.7338 20.2032 22.8505 20.1699 22.9505 20.0365L26.8005 15.0699C27.2171 14.5199 28.0005 14.4199 28.5505 14.8532C29.1005 15.2699 29.2005 16.0532 28.7671 16.6032L24.9171 21.5699C24.4338 22.1865 23.7505 22.5865 22.9671 22.6699C22.2005 22.7699 21.4171 22.5532 20.8171 22.0699L17.7671 19.6699C17.7244 19.6324 17.6736 19.6053 17.6186 19.5909C17.5637 19.5764 17.5061 19.5749 17.4505 19.5865C17.3838 19.5865 17.2671 19.6199 17.1671 19.7532L13.2005 24.9032C12.9671 25.2365 12.6005 25.4032 12.2171 25.4032Z" fill="white"/>
</svg>
