<svg width="60" height="60" viewBox="0 0 60 60" fill="none" xmlns="http://www.w3.org/2000/svg">
<g clip-path="url(#clip0_157_1339)">
<path d="M46.3716 31.8788C46.2933 24.2756 52.5707 20.637 52.8489 20.4544C49.3233 15.303 43.8372 14.5944 41.8766 14.5161C37.212 14.0379 32.7649 17.2636 30.3913 17.2636C28.0264 17.2636 24.3661 14.5813 20.4927 14.6509C15.3978 14.7291 10.7072 17.6157 8.08147 22.1715C2.79094 31.3528 6.72515 44.9509 11.8809 52.4063C14.4023 56.0492 17.4106 60.14 21.3535 59.9965C25.1529 59.8443 26.5875 57.536 31.1825 57.536C35.7775 57.536 37.0686 59.9965 41.0854 59.9226C45.1761 59.8444 47.7627 56.2057 50.2623 52.5541C53.1576 48.3243 54.3487 44.2249 54.4226 44.0206C54.3269 43.9684 46.4542 40.9558 46.3716 31.8788Z" fill="#121A2C"/>
<path d="M38.8086 9.58122C40.8996 7.0468 42.3168 3.51688 41.9299 0C38.9086 0.121721 35.2613 2.00406 33.092 4.54282C31.1488 6.79032 29.4577 10.3768 29.9099 13.8241C33.2746 14.0893 36.7176 12.1113 38.8086 9.58122Z" fill="#121A2C"/>
</g>
<defs>
<clipPath id="clip0_157_1339">
<rect width="60" height="60" fill="white"/>
</clipPath>
</defs>
</svg>
