<svg width="40" height="40" viewBox="0 0 40 40" fill="none" xmlns="http://www.w3.org/2000/svg">
<path d="M15.833 22.9167C15.833 24.5333 17.083 25.8333 18.6163 25.8333H21.7497C23.083 25.8333 24.1663 24.7 24.1663 23.2833C24.1663 21.7667 23.4997 21.2167 22.5163 20.8667L17.4997 19.1167C16.5163 18.7667 15.8497 18.2333 15.8497 16.7C15.8497 15.3 16.933 14.15 18.2663 14.15H21.3997C22.933 14.15 24.183 15.45 24.183 17.0667M19.9997 12.5V27.5" stroke="white" stroke-width="2.5" stroke-linecap="round" stroke-linejoin="round"/>
<path d="M36.6663 19.9999C36.6663 29.1999 29.1997 36.6666 19.9997 36.6666C10.7997 36.6666 3.33301 29.1999 3.33301 19.9999C3.33301 10.7999 10.7997 3.33325 19.9997 3.33325M36.6663 9.99992V3.33325M36.6663 3.33325H29.9997M36.6663 3.33325L28.333 11.6666" stroke="white" stroke-width="2.5" stroke-linecap="round" stroke-linejoin="round"/>
</svg>
