<svg width="40" height="40" viewBox="0 0 40 40" fill="none" xmlns="http://www.w3.org/2000/svg">
<path d="M20 25C21.3261 25 22.5979 24.4732 23.5355 23.5355C24.4732 22.5979 25 21.3261 25 20C25 18.6739 24.4732 17.4021 23.5355 16.4645C22.5979 15.5268 21.3261 15 20 15C18.6739 15 17.4021 15.5268 16.4645 16.4645C15.5268 17.4021 15 18.6739 15 20C15 21.3261 15.5268 22.5979 16.4645 23.5355C17.4021 24.4732 18.6739 25 20 25Z" stroke="white" stroke-width="2.5" stroke-miterlimit="10" stroke-linecap="round" stroke-linejoin="round"/>
<path d="M3.33331 21.4662V18.5329C3.33331 16.7996 4.74998 15.3662 6.49998 15.3662C9.51665 15.3662 10.75 13.2329 9.23331 10.6162C8.36665 9.11623 8.88331 7.16623 10.4 6.29957L13.2833 4.64957C14.6 3.86624 16.3 4.3329 17.0833 5.64957L17.2666 5.96623C18.7666 8.5829 21.2333 8.5829 22.75 5.96623L22.9333 5.64957C23.7166 4.3329 25.4166 3.86624 26.7333 4.64957L29.6166 6.29957C31.1333 7.16623 31.65 9.11623 30.7833 10.6162C29.2666 13.2329 30.5 15.3662 33.5166 15.3662C35.25 15.3662 36.6833 16.7829 36.6833 18.5329V21.4662C36.6833 23.1996 35.2666 24.6329 33.5166 24.6329C30.5 24.6329 29.2666 26.7662 30.7833 29.3829C31.65 30.8996 31.1333 32.8329 29.6166 33.6996L26.7333 35.3496C25.4166 36.1329 23.7166 35.6662 22.9333 34.3496L22.75 34.0329C21.25 31.4162 18.7833 31.4162 17.2666 34.0329L17.0833 34.3496C16.3 35.6662 14.6 36.1329 13.2833 35.3496L10.4 33.6996C9.67348 33.2813 9.14261 32.5918 8.92389 31.7825C8.70516 30.9732 8.81645 30.1102 9.23331 29.3829C10.75 26.7662 9.51665 24.6329 6.49998 24.6329C4.74998 24.6329 3.33331 23.1996 3.33331 21.4662Z" stroke="white" stroke-width="2.5" stroke-miterlimit="10" stroke-linecap="round" stroke-linejoin="round"/>
</svg>
