<svg width="40" height="40" viewBox="0 0 40 40" fill="none" xmlns="http://www.w3.org/2000/svg">
<path d="M36.6269 5.82165C36.5547 4.49756 35.5016 3.44464 34.1775 3.37237C31.5058 3.22641 26.2777 3.3684 21.2785 5.95413C18.73 7.27236 16.0347 9.50731 13.8837 12.0859C13.8572 12.1177 13.8314 12.1497 13.8051 12.1815L8.92365 12.5586C8.12014 12.6207 7.40445 13.0419 6.96005 13.714L3.62972 18.7512C3.29268 19.261 3.2391 19.8989 3.4863 20.4577C3.73356 21.0166 4.24163 21.406 4.84547 21.4996L8.95815 22.1366C8.94364 22.2165 8.92905 22.2964 8.91571 22.3763C8.77879 23.1953 9.05015 24.0374 9.64168 24.6289L15.3703 30.3576C15.8607 30.848 16.5234 31.1184 17.2025 31.1184C17.3423 31.1184 17.4829 31.1068 17.6229 31.0835C17.7028 31.0701 17.7827 31.0555 17.8627 31.041L18.4997 35.1538C18.5932 35.7576 18.9827 36.2657 19.5414 36.5129C19.7739 36.6158 20.0199 36.6666 20.2648 36.6666C20.6088 36.6665 20.9503 36.5664 21.248 36.3696L26.2852 33.0392C26.9574 32.5947 27.3785 31.879 27.4404 31.0756L27.8175 26.1942C27.8494 26.1679 27.8814 26.1421 27.9132 26.1156C30.4919 23.9646 32.7269 21.2693 34.045 18.7208C36.6309 13.7214 36.7726 8.49319 36.6269 5.82165ZM25.208 31.4099L20.3896 34.5956L19.7688 30.5875C21.8052 29.9887 23.8198 29.0298 25.739 27.7451L25.4933 30.9251C25.478 31.1234 25.374 31.3002 25.208 31.4099ZM16.7514 28.9765L11.0227 23.2478C10.8765 23.1016 10.8089 22.8962 10.8421 22.6983C11.0124 21.6799 11.277 20.7105 11.6046 19.7972L20.2002 28.3927C19.1033 28.7856 18.1208 29.02 17.3008 29.1571C17.1027 29.1901 16.8975 29.1227 16.7514 28.9765ZM9.0741 14.5059L12.254 14.2603C10.9693 16.1795 10.0103 18.194 9.41154 20.2304L5.40348 19.6097L8.58928 14.7912C8.69904 14.6252 8.8758 14.5212 9.0741 14.5059ZM26.6623 24.6157C25.0846 25.9316 23.5532 26.8834 22.1416 27.5722L12.4267 17.8573C13.3289 16.0146 14.43 14.4801 15.3835 13.337C17.3741 10.9507 19.8498 8.89201 22.1759 7.68889C26.764 5.31566 31.598 5.18786 34.0712 5.32249C34.3986 5.34033 34.6589 5.60068 34.6767 5.92809C34.8116 8.40126 34.6835 13.2352 32.3103 17.8234C31.1072 20.1495 29.0486 22.6251 26.6623 24.6157Z" fill="white"/>
<path d="M26.1672 18.7131C27.4173 18.7129 28.668 18.237 29.6197 17.2853C30.542 16.3631 31.0498 15.1369 31.0498 13.8327C31.0498 12.5286 30.5419 11.3024 29.6197 10.3802C27.716 8.47639 24.6183 8.47652 22.7147 10.3802C21.7924 11.3024 21.2845 12.5286 21.2845 13.8327C21.2845 15.1369 21.7925 16.3631 22.7147 17.2853C23.6666 18.2372 24.9166 18.7132 26.1672 18.7131ZM24.0956 11.7612C24.6667 11.19 25.4169 10.9045 26.1671 10.9045C26.9173 10.9045 27.6675 11.19 28.2386 11.7612C28.7919 12.3145 29.0966 13.0502 29.0966 13.8327C29.0966 14.6152 28.7919 15.3509 28.2386 15.9042C27.0964 17.0465 25.2378 17.0464 24.0955 15.9042C23.5422 15.3509 23.2375 14.6152 23.2375 13.8327C23.2375 13.0503 23.5423 12.3145 24.0956 11.7612Z" fill="white"/>
<path d="M4.32876 30.8026C4.57869 30.8026 4.82863 30.7073 5.01925 30.5166L8.20759 27.3282C8.58897 26.9468 8.58897 26.3285 8.20759 25.9472C7.82627 25.5658 7.20792 25.5658 6.82654 25.9472L3.63827 29.1355C3.25689 29.5169 3.25689 30.1352 3.63827 30.5166C3.82889 30.7072 4.07883 30.8026 4.32876 30.8026Z" fill="white"/>
<path d="M11.1296 28.8695C10.7483 28.4882 10.1299 28.4882 9.74853 28.8695L3.61874 34.9994C3.23736 35.3808 3.23736 35.9991 3.61874 36.3804C3.80943 36.5711 4.05929 36.6664 4.30923 36.6664C4.55916 36.6664 4.8091 36.5711 4.99972 36.3804L11.1295 30.2506C11.511 29.8692 11.511 29.2509 11.1296 28.8695Z" fill="white"/>
<path d="M12.6716 31.7912L9.4833 34.9795C9.10192 35.3609 9.10192 35.9792 9.4833 36.3605C9.67399 36.5512 9.92392 36.6466 10.1738 36.6466C10.4237 36.6466 10.6737 36.5513 10.8643 36.3605L14.0526 33.1722C14.434 32.7908 14.434 32.1725 14.0526 31.7912C13.6713 31.4098 13.0529 31.4098 12.6716 31.7912Z" fill="white"/>
</svg>
