<svg width="24" height="24" viewBox="0 0 24 24" fill="none" xmlns="http://www.w3.org/2000/svg">
<path d="M14.89 3.45H9.11C8.71 3.45 8.39 3.13 8.39 2.73C8.39 2.33 8.71 2 9.11 2H14.89C15.29 2 15.61 2.32 15.61 2.72C15.61 3.12 15.29 3.45 14.89 3.45ZM14 19.968V17.028C14 15.218 15.22 13.998 17.03 13.998H19.97C20.2 13.998 20.42 14.018 20.63 14.058C20.65 13.818 20.67 13.578 20.67 13.328C20.67 8.538 16.78 4.648 12 4.648C7.22 4.648 3.33 8.538 3.33 13.328C3.33 18.108 7.22 21.998 12 21.998C12.85 21.998 13.66 21.858 14.44 21.638C14.144 21.1318 13.9919 20.5543 14 19.968ZM12.75 12.998C12.75 13.408 12.41 13.748 12 13.748C11.59 13.748 11.25 13.408 11.25 12.998V7.998C11.25 7.588 11.59 7.248 12 7.248C12.41 7.248 12.75 7.588 12.75 7.998V12.998Z" fill="#042041"/>
<path d="M19.97 15H17.04C15.76 15 15 15.76 15 17.03V19.97C15 21.24 15.76 22 17.04 22H19.97C21.24 22 22 21.24 22 19.97V17.03C22 15.76 21.24 15 19.97 15ZM17.92 20.06C17.92 20.38 17.66 20.64 17.33 20.64C17.1762 20.64 17.0286 20.5789 16.9199 20.4701C16.8111 20.3614 16.75 20.2138 16.75 20.06V16.94C16.75 16.62 17.01 16.36 17.33 16.36C17.66 16.36 17.92 16.62 17.92 16.94V20.06ZM20.25 20.06C20.25 20.38 19.99 20.64 19.67 20.64C19.35 20.64 19.08 20.38 19.08 20.06V16.94C19.08 16.62 19.35 16.36 19.67 16.36C19.99 16.36 20.25 16.62 20.25 16.94V20.06Z" fill="#042041"/>
</svg>
