<svg width="24" height="24" viewBox="0 0 24 24" fill="none" xmlns="http://www.w3.org/2000/svg">
<path d="M12 12C13.3261 12 14.5979 11.4732 15.5355 10.5355C16.4732 9.59785 17 8.32608 17 7C17 5.67392 16.4732 4.40215 15.5355 3.46447C14.5979 2.52678 13.3261 2 12 2C10.6739 2 9.40215 2.52678 8.46447 3.46447C7.52678 4.40215 7 5.67392 7 7C7 8.32608 7.52678 9.59785 8.46447 10.5355C9.40215 11.4732 10.6739 12 12 12ZM3.41 22C3.41 18.13 7.26 15 12 15C17.4998 15 16.6298 21.76 17.4998 22" fill="#042041"/>
<path d="M3.41 22C3.41 18.13 7.26 15 12 15C17.4998 15 16.6298 21.76 17.4998 22M12 12C13.3261 12 14.5979 11.4732 15.5355 10.5355C16.4732 9.59785 17 8.32608 17 7C17 5.67392 16.4732 4.40215 15.5355 3.46447C14.5979 2.52678 13.3261 2 12 2C10.6739 2 9.40215 2.52678 8.46447 3.46447C7.52678 4.40215 7 5.67392 7 7C7 8.32608 7.52678 9.59785 8.46447 10.5355C9.40215 11.4732 10.6739 12 12 12Z" stroke="#042041" stroke-width="1.5" stroke-linecap="round" stroke-linejoin="round"/>
<path d="M22 18.0001C22 18.7501 21.79 19.4601 21.42 20.0601C21.21 20.4201 20.94 20.7401 20.63 21.0001C19.93 21.6301 19.01 22.0001 18 22.0001C17.3106 22.0015 16.6326 21.8233 16.033 21.4832C15.4333 21.143 14.9325 20.6525 14.58 20.0601C14.1993 19.4405 13.9985 18.7272 14 18.0001C14 16.7401 14.58 15.6101 15.5 14.8801C16.088 14.4088 16.7972 14.1132 17.5458 14.0275C18.2945 13.9417 19.0522 14.0692 19.7315 14.3953C20.4108 14.7214 20.9842 15.2328 21.3856 15.8705C21.7869 16.5083 21.9999 17.2465 22 18.0001Z" fill="white" stroke="#042041" stroke-width="1.5" stroke-miterlimit="10" stroke-linecap="round" stroke-linejoin="round"/>
<path d="M16.4404 18L17.4304 18.99L19.5604 17.02" stroke="#042041" stroke-width="1.5" stroke-linecap="round" stroke-linejoin="round"/>
</svg>
