<svg width="60" height="60" viewBox="0 0 60 60" fill="none" xmlns="http://www.w3.org/2000/svg">
<path d="M24.4761 16.0674C21.132 17.401 18.3758 19.8875 16.7061 23.077H21.5141C22.0273 20.5673 23.0341 18.1846 24.4761 16.0674Z" fill="#1457ED"/>
<path d="M20.769 30.0002C20.7699 28.4558 20.8802 26.9135 21.099 25.3848H15.7336C14.7555 28.3839 14.7555 31.6164 15.7336 34.6155H21.099C20.8802 33.0868 20.7699 31.5445 20.769 30.0002Z" fill="#1457ED"/>
<path d="M36.1155 23.0769C34.8728 18.0715 32.3782 15 30.0001 15C27.6221 15 25.1228 18.0715 23.8848 23.0769H36.1155Z" fill="#1457ED"/>
<path d="M23.0772 30.0002C23.0742 31.5449 23.1876 33.0878 23.4164 34.6155H36.5841C37.0364 31.5552 37.0364 28.4451 36.5841 25.3848H23.4164C23.1876 26.9125 23.0742 28.4554 23.0772 30.0002Z" fill="#1457ED"/>
<path d="M16.7061 36.9229C18.3758 40.1123 21.132 42.5988 24.4761 43.9325C23.0341 41.8152 22.0273 39.4325 21.5141 36.9229H16.7061Z" fill="#1457ED"/>
<path d="M39.2304 30.0002C39.2295 31.5445 39.1192 33.0868 38.9004 34.6155H44.2658C45.244 31.6164 45.244 28.3839 44.2658 25.3848H38.9004C39.1192 26.9135 39.2295 28.4558 39.2304 30.0002Z" fill="#1457ED"/>
<path d="M29.9999 2.30762C24.5229 2.30762 19.1689 3.93174 14.6149 6.97461C10.0609 10.0175 6.51155 14.3424 4.41558 19.4025C2.31962 24.4626 1.77122 30.0306 2.83973 35.4024C3.90824 40.7742 6.54568 45.7085 10.4185 49.5813C14.2914 53.4542 19.2257 56.0916 24.5974 57.1601C29.9692 58.2286 35.5372 57.6802 40.5973 55.5843C45.6574 53.4883 49.9824 49.9389 53.0252 45.385C56.0681 40.831 57.6922 35.4769 57.6922 29.9999C57.6837 22.6581 54.7634 15.6194 49.5719 10.428C44.3805 5.23649 37.3418 2.31617 29.9999 2.30762ZM29.9999 47.3076C26.5768 47.3076 23.2305 46.2925 20.3843 44.3908C17.5381 42.489 15.3197 39.7859 14.0097 36.6233C12.6997 33.4607 12.357 29.9807 13.0248 26.6234C13.6926 23.266 15.341 20.1821 17.7615 17.7615C20.1821 15.341 23.266 13.6926 26.6234 13.0248C29.9807 12.357 33.4607 12.6997 36.6233 14.0097C39.7859 15.3197 42.489 17.5381 44.3908 20.3843C46.2926 23.2305 47.3076 26.5768 47.3076 29.9999C47.3024 34.5886 45.4773 38.9879 42.2326 42.2326C38.9879 45.4773 34.5886 47.3024 29.9999 47.3076Z" fill="#1457ED"/>
<path d="M23.8848 36.9229C25.1275 41.9282 27.6221 44.9998 30.0001 44.9998C32.3782 44.9998 34.8775 41.9282 36.1155 36.9229H23.8848Z" fill="#1457ED"/>
<path d="M35.5234 16.0674C36.9654 18.1846 37.9722 20.5673 38.4854 23.077H43.2934C41.6237 19.8875 38.8675 17.401 35.5234 16.0674Z" fill="#1457ED"/>
<path d="M35.5234 43.9325C38.8675 42.5988 41.6237 40.1123 43.2934 36.9229H38.4854C37.9722 39.4325 36.9654 41.8152 35.5234 43.9325Z" fill="#1457ED"/>
</svg>
