<svg width="60" height="60" viewBox="0 0 60 60" fill="none" xmlns="http://www.w3.org/2000/svg">
<g clip-path="url(#clip0_157_1333)">
<path d="M23.5901 5.83033L1.09012 8.75287C0.462816 8.83384 -0.00511405 9.37045 4.22001e-05 10.0029V27.5029C4.22001e-05 28.1932 0.55973 28.7529 1.25008 28.7529H23.7501C24.4404 28.7529 25.0001 28.1932 25.0001 27.5029V7.06783C24.9997 6.70877 24.8448 6.36728 24.5751 6.13033C24.3033 5.89666 23.946 5.78779 23.5901 5.83033Z" fill="#F44336"/>
<path d="M59.575 1.56551C59.3071 1.32411 58.948 1.2102 58.59 1.25297L28.59 5.16551C27.9628 5.24649 27.4948 5.78309 27.5 6.41555V27.5031C27.5 28.1934 28.0597 28.7531 28.7501 28.7531H58.7501C59.4404 28.7531 60.0001 28.1934 60.0001 27.5031V2.50301C59.9995 2.14395 59.8446 1.80247 59.575 1.56551Z" fill="#4CAF50"/>
<path d="M23.7501 31.2529H1.25008C0.55973 31.2529 4.22001e-05 31.8126 4.22001e-05 32.503V50.0029C-0.00511405 50.6354 0.462816 51.172 1.09 51.253L23.59 54.1879C23.6433 54.1916 23.6968 54.1916 23.75 54.1879C24.4403 54.1879 25 53.6282 25 52.9379V32.503C25.0001 31.8126 24.4404 31.2529 23.7501 31.2529Z" fill="#2196F3"/>
<path d="M58.7501 31.2529H28.7501C28.0597 31.2529 27.5 31.8126 27.5 32.503V53.5905C27.4949 54.223 27.9628 54.7596 28.59 54.8405L58.59 58.7531C58.6433 58.7567 58.6968 58.7567 58.75 58.7531C59.4403 58.7531 60 58.1934 60 57.503V32.503C60 31.8126 59.4404 31.2529 58.7501 31.2529Z" fill="#FFC107"/>
</g>
<defs>
<clipPath id="clip0_157_1333">
<rect width="60" height="60" fill="white"/>
</clipPath>
</defs>
</svg>
