<svg width="26" height="26" viewBox="0 0 26 26" fill="none" xmlns="http://www.w3.org/2000/svg">
<path d="M23.8072 3.78347C23.7603 2.92282 23.0758 2.23842 22.2152 2.19144C20.4785 2.09657 17.0803 2.18886 13.8308 3.86959C12.1743 4.72643 10.4223 6.17915 9.02418 7.85527C9.00695 7.87592 8.9902 7.8967 8.9731 7.91739L5.80013 8.16249C5.27785 8.20286 4.81265 8.47662 4.52379 8.9135L2.35908 12.1877C2.14 12.519 2.10517 12.9337 2.26585 13.2969C2.42658 13.6602 2.75682 13.9133 3.14932 13.9741L5.82256 14.3882C5.81312 14.4401 5.80364 14.4921 5.79497 14.544C5.70597 15.0764 5.88235 15.6237 6.26685 16.0082L9.99046 19.7318C10.3092 20.0506 10.74 20.2263 11.1814 20.2263C11.2723 20.2263 11.3637 20.2188 11.4546 20.2037C11.5066 20.195 11.5585 20.1855 11.6105 20.1761L12.0245 22.8493C12.0853 23.2418 12.3385 23.5721 12.7017 23.7328C12.8528 23.7997 13.0127 23.8327 13.1719 23.8327C13.3955 23.8326 13.6175 23.7676 13.8109 23.6396L17.0851 21.4749C17.5221 21.186 17.7958 20.7208 17.836 20.1985L18.0812 17.0256C18.1018 17.0085 18.1227 16.9918 18.1433 16.9745C19.8195 15.5764 21.2722 13.8245 22.129 12.1679C23.8098 8.91828 23.902 5.51997 23.8072 3.78347ZM16.385 20.4158L13.253 22.4866L12.8495 19.8813C14.1732 19.4921 15.4826 18.8687 16.7301 18.0337L16.5704 20.1007C16.5605 20.2296 16.4928 20.3445 16.385 20.4158ZM10.8881 18.8341L7.16449 15.1105C7.06949 15.0154 7.02556 14.8819 7.0471 14.7533C7.1578 14.0914 7.32983 13.4612 7.54277 12.8676L13.1299 18.4547C12.4169 18.7101 11.7783 18.8624 11.2453 18.9515C11.1165 18.9729 10.9831 18.9291 10.8881 18.8341ZM5.89793 9.42825L7.96488 9.26859C7.12979 10.5161 6.50645 11.8255 6.11726 13.1492L3.51202 12.7457L5.58279 9.61369C5.65414 9.50578 5.76903 9.4382 5.89793 9.42825ZM17.3302 15.9996C16.3047 16.8549 15.3093 17.4736 14.3918 17.9213L8.07711 11.6066C8.66355 10.4089 9.37926 9.41149 9.99905 8.66848C11.2929 7.11733 12.9021 5.77921 14.4141 4.99718C17.3964 3.45458 20.5385 3.37151 22.146 3.45902C22.3588 3.47062 22.528 3.63985 22.5396 3.85266C22.6273 5.46022 22.544 8.6023 21.0014 11.5846C20.2195 13.0965 18.8813 14.7057 17.3302 15.9996Z" fill="#042041"/>
<path d="M17.0087 12.1628C17.8213 12.1627 18.6342 11.8534 19.2528 11.2347C19.8523 10.6353 20.1824 9.83829 20.1824 8.99059C20.1824 8.14288 19.8523 7.34588 19.2528 6.74645C18.0154 5.50895 16.0019 5.50904 14.7646 6.74645C14.1651 7.34588 13.835 8.14288 13.835 8.99059C13.835 9.83829 14.1651 10.6353 14.7646 11.2347C15.3833 11.8535 16.1958 12.1629 17.0087 12.1628ZM15.6621 7.64409C16.0334 7.27284 16.521 7.08723 17.0086 7.08723C17.4963 7.08723 17.9839 7.27284 18.3551 7.64409C18.7148 8.00374 18.9128 8.48193 18.9128 8.99055C18.9128 9.49916 18.7148 9.97739 18.3551 10.337C17.6127 11.0795 16.4046 11.0795 15.6621 10.337C15.3024 9.97739 15.1044 9.4992 15.1044 8.99059C15.1044 8.48198 15.3025 8.00374 15.6621 7.64409Z" fill="#042041"/>
<path d="M2.81345 20.0217C2.97591 20.0217 3.13837 19.9597 3.26227 19.8357L5.33469 17.7633C5.58259 17.5154 5.58259 17.1135 5.33469 16.8656C5.08684 16.6177 4.6849 16.6177 4.43701 16.8656L2.36463 18.938C2.11674 19.1859 2.11674 19.5878 2.36463 19.8357C2.48854 19.9597 2.651 20.0217 2.81345 20.0217Z" fill="#042041"/>
<path d="M7.23399 18.764C6.98613 18.5162 6.5842 18.5162 6.3363 18.764L2.35194 22.7485C2.10404 22.9964 2.10404 23.3982 2.35194 23.6461C2.47589 23.7701 2.6383 23.832 2.80076 23.832C2.96321 23.832 3.12567 23.7701 3.24958 23.6461L7.23394 19.6617C7.48188 19.4138 7.48188 19.0119 7.23399 18.764Z" fill="#042041"/>
<path d="M8.23588 20.6644L6.16346 22.7369C5.91557 22.9848 5.91557 23.3866 6.16346 23.6345C6.28741 23.7585 6.44987 23.8205 6.61228 23.8205C6.7747 23.8205 6.9372 23.7585 7.0611 23.6345L9.13352 21.5621C9.38141 21.3142 9.38141 20.9123 9.13352 20.6644C8.88566 20.4165 8.48373 20.4165 8.23588 20.6644Z" fill="#042041"/>
</svg>
