<svg width="26" height="26" viewBox="0 0 26 26" fill="none" xmlns="http://www.w3.org/2000/svg">
<path d="M14.0827 24.6452H9.74935C3.86685 24.6452 1.35352 22.1318 1.35352 16.2493V9.74935C1.35352 3.86685 3.86685 1.35352 9.74935 1.35352H16.2493C22.1318 1.35352 24.6452 3.86685 24.6452 9.74935V14.0827C24.6452 14.5268 24.2768 14.8952 23.8327 14.8952C23.3885 14.8952 23.0202 14.5268 23.0202 14.0827V9.74935C23.0202 4.75518 21.2435 2.97852 16.2493 2.97852H9.74935C4.75518 2.97852 2.97852 4.75518 2.97852 9.74935V16.2493C2.97852 21.2435 4.75518 23.0202 9.74935 23.0202H14.0827C14.5268 23.0202 14.8952 23.3885 14.8952 23.8327C14.8952 24.2768 14.5268 24.6452 14.0827 24.6452Z" fill="#042041"/>
<path d="M23.8337 20.3671C23.8337 19.6814 23.6304 19.0112 23.2495 18.4411C22.8686 17.871 22.3271 17.4267 21.6937 17.1643C21.0602 16.9019 20.3632 16.8332 19.6907 16.967C19.0183 17.1008 18.4006 17.4309 17.9158 17.9158C17.4309 18.4006 17.1008 19.0183 16.967 19.6907C16.8332 20.3632 16.9019 21.0602 17.1643 21.6937C17.4267 22.3271 17.871 22.8686 18.4411 23.2495C19.0112 23.6304 19.6814 23.8337 20.3671 23.8337C21.2862 23.8327 22.1673 23.4671 22.8172 22.8172C23.4671 22.1673 23.8327 21.2862 23.8337 20.3671ZM21.6273 21.1545C21.6252 21.4175 21.5286 21.671 21.3551 21.8687C21.1816 22.0663 20.9427 22.195 20.6822 22.2312V22.258C20.6822 22.3415 20.649 22.4217 20.5899 22.4808C20.5308 22.5399 20.4506 22.5731 20.3671 22.5731C20.2835 22.5731 20.2033 22.5399 20.1442 22.4808C20.0851 22.4217 20.0519 22.3415 20.0519 22.258V22.2384C19.7916 22.2135 19.5474 22.1013 19.359 21.92C19.196 21.7538 19.1055 21.5298 19.1071 21.297C19.1111 21.2135 19.1481 21.135 19.21 21.0788C19.2719 21.0226 19.3536 20.9933 19.4371 20.9974C19.5206 21.0014 19.5991 21.0385 19.6553 21.1004C19.7115 21.1623 19.7408 21.2439 19.7368 21.3274C19.7443 21.3883 19.7728 21.4446 19.8172 21.4869C19.8842 21.5442 19.9652 21.5826 20.0519 21.5983V20.656C19.7905 20.6219 19.5505 20.4938 19.3766 20.2957C19.2027 20.0976 19.1068 19.843 19.1068 19.5794C19.1068 19.3159 19.2027 19.0613 19.3766 18.8632C19.5505 18.6651 19.7905 18.537 20.0519 18.5029V18.4761C20.0519 18.3926 20.0851 18.3124 20.1442 18.2533C20.2033 18.1942 20.2835 18.161 20.3671 18.161C20.4506 18.161 20.5308 18.1942 20.5899 18.2533C20.649 18.3124 20.6822 18.3926 20.6822 18.4761V18.4958C20.9425 18.5207 21.1867 18.6329 21.3751 18.8141C21.5381 18.9804 21.6287 19.2043 21.627 19.4371C21.6205 19.5197 21.5827 19.5967 21.5214 19.6524C21.4601 19.7081 21.3798 19.7382 21.297 19.7368C21.2148 19.7327 21.1375 19.6968 21.0815 19.6366C21.0255 19.5764 20.9953 19.4967 20.9972 19.4145C20.992 19.3508 20.9634 19.2912 20.9169 19.2473C20.8499 19.19 20.7689 19.1517 20.6822 19.1362V20.0781C20.9426 20.1144 21.1813 20.2431 21.3548 20.4406C21.5283 20.6382 21.625 20.8916 21.6273 21.1545Z" fill="#042041"/>
<path d="M7.94091 16.5115C7.76757 16.5115 7.59424 16.4573 7.44257 16.3381C7.35792 16.2734 7.28685 16.1926 7.23341 16.1004C7.17998 16.0082 7.14523 15.9064 7.13114 15.8008C7.11706 15.6952 7.12392 15.5878 7.15133 15.4848C7.17874 15.3819 7.22617 15.2853 7.29091 15.2006L9.86924 11.8531C10.1834 11.4523 10.6276 11.1923 11.1367 11.1273C11.6459 11.0623 12.1442 11.2031 12.5451 11.5173L14.5276 13.0773C14.6034 13.1423 14.6792 13.1315 14.7334 13.1315C14.7767 13.1315 14.8526 13.1098 14.9176 13.0231L17.4201 9.79481C17.6909 9.43731 18.2001 9.37231 18.5576 9.65397C18.9151 9.92481 18.9801 10.434 18.6984 10.7915L16.1959 14.0198C15.8817 14.4206 15.4376 14.6806 14.9284 14.7348C14.4301 14.7998 13.9209 14.659 13.5309 14.3448L11.5484 12.7848C11.5206 12.7604 11.4876 12.7429 11.4519 12.7335C11.4162 12.7241 11.3787 12.7231 11.3426 12.7306C11.2992 12.7306 11.2234 12.7523 11.1584 12.839L8.58007 16.1865C8.42841 16.4031 8.19007 16.5115 7.94091 16.5115Z" fill="#042041"/>
</svg>
