<svg width="26" height="26" viewBox="0 0 26 26" fill="none" xmlns="http://www.w3.org/2000/svg">
<g clip-path="url(#clip0_207_14456)">
<path d="M24.9163 17.3008C24.9163 21.4933 21.5255 24.8841 17.333 24.8841L18.4705 22.9883M1.08301 8.63411C1.08301 4.44161 4.47384 1.05078 8.66634 1.05078L7.52884 2.94661" stroke="#042041" stroke-width="1.3" stroke-linecap="round" stroke-linejoin="round"/>
<path d="M7.17285 16.607H10.217C10.8995 16.607 11.4412 16.0545 11.4412 15.3828C11.4412 14.7653 10.8887 14.1586 10.217 14.1586H7.17285V16.607ZM7.17285 16.607H10.6612C11.4304 16.607 12.0587 17.1486 12.0587 17.8311C12.0587 18.5028 11.4304 19.0553 10.6612 19.0553H7.17285V16.607ZM9.12285 19.0445V20.2578M9.12285 12.9453V14.1586" stroke="#042041" stroke-width="1.3" stroke-miterlimit="10" stroke-linecap="round" stroke-linejoin="round"/>
<path d="M16.0871 16.608C16.0871 20.3022 13.0971 23.2922 9.40292 23.2922C5.70875 23.2922 2.71875 20.3022 2.71875 16.608C2.71875 12.9138 5.70875 9.92383 9.40292 9.92383C9.57625 9.92383 9.73875 9.93466 9.92292 9.9455C13.2054 10.1947 15.8271 12.8163 16.0763 16.0988C16.0763 16.2613 16.0871 16.4238 16.0871 16.608Z" stroke="#042041" stroke-width="1.3" stroke-miterlimit="10" stroke-linecap="round" stroke-linejoin="round"/>
<path d="M23.2922 9.39315C23.2922 13.0873 20.3022 16.0773 16.608 16.0773H16.0772C15.9542 14.4862 15.2664 12.9915 14.138 11.8631C13.0096 10.7347 11.5149 10.0469 9.92383 9.92398V9.39315C9.92383 5.69898 12.9138 2.70898 16.608 2.70898C20.3022 2.70898 23.2922 5.69898 23.2922 9.39315Z" stroke="#042041" stroke-width="1.3" stroke-miterlimit="10" stroke-linecap="round" stroke-linejoin="round"/>
</g>
<defs>
<clipPath id="clip0_207_14456">
<rect width="26" height="26" fill="white"/>
</clipPath>
</defs>
</svg>
