<svg width="26" height="26" viewBox="0 0 26 26" fill="none" xmlns="http://www.w3.org/2000/svg">
<path d="M9.39453 15.5242C9.39453 16.9217 10.467 18.0483 11.7995 18.0483H14.5187C15.6779 18.0483 16.6204 17.0625 16.6204 15.8492C16.6204 14.5275 16.0462 14.0617 15.1904 13.7583L10.8245 12.2417C9.9687 11.9383 9.39453 11.4725 9.39453 10.1508C9.39453 8.9375 10.337 7.95167 11.4962 7.95167H14.2154C15.5479 7.95167 16.6204 9.07833 16.6204 10.4758M12.9999 6.5V19.5" stroke="#042041" stroke-width="1.5" stroke-linecap="round" stroke-linejoin="round"/>
<path d="M16.2503 23.8327H9.75032C4.33366 23.8327 2.16699 21.666 2.16699 16.2493V9.74935C2.16699 4.33268 4.33366 2.16602 9.75032 2.16602H16.2503C21.667 2.16602 23.8337 4.33268 23.8337 9.74935V16.2493C23.8337 21.666 21.667 23.8327 16.2503 23.8327Z" stroke="#042041" stroke-width="1.5" stroke-linecap="round" stroke-linejoin="round"/>
</svg>
