<svg width="26" height="26" viewBox="0 0 26 26" fill="none" xmlns="http://www.w3.org/2000/svg">
<path d="M23.4333 15.9779C23.4333 16.942 23.1624 17.852 22.6858 18.632C22.2323 19.3937 21.5882 20.024 20.8169 20.461C20.0457 20.8979 19.1739 21.1263 18.2874 21.1237C17.4015 21.1241 16.5305 20.8947 15.7596 20.458C14.9888 20.0213 14.3443 19.3922 13.8891 18.632C13.3985 17.8338 13.1397 16.9148 13.1416 15.9779C13.1416 13.1395 15.4491 10.832 18.2874 10.832C21.1258 10.832 23.4333 13.1395 23.4333 15.9779Z" stroke="#042041" stroke-width="1.5" stroke-miterlimit="10" stroke-linecap="round" stroke-linejoin="round"/>
<path d="M16.25 17.5121C16.25 18.2108 16.7863 18.7742 17.4525 18.7742H18.8121C19.3917 18.7742 19.8629 18.2813 19.8629 17.6746C19.8629 17.0138 19.5758 16.7808 19.1479 16.6292L16.965 15.8708C16.5371 15.7192 16.25 15.4863 16.25 14.8254C16.25 14.2187 16.7213 13.7258 17.3008 13.7258H18.6604C19.3267 13.7258 19.8629 14.2892 19.8629 14.9879M18.0527 13V19.5" stroke="#042041" stroke-width="0.75" stroke-linecap="round" stroke-linejoin="round"/>
<path d="M22.4143 4.35435V6.75935C22.4143 7.63685 21.8618 8.73101 21.3201 9.28351L19.4134 10.9627C19.0444 10.8749 18.6662 10.8312 18.2868 10.8327C15.4484 10.8327 13.1409 13.1402 13.1409 15.9785C13.1409 16.9427 13.4118 17.8527 13.8884 18.6327C14.2893 19.3043 14.8418 19.8785 15.5134 20.2902V20.6585C15.5134 21.3193 15.0801 22.1968 14.5276 22.5218L13.0001 23.5077C11.5809 24.3852 9.60927 23.3993 9.60927 21.6443V15.8485C9.60927 15.0793 9.1651 14.0935 8.73177 13.5518L4.57177 9.17518C4.0301 8.62268 3.58594 7.63685 3.58594 6.98685V4.46268C3.58594 3.15185 4.57177 2.16602 5.77427 2.16602H20.2259C21.4284 2.16602 22.4143 3.15185 22.4143 4.35435Z" stroke="#042041" stroke-width="1.5" stroke-miterlimit="10" stroke-linecap="round" stroke-linejoin="round"/>
</svg>
