<svg width="26" height="26" viewBox="0 0 26 26" fill="none" xmlns="http://www.w3.org/2000/svg">
<path d="M6.50033 4.33268C8.30949 2.97852 10.5628 2.16602 13.0003 2.16602C18.9803 2.16602 23.8337 7.01935 23.8337 12.9993C23.8337 18.9793 18.9803 23.8327 13.0003 23.8327C7.02033 23.8327 2.16699 18.9793 2.16699 12.9993C2.16699 11.0385 2.68699 9.19685 3.60783 7.60435L13.0003 12.9993" stroke="#042041" stroke-width="1.5" stroke-miterlimit="10" stroke-linecap="round" stroke-linejoin="round"/>
<path d="M7.39919 9.70667C6.80743 10.703 6.4967 11.8411 6.50003 13C6.50003 16.5858 9.41419 19.5 13 19.5C16.5859 19.5 19.5 16.5858 19.5 13C19.5 9.41417 16.5859 6.5 13 6.5C12.0142 6.5 11.0717 6.71667 10.2375 7.1175" stroke="#042041" stroke-width="1.5" stroke-miterlimit="10" stroke-linecap="round" stroke-linejoin="round"/>
</svg>
