<svg width="40" height="41" viewBox="0 0 40 41" fill="none" xmlns="http://www.w3.org/2000/svg">
<path d="M20.0001 14.1172L18.2168 17.2172C17.8168 17.9005 18.1501 18.4672 18.9334 18.4672H21.0501C21.8501 18.4672 22.1668 19.0339 21.7668 19.7172L20.0001 22.8172" stroke="#1457ED" stroke-width="2.50389" stroke-linecap="round" stroke-linejoin="round"/>
<path d="M14.1663 37.637C17.9829 36.5537 22.0163 36.5537 25.8329 37.637M13.8329 31.037V29.1037C9.99961 26.787 6.84961 22.2703 6.84961 17.4703C6.84961 9.22034 14.4329 2.75368 22.9996 4.62034C26.7663 5.45368 30.0663 7.95368 31.7829 11.4037C35.2663 18.4037 31.5996 25.837 26.2163 29.087V31.0203C26.2163 31.5037 26.3996 32.6203 24.6163 32.6203H15.4329C13.5996 32.637 13.8329 31.9203 13.8329 31.037Z" stroke="#1457ED" stroke-width="2.50389" stroke-linecap="round" stroke-linejoin="round"/>
</svg>
