<svg width="40" height="41" viewBox="0 0 40 41" fill="none" xmlns="http://www.w3.org/2000/svg">
<path d="M4.20065 12.2042H35.8007M14.2007 3.87083V11.9708M25.8007 3.87083V11.2208M36.6673 25.3542V15.3542C36.6673 7.02083 33.334 3.6875 25.0007 3.6875H15.0007C6.66732 3.6875 3.33398 7.02083 3.33398 15.3542V25.3542C3.33398 33.6875 6.66732 37.0208 15.0007 37.0208H25.0007C33.334 37.0208 36.6673 33.6875 36.6673 25.3542Z" stroke="#1457ED" stroke-width="2.50389" stroke-linecap="round" stroke-linejoin="round"/>
<path d="M16.25 24.4357V22.4357C16.25 19.8691 18.0667 18.8191 20.2833 20.1024L22.0167 21.1024L23.75 22.1024C25.9667 23.3857 25.9667 25.4857 23.75 26.7691L22.0167 27.7691L20.2833 28.7691C18.0667 30.0524 16.25 29.0024 16.25 26.4357V24.4357Z" stroke="#1457ED" stroke-width="2.50389" stroke-miterlimit="10" stroke-linecap="round" stroke-linejoin="round"/>
</svg>
