<svg width="40" height="41" viewBox="0 0 40 41" fill="none" xmlns="http://www.w3.org/2000/svg">
<path d="M20.884 34.9729H10.3507C5.08398 34.9729 3.33398 31.4729 3.33398 27.9562V13.9229C3.33398 8.65625 5.08398 6.90625 10.3507 6.90625H20.884C26.1507 6.90625 27.9007 8.65625 27.9007 13.9229V27.9562C27.9007 33.2229 26.134 34.9729 20.884 34.9729Z" stroke="#1457ED" stroke-width="2.50389" stroke-linecap="round" stroke-linejoin="round"/>
<path d="M32.5327 29.4416L27.8993 26.1916V15.675L32.5327 12.425C34.7993 10.8416 36.666 11.8083 36.666 14.5916V27.2916C36.666 30.075 34.7993 31.0416 32.5327 29.4416ZM19.166 19.275C19.8291 19.275 20.4649 19.0116 20.9338 18.5427C21.4026 18.0739 21.666 17.438 21.666 16.775C21.666 16.1119 21.4026 15.476 20.9338 15.0072C20.4649 14.5384 19.8291 14.275 19.166 14.275C18.503 14.275 17.8671 14.5384 17.3982 15.0072C16.9294 15.476 16.666 16.1119 16.666 16.775C16.666 17.438 16.9294 18.0739 17.3982 18.5427C17.8671 19.0116 18.503 19.275 19.166 19.275Z" stroke="#1457ED" stroke-width="2.50389" stroke-linecap="round" stroke-linejoin="round"/>
</svg>
