<svg width="40" height="40" viewBox="0 0 40 40" fill="none" xmlns="http://www.w3.org/2000/svg">
<path d="M5.58314 3.33594H20.4165C21.6498 3.33594 22.6665 4.3526 22.6665 5.58594V8.0526C22.6665 8.9526 22.0998 10.0693 21.5498 10.6359L16.7165 14.9026C16.0498 15.4693 15.5998 16.5859 15.5998 17.4859V22.3193C15.5998 22.9859 15.1498 23.8859 14.5831 24.2359L13.0165 25.2526C11.5498 26.1526 9.53314 25.1359 9.53314 23.3359V17.3859C9.53314 16.6026 9.08314 15.5859 8.63314 15.0193L4.36648 10.5193C3.79981 9.9526 3.34981 8.9526 3.34981 8.26927V5.68594C3.33314 4.3526 4.34981 3.33594 5.58314 3.33594Z" stroke="#1457ED" stroke-width="2.50389" stroke-miterlimit="10" stroke-linecap="round" stroke-linejoin="round"/>
<path d="M3.33398 20.001V25.001C3.33398 33.3344 6.66732 36.6677 15.0007 36.6677H25.0007C33.334 36.6677 36.6673 33.3344 36.6673 25.001V15.001C36.6673 9.80104 35.3673 6.53438 32.3507 4.83438C31.5007 4.35104 29.8007 3.98438 28.2507 3.73438M21.6673 21.6677H30.0007M18.334 28.3344H30.0007" stroke="#1457ED" stroke-width="2.50389" stroke-linecap="round" stroke-linejoin="round"/>
</svg>
