<svg width="40" height="41" viewBox="0 0 40 41" fill="none" xmlns="http://www.w3.org/2000/svg">
<path d="M36.6673 19.9599V21.4432C36.6673 27.3766 35.184 28.8432 29.2673 28.8432H10.734C4.81732 28.8432 3.33398 27.3599 3.33398 21.4432V10.8766C3.33398 4.9599 4.81732 3.47656 10.734 3.47656H13.334M20.0007 28.8432V36.8099M3.33398 21.8099H36.6673M12.5007 36.8099H27.5007" stroke="#1457ED" stroke-width="2.50389" stroke-linecap="round" stroke-linejoin="round"/>
<path d="M29.7656 15.7589H21.8323C19.5323 15.7589 18.7656 14.2255 18.7656 12.6922V6.82552C18.7656 4.99219 20.2656 3.49219 22.099 3.49219H29.7656C31.4656 3.49219 32.8323 4.85885 32.8323 6.55885V12.6922C32.8323 14.3922 31.4656 15.7589 29.7656 15.7589ZM34.849 13.3422L32.8323 11.9255V7.32552L34.849 5.90885C35.849 5.22552 36.6656 5.64219 36.6656 6.85885V12.4089C36.6656 13.6255 35.849 14.0422 34.849 13.3422Z" stroke="#1457ED" stroke-width="2.50389" stroke-linecap="round" stroke-linejoin="round"/>
</svg>
