<svg width="40" height="41" viewBox="0 0 40 41" fill="none" xmlns="http://www.w3.org/2000/svg">
<path d="M36.6673 15.55V25.55C36.6673 29.7167 35.834 32.6333 33.9673 34.5167L23.334 23.8833L36.2173 11C36.5173 12.3167 36.6673 13.8167 36.6673 15.55Z" stroke="#1457ED" stroke-width="2.50389" stroke-linecap="round" stroke-linejoin="round"/>
<path d="M36.2173 11.0073L10.4507 36.774C5.43398 35.624 3.33398 32.1573 3.33398 25.5573V15.5573C3.33398 7.22396 6.66732 3.89062 15.0007 3.89062H25.0007C31.6007 3.89062 35.0673 5.99063 36.2173 11.0073Z" stroke="#1457ED" stroke-width="2.50389" stroke-linecap="round" stroke-linejoin="round"/>
<path d="M33.9659 34.524C32.0825 36.3906 29.1659 37.224 24.9992 37.224H14.9992C13.2659 37.224 11.7659 37.074 10.4492 36.774L23.3326 23.8906L33.9659 34.524Z" stroke="#1457ED" stroke-width="2.50389" stroke-linecap="round" stroke-linejoin="round"/>
<path d="M10.3995 13.8578C11.5328 8.97448 18.8661 8.97448 19.9995 13.8578C20.6495 16.7245 18.8495 19.1578 17.2661 20.6578C16.7085 21.1877 15.9687 21.4832 15.1995 21.4832C14.4302 21.4832 13.6904 21.1877 13.1328 20.6578C11.5495 19.1578 9.7328 16.7245 10.3995 13.8578Z" stroke="#1457ED" stroke-width="2.50389"/>
<path d="M15.1602 15.0547H15.1743" stroke="#1457ED" stroke-width="3.33852" stroke-linecap="round" stroke-linejoin="round"/>
</svg>
