<svg width="40" height="41" viewBox="0 0 40 41" fill="none" xmlns="http://www.w3.org/2000/svg">
<path d="M28.334 15.5885C28.334 22.0385 22.734 27.2552 15.834 27.2552L14.284 29.1219L13.3673 30.2219C12.584 31.1552 11.084 30.9552 10.5673 29.8385L8.33398 24.9219C5.30065 22.7885 3.33398 19.4052 3.33398 15.5885C3.33398 9.13854 8.93398 3.92188 15.834 3.92188C20.8673 3.92188 25.2173 6.70521 27.1673 10.7052C27.9173 12.1885 28.334 13.8385 28.334 15.5885Z" stroke="#1457ED" stroke-width="2.50389" stroke-linecap="round" stroke-linejoin="round"/>
<path d="M11.666 15.5865H19.9993M36.666 22.0198C36.666 25.8365 34.6993 29.2198 31.666 31.3531L29.4327 36.2698C28.916 37.3865 27.416 37.6031 26.6327 36.6531L24.166 33.6865C20.1327 33.6865 16.5327 31.9031 14.2827 29.1198L15.8327 27.2531C22.7327 27.2531 28.3327 22.0365 28.3327 15.5865C28.3327 13.8365 27.916 12.1865 27.166 10.7031C32.616 11.9531 36.666 16.5531 36.666 22.0198Z" stroke="#1457ED" stroke-width="2.50389" stroke-linecap="round" stroke-linejoin="round"/>
</svg>
