<svg width="40" height="40" viewBox="0 0 40 40" fill="none" xmlns="http://www.w3.org/2000/svg">
<path d="M20.0007 28.7026V36.6693M3.33398 21.6693H36.6673M12.5007 36.6693H27.5007M10.734 3.33594H29.2506C35.184 3.33594 36.6673 4.81927 36.6673 10.7359V21.2859C36.6673 27.2193 35.184 28.6859 29.2673 28.6859H10.734C4.81732 28.7026 3.33398 27.2193 3.33398 21.3026V10.7359C3.33398 4.81927 4.81732 3.33594 10.734 3.33594Z" stroke="#1457ED" stroke-width="2.5" stroke-linecap="round" stroke-linejoin="round"/>
<path d="M12.2567 17.8199C11.9901 17.8199 11.7234 17.7366 11.4901 17.5533C11.3598 17.4537 11.2505 17.3294 11.1683 17.1876C11.0861 17.0457 11.0326 16.8891 11.011 16.7266C10.9893 16.5641 10.9998 16.3989 11.042 16.2405C11.0842 16.0821 11.1572 15.9335 11.2567 15.8033L15.2234 10.6533C15.7067 10.0366 16.3901 9.6366 17.1734 9.5366C17.9567 9.4366 18.7234 9.65327 19.3401 10.1366L22.3901 12.5366C22.5067 12.6366 22.6234 12.6199 22.7067 12.6199C22.7734 12.6199 22.8901 12.5866 22.9901 12.4533L26.8401 7.4866C27.2567 6.9366 28.0401 6.8366 28.5901 7.26993C29.1401 7.6866 29.2401 8.46993 28.8067 9.01993L24.9567 13.9866C24.4734 14.6033 23.7901 15.0033 23.0067 15.0866C22.2401 15.1866 21.4567 14.9699 20.8567 14.4866L17.8067 12.0866C17.764 12.0491 17.7132 12.0221 17.6582 12.0076C17.6033 11.9932 17.5457 11.9917 17.4901 12.0033C17.4234 12.0033 17.3067 12.0366 17.2067 12.1699L13.2401 17.3199C13.0067 17.6533 12.6401 17.8199 12.2567 17.8199Z" fill="#1457ED"/>
</svg>
