<svg width="40" height="41" viewBox="0 0 40 41" fill="none" xmlns="http://www.w3.org/2000/svg">
<path d="M15.0007 37.0521H25.0007C33.334 37.0521 36.6673 33.7188 36.6673 25.3854V15.3854C36.6673 7.05208 33.334 3.71875 25.0007 3.71875H15.0007C6.66732 3.71875 3.33398 7.05208 3.33398 15.3854V25.3854C3.33398 33.7188 6.66732 37.0521 15.0007 37.0521Z" stroke="#1457ED" stroke-width="2.50389" stroke-linecap="round" stroke-linejoin="round"/>
<path d="M25.834 31.2135C27.6673 31.2135 29.1673 29.7135 29.1673 27.8802V12.8802C29.1673 11.0469 27.6673 9.54688 25.834 9.54688C24.0007 9.54688 22.5007 11.0469 22.5007 12.8802V27.8802C22.5007 28.7643 22.8518 29.6121 23.477 30.2372C24.1021 30.8624 24.9499 31.2135 25.834 31.2135ZM14.1673 31.2135C16.0007 31.2135 17.5007 29.7135 17.5007 27.8802V22.0469C17.5007 20.2135 16.0007 18.7135 14.1673 18.7135C12.334 18.7135 10.834 20.2135 10.834 22.0469V27.8802C10.834 28.7643 11.1852 29.6121 11.8103 30.2372C12.4354 30.8624 13.2833 31.2135 14.1673 31.2135Z" stroke="#1457ED" stroke-width="2.50389" stroke-linecap="round" stroke-linejoin="round"/>
</svg>
