<svg width="40" height="41" viewBox="0 0 40 41" fill="none" xmlns="http://www.w3.org/2000/svg">
<path d="M16.8499 19.3828H12.4332C11.3832 19.3828 10.5332 20.2328 10.5332 21.2828V29.8161H16.8499V19.3828Z" stroke="#1457ED" stroke-width="2.50389" stroke-miterlimit="10" stroke-linecap="round" stroke-linejoin="round"/>
<path d="M21.2693 11.7969H18.7359C17.6859 11.7969 16.8359 12.6469 16.8359 13.6969V29.7969H23.1526V13.6969C23.1526 12.6469 22.3193 11.7969 21.2693 11.7969ZM27.5809 22.2135H23.1643V29.7969H29.4809V24.1135C29.4643 23.0635 28.6143 22.2135 27.5809 22.2135Z" stroke="#1457ED" stroke-width="2.50389" stroke-miterlimit="10" stroke-linecap="round" stroke-linejoin="round"/>
<path d="M15.0007 37.4661H25.0007C33.334 37.4661 36.6673 34.1328 36.6673 25.7995V15.7995C36.6673 7.46615 33.334 4.13281 25.0007 4.13281H15.0007C6.66732 4.13281 3.33398 7.46615 3.33398 15.7995V25.7995C3.33398 34.1328 6.66732 37.4661 15.0007 37.4661Z" stroke="#1457ED" stroke-width="2.50389" stroke-linecap="round" stroke-linejoin="round"/>
</svg>
