<svg width="40" height="41" viewBox="0 0 40 41" fill="none" xmlns="http://www.w3.org/2000/svg">
<path d="M14.4531 24.0552C14.4531 26.2052 16.1031 27.9385 18.1531 27.9385H22.3365C24.1198 27.9385 25.5698 26.4219 25.5698 24.5552C25.5698 22.5219 24.6865 21.8052 23.3698 21.3385L16.6531 19.0052C15.3365 18.5385 14.4531 17.8219 14.4531 15.7885C14.4531 13.9219 15.9031 12.4052 17.6865 12.4052H21.8698C23.9198 12.4052 25.5698 14.1385 25.5698 16.2885M19.9998 10.1719V30.1719" stroke="#1457ED" stroke-width="2.50389" stroke-linecap="round" stroke-linejoin="round"/>
<path d="M25.0007 36.8411H15.0007C6.66732 36.8411 3.33398 33.5078 3.33398 25.1745V15.1745C3.33398 6.84115 6.66732 3.50781 15.0007 3.50781H25.0007C33.334 3.50781 36.6673 6.84115 36.6673 15.1745V25.1745C36.6673 33.5078 33.334 36.8411 25.0007 36.8411Z" stroke="#1457ED" stroke-width="2.50389" stroke-linecap="round" stroke-linejoin="round"/>
</svg>
