<svg width="19" height="17" viewBox="0 0 19 17" fill="none" xmlns="http://www.w3.org/2000/svg">
<path d="M14.9996 0H13.9996H4.56958C3.49958 0 2.58958 0.67 2.37958 1.61L1.03958 7.61C0.76958 8.85 1.81958 10 3.22958 10H7.45958L5.93958 14.94C5.61958 15.97 6.45958 17 7.61958 17C8.19958 17 8.75958 16.76 9.13958 16.35L14.9996 10H18.9996V0H14.9996ZM8.39958 15.67C8.20958 15.88 7.91958 16 7.61958 16C7.35958 16 7.11958 15.89 6.98958 15.7C6.91958 15.6 6.83958 15.44 6.89958 15.23L8.41958 10.29L8.81958 9H7.45958H3.22958C2.81958 9 2.42958 8.83 2.19958 8.54C2.07958 8.39 1.94958 8.14 2.01958 7.82L3.35958 1.82C3.45958 1.35 3.96958 1 4.56958 1H13.9996V9.61L8.39958 15.67ZM17.9996 9H14.9996V1H17.9996V9Z" fill="#5D6F7D"/>
</svg>
