<svg width="2" height="34" viewBox="0 0 2 34" fill="none" xmlns="http://www.w3.org/2000/svg">
<mask id="path-1-inside-1_308_8" fill="white">
<path d="M0 0.998047H2V19V33.998H0V19V0.998047Z"/>
</mask>
<path d="M0 0.998047H2V19V33.998H0V19V0.998047Z" fill="#3FC743"/>
<path d="M0 0.998047V-1.00195H-2V0.998047H0ZM2 0.998047H4V-1.00195H2V0.998047ZM2 33.998V35.998H4V33.998H2ZM0 33.998H-2V35.998H0V33.998ZM0 2.99805H2V-1.00195H0V2.99805ZM2 31.998H0V35.998H2V31.998ZM0 0.998047V19H4V0.998047H0ZM0 19V33.998H4V19H0ZM2 33.998V19H-2V33.998H2ZM2 19V0.998047H-2V19H2Z" fill="#199541" mask="url(#path-1-inside-1_308_8)"/>
<path d="M0 3H2V32H0V3Z" fill="#3FC743"/>
</svg>
